<?xml version="1.0" encoding="utf-8"?>
<!-- Generator: Adobe Illustrator 17.0.0, SVG Export Plug-In . SVG Version: 6.00 Build 0)  -->
<!DOCTYPE svg PUBLIC "-//W3C//DTD SVG 1.1//EN" "http://www.w3.org/Graphics/SVG/1.1/DTD/svg11.dtd">
<svg version="1.1" id="Layer_1" xmlns="http://www.w3.org/2000/svg" xmlns:xlink="http://www.w3.org/1999/xlink" x="0px" y="0px"
	 width="200px" height="100px" viewBox="0 0 200 100" enable-background="new 0 0 200 100" xml:space="preserve">
<g>
	<path fill="#FFFFFF" d="M97.942,36.015c-0.038,0.241-0.075,0.477-0.122,0.688C97.884,36.461,97.923,36.234,97.942,36.015z"/>
	<path fill="#FFFFFF" d="M96.461,32.324c0.269,0.659,0.96,1.012,1.191,1.764c0.216,0.703,0.343,1.283,0.289,1.928
		c0.068-0.43,0.138-0.875,0.269-1.221c0.142-0.375,0.476-0.503,0.427-0.955c-0.042-0.386-0.405-0.62-0.515-1.015
		c-0.12-0.429-0.116-0.987-0.159-1.42c-0.069-0.702-0.052-1.143,0.115-1.807c0.133-0.527,0.187-1.041-0.015-1.579
		c-0.212-0.563-0.659-1.541-0.738-1.622c-0.827,0.052-0.141,1.546-0.125,2.015c0.032,0.934,0.017,1.564-0.424,2.363
		C96.56,31.164,96.271,31.858,96.461,32.324z"/>
	<path fill="#FFFFFF" d="M101.076,34.339c-0.002,0.024,0.001,0.047,0,0.07C101.087,34.411,101.088,34.391,101.076,34.339z"/>
	<path fill="#FFFFFF" d="M98.546,44.342c-0.253,0.429-0.217,0.728-0.235,1.192c-0.029,0.709-0.514,1.34-0.536,1.999
		c0.233-0.446,0.312-1.051,0.502-1.546c0.246-0.643,0.724-1.204,1.078-1.788c0.555-0.917,0.918-1.448,1.111-2.48
		c0.117-0.629,0.427-1.352,0.253-2.001c-0.109-0.409-0.366-0.582-0.253-1.063c0.085-0.361,0.389-0.649,0.525-0.999
		c0.187-0.481,0.319-1.105,0.339-1.628c0.022-0.556-0.265-1.075-0.253-1.618c-0.041-0.01-0.229-0.398-0.314-0.74
		c0.002,0.855-0.121,1.907-0.397,2.705c-0.256,0.741-0.777,1.43-0.916,2.217c-0.185,1.046,0.781,1.688,0.441,2.757
		C99.567,42.367,99.073,43.449,98.546,44.342z"/>
	<path fill="#FFFFFF" d="M114.328,39.511c-0.576-0.359-0.614-0.891-1.036-1.434c-0.304-0.39-0.711-1.227-1.146-1.425
		c0.081,0.829,0.624,1.66,0.876,2.407c0.278,0.827-0.318,1.418-0.142,2.221c0.128,0.585,0.702,1.183,0.941,1.751
		c0.32,0.759,0.766,1.449,1.233,2.15c0.724,1.086,1.1,1.889,1.233,3.224c0.263-0.592-0.27-1.585-0.421-2.216
		c-0.195-0.814,0.027-1.513-0.326-2.32c-0.302-0.691-0.469-1.444-0.765-2.089C114.529,41.247,113.474,40.029,114.328,39.511z"/>
	<path fill="#FFFFFF" d="M111.96,44.274c0.57,1.657,0.808,3.467,0.95,5.195c0.093-0.278,0.274-0.619,0.591-0.762
		c-0.837-0.304-0.154-3.103-0.413-3.811c-0.08,0.102-0.239,0.166-0.317,0.302c-0.29-0.893-0.679-1.628-0.829-2.556
		c-0.137-0.855-0.179-1.803-0.426-2.605c0.003,0.081,0.004,0.161,0.003,0.305c0.051,0.671-0.319,1.179-0.314,1.815
		C111.211,42.819,111.74,43.637,111.96,44.274z"/>
	<path fill="#FFFFFF" d="M109.951,44.656c-0.156-0.406-0.482-0.609-0.557-0.624c0.756,1.564,1.228,3.262,1.438,4.986
		c-0.003-0.673-0.066-1.375-0.19-2.024c0.523,0.804,0.848,1.709,1.257,2.522c0.022-1.469-0.807-2.225-1.426-3.432
		C110.226,45.603,110.133,45.13,109.951,44.656z"/>
	<path fill="#FFFFFF" d="M108.959,45.908c-0.139-0.466-0.718-0.867-0.991-1.25c-0.041,0.313,0.098,0.599,0.05,0.687
		c0.194,0.54,0.249,1.101,0.389,1.64c0.1,0.386,0.53,0.738,0.499,1.106c0.882-0.452,2.547,5.372,3.183,5.987
		c-0.389-0.76-0.576-1.595-0.916-2.378c-0.242-0.558-0.586-1.049-0.827-1.6c-0.355-0.812-0.701-1.556-0.968-2.397
		c-0.115-0.361-0.344-0.687-0.422-1.044C108.9,46.402,109.025,46.128,108.959,45.908z"/>
	<path fill="#FFFFFF" d="M109.447,55.723c0.032-0.644-0.797-1.399-1.04-2.011c-0.427-1.08-0.909-2.351-1.21-3.489
		c-0.218-0.828-0.545-0.977-1.058-1.588c-0.324-0.386-0.601-1.15-0.748-1.476c0.077,0.198-0.129,1.296-0.325,1.616
		c-0.114-0.04-0.254-0.012-0.356-0.044c0.339,0.897,1.469,1.8,2.052,2.599c0.431,0.591,0.924,1.272,1.27,1.901
		C108.44,53.974,108.759,55.194,109.447,55.723z"/>
	<path fill="#FFFFFF" d="M107.081,54.587c-0.512-0.588-1.257-0.806-1.743-1.425c-0.82-1.046-1.345-2.506-1.999-3.675
		c0.003,0.441,0.201,0.875,0.14,1.266c-0.044,0.281-0.349,0.269-0.156,0.637c-0.424-0.26-0.803-0.732-1.3-0.799
		c-0.027-0.098,0.014-0.143-0.383,0.008c0.79,0.839,1.24,2.076,2.126,2.816c0.304,0.254,0.8,0.488,1.051,0.824
		c0.262,0.351,0.265,0.866,0.562,1.171c-0.038-0.184-0.019-0.41-0.04-0.6c1.148,0.135,1.9,1.333,2.908,1.801
		C107.845,55.946,107.596,55.178,107.081,54.587z"/>
	<path fill="#FFFFFF" d="M119.386,51.239c-0.132-0.796-0.727-1.299-1.065-1.965c0.089,0.473,0.175,1.462,0.19,1.807
		c0.031,0.702,0.361,1.786,0.128,2.449c-0.267-0.054-0.554-0.228-0.797-0.363c0.152,0.465,0.609,0.772,0.842,1.195
		c0.174,0.316,0.212,0.7,0.413,0.986c0.369,0.526,1.102,0.821,1.553,1.295c0.304,0.321,0.545,0.702,0.871,1.002
		c-0.5-1.486-1.088-3.048-1.842-4.39C119.301,52.585,119.505,51.955,119.386,51.239z"/>
	<path fill="#FFFFFF" d="M118.212,49.035c0.031,0.083,0.069,0.161,0.109,0.239C118.283,49.078,118.245,48.969,118.212,49.035z"/>
	<path fill="#FFFFFF" d="M115.934,61.978c-1.469-0.787-2.361-1.999-3.524-3.201c-0.609-0.629-1.121-0.907-1.967-1.112
		c-0.812-0.197-1.103-0.858-1.8-1.125c0.458,0.746,0.781,1.178,1.565,1.657c0.841,0.513,1.293,1.516,2.107,2.141
		c0.532,0.409,0.964,0.917,1.482,1.331c0.579,0.464,1.074,0.657,1.53,1.29c0.77,1.071,1.366,2.298,2.191,3.326
		c-0.187-1.143-1.342-2.015-1.619-3.115c0.438,0.176,0.766,0.577,1.097,0.911c-0.199-0.228-0.159-0.233-0.04-0.456
		c-0.722-0.644-1.393-1.353-2.117-1.997c0.504,0.349,1.077,0.465,1.642,0.676C116.304,62.189,116.123,62.08,115.934,61.978z"/>
	<path fill="#FFFFFF" d="M118.52,63.481c-0.096-0.037-0.189-0.078-0.281-0.12c0.459,0.303,0.925,0.553,1.343,0.545
		C119.291,63.755,118.885,63.619,118.52,63.481z"/>
	<path fill="#FFFFFF" d="M116.901,62.48c-0.139-0.07-0.279-0.126-0.42-0.179c0.582,0.369,1.122,0.769,1.759,1.059
		C117.766,63.048,117.299,62.68,116.901,62.48z"/>
	<path fill="#FFFFFF" d="M120.744,46.627c-0.141-0.759-0.1-1.594-0.283-2.324c-0.091,1.011-0.633,0.761-1.311,0.542
		c-0.116,0.137,0.842,2.315,1.029,2.749c0.3,0.694,0.989,1.516,0.717,2.297C121.401,48.845,120.936,47.665,120.744,46.627z"/>
	<path fill="#FFFFFF" d="M127.331,56.708c-1.172-3.041-0.823-5.932-0.8-9.037c-0.001,0.443-0.486,1.346-0.942,1.522
		c-0.672,0.26-0.737-1.154-1.012-1.768c-0.356-0.794-0.835-1.585-1.203-2.38c-0.166,0.428,0.11,1.173,0.216,1.613
		c0.199,0.829,0.257,1.548,0.245,2.405c-0.012,0.874,0.582,1.522,1.098,2.271c0.563,0.817,1.079,1.45,1.457,2.404
		C126.769,54.694,126.904,55.787,127.331,56.708z"/>
	<path fill="#FFFFFF" d="M123.149,44.522c0.067,0.175,0.144,0.349,0.225,0.524c0.01-0.025,0.015-0.053,0.028-0.076
		C123.158,44.713,123.161,44.392,123.149,44.522z"/>
	<path fill="#FFFFFF" d="M84.889,47.778c-0.049-0.89-0.652-1.379-0.51-2.245c-0.262,1.014-0.757,1.727-0.462,2.813
		c0.203,0.745,0.454,1.452,0.625,2.224c0.126,0.566,0.505,1.179,0.462,1.761c0-1.13,0.059-2.237,0.125-3.359
		c0.042-0.729,0.331-1.125,0.558-1.795C85.45,47.397,85.201,47.722,84.889,47.778z"/>
	<path fill="#FFFFFF" d="M69.659,29.923c0.162-0.153,0.27-0.29,0.26-0.397C69.874,29.64,69.775,29.776,69.659,29.923z"/>
	<path fill="#FFFFFF" d="M71.2,31.608c-0.072,0.484-0.063,1.201,0.072,1.658c-0.054-0.492-0.031-1.345,0.15-1.786
		c0.331-0.098,0.623-0.683,0.164-1.034c-0.01,0.07-0.106,0.246-0.159,0.409C71.34,31.124,71.243,31.319,71.2,31.608z"/>
	<path fill="#FFFFFF" d="M73.241,30.851c-0.001,0.008-0.002,0.016-0.003,0.024C73.252,30.86,73.255,30.851,73.241,30.851z"/>
	<path fill="#FFFFFF" d="M71.333,55.2c-0.276,0.211-0.531,0.211-0.78,0.533c-0.435,0.561-0.836,1.719-1.05,2.398
		c-0.274-0.325-0.449-1.042-0.962-1.467c0.178,0.98,0.253,1.535-0.123,2.45c-0.32,0.778-0.438,1.65-0.709,2.42
		c-0.527,1.498-1.482,1.943-2.608,2.828c0.682,0.355,1.951-1.003,2.39-1.415c0.393-0.369,0.877-0.702,1.208-1.139
		c0.381-0.503,0.418-1.045,0.716-1.604c0.271-0.508,0.614-0.981,0.846-1.512c0.279-0.637,0.284-1.367,0.579-1.996
		c0.449-0.956,1.273-1.906,1.339-3.024C72.07,54.266,71.827,54.821,71.333,55.2z"/>
	<path fill="#FFFFFF" d="M86.954,47.347c0.007-0.001,0.014-0.006,0.021-0.008c0.028-0.107,0.045-0.215,0.045-0.322
		C86.996,47.127,86.986,47.24,86.954,47.347z"/>
	<path fill="#FFFFFF" d="M96.111,68.063c-0.48-0.709-0.275-1.83,0.021-2.58c0.219,0.152,0.407,0.385,0.402,0.677
		c-0.006-1.808-0.983-3.278-1.203-5.011c-0.365,0.414-0.478-0.038-0.79-0.078c-0.315-0.04-0.717,0.245-0.889-0.201
		c-0.795,0.2-0.379,0.282-0.894-0.22c-0.286-0.279-0.67-0.44-0.562-0.908c-0.28,1.036-0.212,1.039-0.145,1.06
		c-0.031,0.433,0.247,1.887,0.492,2.156c0.283,0.311,0.674,0.174,1.023,0.415c0.351,0.243,0.671,1.429,1.138,0.786
		c0.148,1.08,0.337,2.146,0.048,3.211c-0.108,0.397-0.135,1.014-0.607,0.921c-0.634-0.125-0.556-1.17-0.75-1.613
		c-0.602,0.175-1.149-0.323-1.697,0.064c-0.103-0.275-0.141-0.582-0.271-0.854c-0.509,0.286-0.023,1.079,0.075,1.512
		c0.078,0.347,0.095,1.607,0.487,1.793c0.37,0.175,0.329-0.158,0.63-0.284c0.359-0.15,0.118-0.218,0.486-0.18
		c0.209,0.021,0.68,0.506,0.914,0.584c0.822,0.275,0.913-0.152,1.207,0.971c0.038-0.065,0.037-0.11,0.061-0.187
		c0.132,0.188,0.242,0.486,0.397,0.629c0.019-0.068-0.01-0.128,0.004-0.191c0.334,0.589,0.488,1.473,1.046,1.872
		c0.294-1.493-0.129-3.116-0.21-4.621C96.444,67.89,96.192,67.985,96.111,68.063z"/>
	<path fill="#FFFFFF" d="M172.069,58.359c0.006,0.055,0.039,0.123,0.087,0.2C172.206,58.452,172.193,58.379,172.069,58.359z"/>
	<path fill="#FFFFFF" d="M171.08,60.449c0.06,0.538,0.649,0.783,0.777,1.224c0.193,0.664-0.097,1.671-0.384,2.302
		c0.964-1.03,1.039-2.624,1.961-3.772c-0.232-0.525-1.015-1.226-1.277-1.644C171.984,58.937,171.004,59.768,171.08,60.449z"/>
	<path fill="#FFFFFF" d="M195.967,64.632c-0.015-0.008-0.958-1.237-1.037-1.35c-0.651-0.929-0.689-1.964-0.424-2.997
		c-0.663,0.426-1.248,0.88-2.006,1.077c-0.011,0.151-0.043,0.324-0.045,0.471c-0.216,0.276-0.052-0.125-0.1-0.106
		c-0.273,0.601-0.933,1.785-0.906,2.389c0.052,1.131,1.187,1.462,1.839,2.27c0.567,0.702,0.89,1.501,0.999,2.448
		c0.089,0.777-0.246,1.66,0.029,2.316c1.002-0.672,1.665-1.917,2.523-2.816c-0.446,0.163-0.962,0.501-1.492,0.482
		c-0.08-0.669,0.404-1.257,0.245-1.927c-0.105-0.445-0.852-0.592-0.787-1.154c0.109-0.951,2.163-0.968,2.941-0.901
		C197.194,64.633,196.432,64.9,195.967,64.632z"/>
	<path fill="#FFFFFF" d="M73.605,52.684h-0.258c1.598-0.039,1.842,3.855,2.06,5.349c0.576-2.105,0.421-5.095,2.146-6.602
		c0.832,0.133,1.549,0.51,2.216,1.17c-0.195-1.77-1.989-3.064-2.073-4.794C76.475,48.284,74.124,51.292,73.605,52.684z"/>
	<path fill="#FFFFFF" d="M104.366,60.469c-1.331-0.528-1.537-2.172-2.065-3.013c-0.942-1.501-1.617-3.271-2.536-4.751
		c-0.315,1.611,0.797,2.763,0.717,3.081c0.214,1.021-0.373,3.074-0.213,3.676c0.3,1.124,1.115,1.293,1.763,2.255
		c1.408,2.086,1.656,4.546,2.01,6.913c0.56-1.653-0.238-3.081,0.109-4.807c0.814-0.037,1.214-0.011,1.765,0.912
		c1.013-1.673,3.28,0.19,3.894,1.569c-0.94-1.987-1.59-3.793-2.396-5.827C106.325,60.397,105.352,60.86,104.366,60.469z"/>
	<path fill="#FFFFFF" d="M200.332,58.016c-0.098-0.141-0.255-0.226-0.401-0.298c-0.15-0.074-0.284-0.162-0.386-0.291
		c-0.208-0.25-0.328-0.57-0.546-0.831l-0.615-0.784c-0.211-0.258-0.434-0.504-0.637-0.763c-0.1-0.129-0.199-0.263-0.283-0.399
		c-0.084-0.138-0.157-0.286-0.236-0.433c-0.079-0.148-0.162-0.295-0.272-0.435c-0.058-0.068-0.1-0.126-0.188-0.196
		c-0.022-0.017-0.07-0.038-0.116-0.03c-0.041,0.007-0.058,0.018-0.077,0.024c-0.035,0.014-0.069,0.022-0.101,0.028
		c-0.154,0.026-0.28-0.011-0.379-0.119c-0.101-0.106-0.176-0.253-0.274-0.397c-0.2-0.285-0.465-0.513-0.738-0.711
		c-0.275-0.197-0.563-0.368-0.851-0.537l-0.866-0.491c-0.284-0.166-0.571-0.329-0.836-0.517c-0.264-0.187-0.518-0.391-0.692-0.63
		c-0.042-0.068-0.095-0.145-0.129-0.204c-0.045-0.08-0.096-0.152-0.147-0.222c-0.104-0.139-0.216-0.268-0.331-0.392
		c-0.464-0.493-0.964-0.933-1.484-1.359l-0.101-0.082l-0.104,0.087l-0.826,0.688c-0.277,0.225-0.557,0.454-0.838,0.658
		c-0.124,0.095-0.285,0.168-0.443,0.246c-0.159,0.075-0.32,0.146-0.484,0.214c-0.327,0.133-0.66,0.254-0.996,0.35
		c-0.329,0.096-0.676,0.152-1.026,0.189c-0.346,0.037-0.732,0.06-1.101,0.185c-0.184,0.06-0.357,0.134-0.526,0.221
		c-0.088,0.043-0.163,0.086-0.243,0.129c-0.085,0.048-0.161,0.097-0.242,0.146c-0.316,0.201-0.607,0.437-0.877,0.685
		c-0.516,0.475-0.963,0.995-1.479,1.396c-0.156,0.039-0.314,0.075-0.479,0.108c-0.79,0.157-1.487-0.187-2.306-0.215
		c-0.066,0.227,0.047,0.415,0.277,0.538c-0.513,0.159-1.216,0.409-1.761,0.459c-0.467,0.042-0.796-0.169-1.235,0.101
		c0.087,0.116,0.108,0.395,0.21,0.52c-0.237,0.122-0.491,0.21-0.752,0.281c-0.005-0.222,0.031-0.427-0.084-0.68
		c-0.249-0.546-0.843-0.578-1.417-0.542c-0.247,0.016-1.18,0.297-1.158-0.298c0.01-0.282,0.536-0.393,0.593-0.672
		c0.02-0.098-0.125-0.334-0.138-0.449c-0.046-0.389,0.362-0.935,0.706-1.113c0.377-0.195,1.314,0.012,1.635,0.251
		c-0.153-0.291-0.347-0.523-0.569-0.753c-0.167-0.173-0.245-0.392-0.37-0.543c0.001,0.001,0.001,0.001,0.002,0.001l0.134,0.12
		l0.153-0.128c0.038-0.032,0.077-0.055,0.147-0.06c0.072,0.002,0.157,0.012,0.247,0.044c0.089,0.026,0.18,0.068,0.271,0.111
		c0.091,0.044,0.182,0.093,0.273,0.145c0.183,0.103,0.361,0.217,0.561,0.324c0.051,0.026,0.103,0.052,0.164,0.076l0.152,0.057
		l0.293,0.116c0.398,0.159,0.811,0.325,1.262,0.382c0.112,0.017,0.227,0.018,0.341,0.018c0.115-0.008,0.23-0.021,0.343-0.052
		c0.057-0.009,0.111-0.036,0.166-0.055c0.056-0.018,0.108-0.044,0.157-0.075c0.081-0.04,0.149-0.095,0.217-0.151
		c0.369,0.26,0.737,0.518,1.095,0.79c0.377,0.29,0.748,0.589,1.085,0.927l0.004,0.004l0.004,0c0.012-0.001,0.024-0.001,0.036-0.004
		c0.006-0.002,0.015-0.002,0.02-0.014c0.004-0.013-0.006-0.019-0.009-0.023c-0.02-0.016-0.04-0.025-0.061-0.036
		c-0.025-0.013-0.049-0.027-0.073-0.041c-0.606-0.683-1.337-1.242-2.044-1.81l-0.056-0.045l-0.073,0.05
		c-0.081,0.056-0.157,0.12-0.248,0.157c-0.043,0.024-0.087,0.043-0.135,0.055c-0.047,0.013-0.091,0.034-0.141,0.038
		c-0.096,0.02-0.194,0.026-0.292,0.027c-0.099-0.005-0.199-0.009-0.298-0.029c-0.4-0.067-0.785-0.237-1.172-0.412l-0.298-0.133
		c-0.048-0.021-0.101-0.041-0.146-0.062c-0.039-0.017-0.082-0.04-0.125-0.065c-0.174-0.1-0.354-0.222-0.541-0.335
		c-0.094-0.057-0.189-0.113-0.29-0.165c-0.1-0.052-0.203-0.103-0.318-0.141c-0.111-0.042-0.24-0.07-0.381-0.073
		c-0.088,0.001-0.183,0.025-0.272,0.068c-0.085-0.058-0.179-0.105-0.276-0.133c-0.149-0.045-0.294-0.054-0.416-0.061
		c-0.12-0.005-0.231-0.021-0.277-0.044c-0.082-0.041-0.165-0.107-0.237-0.181c-0.147-0.146-0.276-0.377-0.499-0.575
		c-0.052-0.045-0.123-0.099-0.184-0.136c-0.032-0.018-0.042-0.028-0.091-0.052l-0.097-0.046c-0.129-0.061-0.267-0.101-0.405-0.129
		c-0.558-0.108-1.076,0.007-1.548,0.044c-0.118,0.01-0.235,0.017-0.347,0.014c-0.114-0.001-0.198-0.009-0.333-0.033
		c-0.199-0.037-0.393-0.124-0.541-0.253c-0.3-0.255-0.5-0.803-1.033-1.129c-0.288-0.156-0.561-0.177-0.787-0.228
		c-0.116-0.026-0.205-0.048-0.254-0.086c-0.048-0.036-0.119-0.116-0.162-0.197c-0.049-0.084-0.088-0.188-0.133-0.307
		c-0.048-0.121-0.093-0.246-0.204-0.401c-0.18-0.21-0.346-0.388-0.567-0.564c-0.213-0.175-0.501-0.308-0.778-0.355
		c-0.274-0.049-0.541-0.048-0.788-0.045c-0.252,0.004-0.505,0.014-0.751,0.026c-0.245,0.01-0.483,0.023-0.642-0.041
		c-0.163-0.064-0.329-0.226-0.49-0.403c-0.16-0.176-0.311-0.37-0.506-0.564c-0.388-0.375-0.917-0.614-1.436-0.674
		c-0.522-0.074-1.028-0.036-1.523-0.003c-0.491,0.033-0.991,0.071-1.459,0.032c-0.475-0.062-0.96-0.206-1.475-0.234
		c-0.124-0.006-0.271,0.001-0.399,0.039c-0.135,0.041-0.244,0.117-0.348,0.186c-0.105,0.072-0.206,0.147-0.305,0.225
		c-0.048-0.004-0.097-0.009-0.143-0.024c-0.082-0.021-0.164-0.039-0.241-0.074c-0.079-0.028-0.156-0.061-0.23-0.102
		c-0.076-0.036-0.15-0.075-0.221-0.12c-0.146-0.082-0.285-0.179-0.419-0.279c-0.135-0.099-0.264-0.208-0.39-0.319
		c-0.251-0.222-0.483-0.466-0.695-0.724c-0.106-0.129-0.204-0.262-0.297-0.399c-0.049-0.067-0.087-0.139-0.13-0.208
		c-0.043-0.069-0.073-0.143-0.111-0.213l-0.045-0.085l-0.094,0.002c-0.298,0.006-0.598-0.015-0.895-0.055
		c-0.297-0.041-0.592-0.096-0.88-0.173c-0.288-0.077-0.57-0.174-0.834-0.298c-0.132-0.062-0.259-0.131-0.379-0.208
		c-0.12-0.076-0.227-0.165-0.328-0.256l-0.276-0.251l-0.089,0.357c-0.009,0.036-0.064,0.124-0.125,0.208
		c-0.01,0.015-0.021,0.031-0.032,0.046c-0.3-0.285-0.575-0.609-0.864-0.936c-0.176-0.2-0.361-0.398-0.562-0.587
		c-0.1-0.094-0.204-0.185-0.317-0.276c-0.055-0.045-0.106-0.081-0.16-0.122l-0.175-0.121c-0.463-0.304-0.947-0.533-1.413-0.773
		c-0.448-0.229-0.889-0.46-1.261-0.754c-0.002-0.003-0.003-0.005-0.005-0.008c-0.02-0.035-0.035-0.052-0.051-0.071
		c-0.032-0.038-0.06-0.065-0.088-0.09c-0.056-0.051-0.108-0.091-0.161-0.132c-0.105-0.079-0.209-0.151-0.313-0.221l-0.617-0.411
		c-0.202-0.137-0.405-0.272-0.594-0.415c-0.094-0.072-0.186-0.145-0.27-0.22c-0.082-0.074-0.159-0.156-0.201-0.223l-0.212-0.338
		l-0.191,0.337c-0.156,0.275-0.199,0.562-0.268,0.787c-0.034,0.113-0.074,0.211-0.129,0.283c-0.021,0.028-0.047,0.051-0.073,0.074
		l-0.035-0.052l-0.192-0.216l-0.216-0.188c-0.077-0.053-0.154-0.109-0.232-0.16c-0.16-0.096-0.323-0.179-0.488-0.253
		c-0.165-0.072-0.33-0.137-0.494-0.2c-0.328-0.123-0.651-0.238-0.951-0.391c-0.15-0.076-0.292-0.163-0.427-0.259l-0.193-0.156
		l-0.176-0.174l-0.131-0.129l-0.078,0.158c-0.027,0.056-0.05,0.117-0.084,0.166c-0.03,0.053-0.067,0.1-0.108,0.137
		c-0.003,0.003-0.006,0.005-0.009,0.008c-0.155-0.119-0.312-0.236-0.47-0.351c-0.076-0.058-0.155-0.116-0.235-0.173
		c-0.388-0.285-0.773-0.571-1.132-0.886c-0.035-0.031-0.068-0.064-0.103-0.095c-0.484-0.495-0.834-1.004-1.27-1.519l-0.062-0.118
		l-0.112-0.212l-0.166,0.195l-0.07,0.083c-0.022,0.03-0.052,0.043-0.076,0.066c-0.024,0.026-0.054,0.027-0.079,0.044
		c-0.026,0.014-0.055,0.011-0.082,0.021c-0.057,0.002-0.117-0.003-0.18-0.027c-0.032-0.015-0.064-0.021-0.096-0.042
		c-0.032-0.019-0.065-0.033-0.096-0.057c-0.127-0.085-0.246-0.198-0.356-0.32c-0.11-0.123-0.213-0.256-0.307-0.394l-0.097-0.142
		l-0.161,0.076c-0.411,0.195-0.812,0.41-1.199,0.654c-0.295,0.189-0.585,0.387-0.855,0.63c-0.043-0.114-0.081-0.239-0.123-0.375
		c-0.04-0.125-0.086-0.259-0.159-0.394c-0.037-0.068-0.081-0.134-0.132-0.197c-0.053-0.063-0.113-0.12-0.179-0.171l-0.17-0.133
		l-0.157,0.156c-0.423,0.421-0.903,0.778-1.419,1.093c-0.424,0.259-0.869,0.5-1.315,0.745c-0.02-0.067-0.033-0.121-0.032-0.157
		l0.016-0.666l-0.451,0.492c-0.335,0.365-0.595,0.773-0.842,1.164c-0.124,0.195-0.248,0.387-0.38,0.568
		c-0.066,0.09-0.135,0.178-0.205,0.264c-0.069,0.081-0.14,0.161-0.224,0.247c-0.151,0.153-0.324,0.306-0.499,0.446
		c-0.176,0.141-0.359,0.278-0.547,0.409c-0.376,0.263-0.77,0.507-1.163,0.764c-0.193,0.122-0.403,0.27-0.579,0.423l-0.532,0.459
		c-0.351,0.306-0.7,0.611-1.058,0.904c-0.36,0.29-0.73,0.569-1.134,0.788c-0.202,0.107-0.414,0.202-0.637,0.245
		c-0.103,0.021-0.207,0.022-0.311,0.009c-0.033-0.036-0.065-0.072-0.099-0.106c-0.184-0.188-0.381-0.325-0.549-0.469
		c-0.173-0.146-0.343-0.303-0.518-0.461c-0.174-0.157-0.358-0.319-0.554-0.466c-0.21-0.157-0.442-0.269-0.662-0.364
		c-0.22-0.095-0.431-0.179-0.615-0.281c-0.187-0.106-0.356-0.237-0.529-0.383c-0.169-0.144-0.326-0.302-0.463-0.467
		c-0.135-0.166-0.25-0.347-0.3-0.516l-0.12-0.41l-0.291,0.305c-0.211,0.221-0.396,0.429-0.598,0.631
		c-0.199,0.199-0.406,0.392-0.62,0.544c-0.103,0.071-0.224,0.137-0.298,0.157c-0.012-0.003,0.003,0.011-0.03,0.01l-0.038-0.003
		c-0.012-0.01-0.046-0.038-0.071-0.069c-0.079-0.089-0.16-0.207-0.24-0.323c-0.08-0.118-0.159-0.239-0.249-0.366
		c-0.025-0.034-0.044-0.061-0.077-0.101l-0.05-0.058l-0.049-0.048c-0.059-0.051-0.119-0.102-0.179-0.149l-0.343-0.262
		c-0.104-0.084-0.196-0.172-0.281-0.27c-0.043-0.049-0.083-0.101-0.12-0.151l-0.122-0.176c-0.354-0.502-0.768-0.902-0.942-1.378
		l-0.075-0.206l-0.215,0.043c-0.274,0.054-0.51,0.212-0.678,0.369c-0.173,0.157-0.313,0.313-0.453,0.413
		c-0.07,0.048-0.137,0.086-0.205,0.101c-0.037,0.014-0.059,0.009-0.086,0.018c-0.017,0.002-0.051-0.001-0.075-0.002l-0.04-0.002
		l-0.006,0l-0.001,0l-0.006-0.001c-0.142-0.018-0.244-0.094-0.367-0.245c-0.119-0.142-0.25-0.364-0.474-0.52
		c-0.212-0.144-0.413-0.239-0.622-0.327c-0.206-0.085-0.38-0.151-0.514-0.259c-0.139-0.104-0.251-0.248-0.366-0.421
		c-0.229-0.345-0.439-0.714-0.64-1.087c-0.202-0.374-0.397-0.752-0.587-1.134c-0.38-0.763-0.744-1.538-1.094-2.315l-0.022-0.05
		l-0.04-0.034l-0.71-0.615l-0.355-0.307l-0.177-0.154c-0.057-0.05-0.124-0.105-0.17-0.15c-0.201-0.188-0.379-0.437-0.542-0.69
		c-0.162-0.253-0.313-0.526-0.446-0.793l-0.013-0.026l-0.014-0.018c-0.317-0.398-0.642-0.78-0.981-1.157
		c-0.339-0.375-0.691-0.741-1.074-1.084l-0.175-0.156l-0.153,0.179c-0.332,0.389-0.731,0.734-1.135,1.083
		c-0.202,0.175-0.407,0.351-0.608,0.536c-0.202,0.188-0.393,0.372-0.586,0.595c-0.162,0.203-0.258,0.42-0.349,0.616
		c-0.267,0.213-0.529,0.43-0.781,0.652c-0.163,0.052-0.337,0.115-0.505,0.236c-0.199,0.142-0.441,0.265-0.676,0.433
		c-0.118,0.084-0.234,0.182-0.336,0.3c-0.052,0.06-0.097,0.12-0.143,0.197c-0.025,0.04-0.038,0.067-0.053,0.097l-0.027,0.055
		l-0.022,0.051c-0.105,0.264-0.185,0.519-0.263,0.781c-0.039,0.132-0.074,0.26-0.108,0.402c-0.028,0.135-0.053,0.222-0.109,0.326
		c-0.051,0.1-0.135,0.209-0.205,0.353c-0.071,0.146-0.105,0.293-0.134,0.432c-0.054,0.28-0.074,0.548-0.115,0.802
		c-0.043,0.258-0.097,0.481-0.231,0.672c-0.132,0.196-0.324,0.369-0.518,0.564c-0.156,0.156-0.312,0.336-0.432,0.545
		c-0.016-0.005-0.032-0.012-0.049-0.016c-0.082-0.011-0.164-0.031-0.249-0.013c-0.173,0.012-0.32,0.101-0.438,0.192
		c-0.229,0.195-0.37,0.426-0.504,0.65c-0.132,0.224-0.247,0.453-0.375,0.657c-0.113,0.188-0.302,0.372-0.469,0.56l-1.04,1.115
		c-0.173,0.188-0.343,0.379-0.51,0.574c-0.17,0.191-0.326,0.409-0.487,0.566c-0.341,0.33-0.816,0.52-1.251,0.83
		c-0.225,0.159-0.41,0.359-0.557,0.587c-0.147,0.224-0.256,0.461-0.363,0.693c-0.107,0.232-0.208,0.461-0.329,0.675
		c-0.029,0.052-0.059,0.103-0.09,0.152c-0.034-0.132-0.1-0.258-0.186-0.363c-0.126-0.16-0.273-0.301-0.386-0.464
		c-0.23-0.329-0.386-0.701-0.575-1.061c-0.38-0.714-0.821-1.415-1.44-1.97l-0.046-0.041l-0.049,0.022
		c-0.023,0.011-0.117-0.032-0.187-0.088c-0.075-0.056-0.148-0.123-0.22-0.192c-0.145-0.138-0.288-0.284-0.444-0.422
		c-0.157-0.136-0.323-0.276-0.546-0.358c-0.111-0.039-0.246-0.06-0.379-0.023c-0.043,0.013-0.082,0.032-0.12,0.053
		c-0.04-0.131-0.097-0.253-0.161-0.367c-0.102-0.18-0.222-0.343-0.346-0.499l-0.146-0.183l-0.105,0.208
		c-0.049,0.097-0.151,0.177-0.263,0.279c-0.089-0.118-0.2-0.222-0.322-0.295c-0.18-0.112-0.365-0.18-0.533-0.251
		c-0.168-0.071-0.321-0.147-0.439-0.251c-0.119-0.102-0.202-0.237-0.26-0.387c-0.046-0.139-0.065-0.325-0.085-0.511
		c-0.023-0.188-0.039-0.39-0.134-0.608c-0.048-0.11-0.129-0.211-0.206-0.285c-0.077-0.075-0.156-0.138-0.23-0.197
		c-0.075-0.059-0.147-0.115-0.211-0.171c-0.04-0.034-0.042-0.04-0.043-0.045c-0.009-0.016-0.02-0.051-0.032-0.094
		c-0.027-0.084-0.046-0.209-0.16-0.34c-0.019-0.018-0.022-0.024-0.055-0.051l-0.028-0.021c-0.027-0.018-0.074-0.046-0.097-0.055
		c-0.057-0.028-0.109-0.045-0.161-0.062c-0.199-0.062-0.4-0.087-0.542-0.131l-0.01-0.003c-0.001-0.001-0.003-0.003-0.005-0.005
		c-0.012-0.014-0.035-0.052-0.072-0.104c-0.036-0.05-0.093-0.115-0.171-0.158c-0.042-0.022-0.07-0.035-0.127-0.049
		c-0.005-0.003-0.089-0.016-0.125-0.011c-0.165,0.012-0.257,0.068-0.329,0.087c-0.035,0.011-0.062,0.017-0.079,0.017
		c-0.017,0.001-0.014,0-0.075-0.015c-0.05-0.011-0.087-0.023-0.118-0.036c-0.033-0.01-0.07-0.027-0.107-0.044
		c-0.074-0.033-0.147-0.075-0.219-0.121c-0.144-0.093-0.286-0.205-0.433-0.322c-0.291-0.235-0.609-0.479-0.968-0.66l-0.16-0.081
		l-0.119,0.137c-0.173,0.199-0.364,0.382-0.57,0.549c-0.206,0.169-0.428,0.321-0.659,0.49c-0.226,0.165-0.481,0.376-0.641,0.666
		c-0.148,0.26-0.246,0.508-0.396,0.68c-0.158,0.178-0.374,0.375-0.571,0.551c-0.101,0.089-0.204,0.175-0.306,0.252
		c-0.05,0.037-0.103,0.075-0.147,0.099c-0.008,0.006-0.056,0.029-0.081,0.042l-0.071,0.03c-0.105,0.04-0.213,0.06-0.353,0.081
		c-0.138,0.02-0.311,0.053-0.465,0.124c-0.308,0.139-0.54,0.371-0.729,0.587c-0.191,0.219-0.356,0.441-0.53,0.629
		c-0.087,0.093-0.178,0.179-0.269,0.248c-0.109,0.08-0.21,0.143-0.331,0.217c-0.234,0.142-0.499,0.302-0.719,0.533
		c-0.239,0.262-0.338,0.525-0.476,0.751c-0.06,0.108-0.144,0.225-0.181,0.247c-0.084,0.053-0.188,0.094-0.308,0.128
		c-0.238,0.067-0.521,0.093-0.818,0.184c-0.148,0.045-0.298,0.109-0.436,0.195c-0.13,0.083-0.236,0.156-0.361,0.249
		c-0.119,0.093-0.243,0.198-0.345,0.343c-0.062,0.085-0.11,0.189-0.14,0.298c-0.056,0.005-0.111,0.01-0.167,0.019
		c-0.122,0.021-0.242,0.051-0.359,0.089c-0.233,0.078-0.452,0.192-0.65,0.331c-0.345,0.243-0.629,0.562-0.835,0.932
		c-0.194-0.047-0.388-0.087-0.573-0.126c-0.121-0.025-0.238-0.052-0.352-0.083c-0.117-0.032-0.22-0.067-0.342-0.111
		c-0.229-0.083-0.449-0.174-0.649-0.289c-0.101-0.058-0.198-0.123-0.294-0.194c-0.1-0.074-0.18-0.141-0.293-0.232
		c-0.051-0.038-0.097-0.075-0.153-0.113c-0.062-0.038-0.124-0.078-0.186-0.112c-0.123-0.063-0.248-0.117-0.376-0.16
		c-0.256-0.086-0.515-0.132-0.767-0.169c-0.252-0.037-0.5-0.065-0.738-0.107c-0.119-0.022-0.236-0.048-0.35-0.079
		c-0.113-0.033-0.223-0.072-0.328-0.118l-0.149-0.065l-0.074,0.136c-0.177,0.324-0.301,0.66-0.426,0.988
		c-0.17,0.028-0.242-0.112-0.438-0.142c-0.06-0.009-0.111-0.016-0.158-0.021c-0.089-0.06-0.182-0.121-0.286-0.175l-0.139-0.072
		l-0.061,0.142c-0.083,0.194-0.23,0.345-0.425,0.452c-0.193,0.109-0.422,0.181-0.651,0.272c-0.116,0.046-0.229,0.099-0.337,0.147
		c-0.11,0.051-0.222,0.095-0.34,0.168c-0.124,0.072-0.219,0.208-0.267,0.323c-0.054,0.119-0.094,0.228-0.136,0.35
		c-0.037,0.111-0.071,0.241-0.098,0.357L48.38,39.8c-0.055,0.234-0.111,0.467-0.189,0.691c-0.04,0.111-0.08,0.223-0.133,0.327
		c-0.051,0.105-0.109,0.207-0.183,0.293c-0.07,0.091-0.16,0.16-0.259,0.208c-0.049,0.026-0.106,0.028-0.158,0.045
		c-0.055,0.001-0.112-0.003-0.168-0.003l-0.038,0l-0.013,0.025c-0.155,0.307-0.279,0.632-0.337,0.971
		c-0.029,0.169-0.04,0.343-0.022,0.514c0.004,0.032,0.013,0.063,0.019,0.095c0.005,0.054,0.008,0.107,0.018,0.164
		c-0.095,0.005-0.204-0.002-0.32-0.012c-0.167-0.02-0.335-0.039-0.505-0.043c-0.15-0.001-0.305-0.004-0.455,0.072
		c-0.136,0.07-0.251,0.203-0.311,0.344c-0.065,0.142-0.1,0.289-0.153,0.422c-0.05,0.134-0.13,0.252-0.217,0.369
		c-0.14,0.19-0.316,0.357-0.456,0.569c-0.28-0.29-0.599-0.549-0.944-0.763c-0.375-0.239-0.773-0.442-1.173-0.633
		c-0.402-0.191-0.801-0.37-1.208-0.548c-0.413-0.176-0.825-0.33-1.231-0.495c-0.406-0.163-0.804-0.336-1.177-0.545
		c-0.186-0.105-0.363-0.22-0.531-0.345c-0.163-0.129-0.324-0.261-0.457-0.415c-0.071-0.073-0.132-0.154-0.19-0.237
		c-0.061-0.076-0.117-0.174-0.171-0.262c-0.112-0.187-0.224-0.381-0.345-0.571c-0.122-0.191-0.25-0.381-0.403-0.565
		c-0.158-0.177-0.322-0.373-0.644-0.478l-0.188-0.061l-0.097,0.192c-0.066,0.13-0.134,0.245-0.217,0.327
		c-0.08,0.083-0.2,0.158-0.334,0.243c-0.164,0.11-0.271,0.21-0.39,0.296c-0.057,0.042-0.114,0.079-0.157,0.099
		c-0.012,0.006-0.018,0.007-0.026,0.011l-0.006,0.001l-0.001,0l-0.012,0.002c-0.001,0-0.001,0-0.002,0
		c-0.016-0.025-0.035-0.052-0.069-0.081c-0.051-0.045-0.111-0.07-0.161-0.083c-0.024-0.006-0.043-0.008-0.065-0.01L34.29,39.93
		l-0.03,0l-0.015,0c-0.024,0.001-0.031-0.001-0.068,0.003c-0.036,0.005-0.072,0.011-0.107,0.018
		c-0.225,0.065-0.371,0.183-0.504,0.292c-0.131,0.111-0.245,0.223-0.356,0.324c-0.055,0.05-0.109,0.096-0.161,0.135
		c-0.061,0.043-0.12,0.084-0.181,0.122c-0.249,0.157-0.527,0.286-0.813,0.426c-0.147,0.079-0.275,0.12-0.457,0.262
		c-0.156,0.124-0.267,0.286-0.352,0.425c-0.086,0.142-0.156,0.264-0.241,0.366c-0.021,0.025-0.042,0.05-0.066,0.073
		c-0.009,0.009-0.027,0.029-0.029,0.03l-0.044,0.039c-0.045,0.035-0.093,0.071-0.155,0.104c-0.236,0.132-0.527,0.209-0.821,0.256
		l-0.053,0.008c-0.031-0.031-0.083-0.078-0.17-0.102c-0.055-0.014-0.116-0.013-0.157-0.003l-0.017,0.004l-0.008,0.002l-0.025,0.009
		l-0.014,0.006l-0.028,0.012c-0.031,0.016-0.067,0.037-0.093,0.055l-0.059,0.045c-0.035,0.03-0.069,0.06-0.099,0.089
		c-0.063,0.06-0.119,0.119-0.174,0.179l-0.316,0.352c-0.051,0.056-0.104,0.112-0.148,0.151c-0.066,0.059-0.117,0.098-0.188,0.175
		c-0.066,0.068-0.124,0.145-0.172,0.242c-0.048,0.098-0.064,0.219-0.059,0.314c0.015,0.193,0.038,0.299,0.01,0.427
		c-0.023,0.124-0.088,0.255-0.166,0.379c-0.071,0.114-0.17,0.232-0.276,0.334c-0.212,0.211-0.468,0.389-0.72,0.578
		c-0.252,0.187-0.517,0.384-0.726,0.634c-0.14,0.166-0.257,0.342-0.372,0.518c-0.221,0.258-0.436,0.523-0.686,0.76
		c0.024,0.019,0.051,0.034,0.076,0.052c-0.006,0.006-0.011,0.013-0.017,0.019c-0.029-0.021-0.061-0.047-0.101-0.083
		c-0.047-0.041-0.104-0.094-0.177-0.141c-0.084-0.052-0.129-0.071-0.195-0.104c-0.12-0.058-0.234-0.106-0.333-0.159
		c-0.103-0.054-0.186-0.108-0.289-0.185c-0.095-0.071-0.228-0.156-0.338-0.219c-0.466-0.265-0.938-0.433-1.314-0.699l-0.136-0.096
		l-0.155,0.095c-0.068,0.042-0.135,0.088-0.203,0.12c-0.068,0.037-0.135,0.064-0.201,0.082c-0.066,0.022-0.129,0.028-0.192,0.03
		c-0.063,0.002-0.126-0.009-0.192-0.027c-0.133-0.038-0.278-0.113-0.428-0.198l-0.469-0.266l-0.137-0.078l-0.128,0.091
		c-0.079,0.056-0.176,0.093-0.28,0.125c0.004-0.007,0.017-0.016,0.032-0.025c-0.043,0.017-0.085,0.036-0.128,0.054
		c-0.162,0.041-0.345,0.073-0.543,0.121c-0.095,0.025-0.195,0.058-0.294,0.107c-0.025,0.013-0.049,0.024-0.076,0.04l-0.056,0.034
		l-0.124,0.081c-0.157,0.109-0.299,0.229-0.433,0.348c-0.236,0.21-0.442,0.399-0.682,0.556c-0.176,0.1-0.354,0.192-0.536,0.278
		c-0.155,0.063-0.318,0.118-0.483,0.165c-0.327,0.097-0.674,0.175-1.021,0.293c-0.35,0.112-0.689,0.286-0.991,0.481
		c-0.425,0.276-0.797,0.6-1.153,0.931c-0.271-0.093-0.52-0.233-0.758-0.386c-0.255-0.169-0.499-0.352-0.741-0.543l-0.083-0.066
		L11.817,48.9c-0.088,0.108-0.182,0.209-0.299,0.275c-0.116,0.066-0.244,0.111-0.381,0.132c-0.276,0.042-0.573,0.016-0.882,0
		c-0.155-0.008-0.313-0.017-0.477-0.01c-0.083,0-0.162,0.01-0.254,0.019c-0.072,0.01-0.157,0.025-0.241,0.043
		c-0.318,0.071-0.606,0.182-0.879,0.227c-0.136,0.023-0.265,0.03-0.383,0.012L7.935,49.58l-0.1-0.029
		c-0.066-0.021-0.131-0.046-0.197-0.072c-0.131-0.052-0.261-0.115-0.383-0.184L7.165,49.24l-0.08-0.056l-0.096-0.07
		c-0.036-0.024-0.093-0.068-0.192-0.091c-0.102-0.023-0.193,0-0.25,0.02c-0.058,0.021-0.102,0.043-0.141,0.063
		c-0.044,0.023-0.067,0.037-0.119,0.068l-0.097,0.063c-0.161,0.112-0.275,0.222-0.391,0.34c-0.222,0.236-0.403,0.461-0.617,0.6
		c-0.19,0.136-0.51,0.195-0.818,0.36c-0.321,0.164-0.562,0.443-0.743,0.695c-0.387,0.54-0.594,1.114-0.964,1.555
		c-0.198,0.238-0.392,0.452-0.608,0.671c-0.213,0.216-0.438,0.421-0.664,0.626c-0.455,0.407-0.933,0.794-1.401,1.195
		c0.178-0.109,0.354-0.222,0.531-0.334c-0.24,0.304-0.381,0.604-0.148,0.708c-0.071,0.146-0.102,0.314-0.085,0.477
		c0.097-0.02,0.23,0.031,0.325,0.011c0.019,0.351-0.31,0.657-0.614,0.855c-0.082,0.024-0.163,0.045-0.243,0.061
		c0.053,0.004,0.102,0.002,0.149-0.002c-0.032,0.019-0.065,0.039-0.095,0.055c0.174-0.04,0.339-0.048,0.508-0.061
		c0.07,0.021,0.138,0.061,0.209,0.144c0.219,0.254,0.024,0.345-0.001,0.687c0.632-0.05,1.692-1.16,2.229-0.385
		c0.435,0.627-0.353,1.579,0.184,2.193c0.183,0.209,0.379,0.126,0.575,0.241c0.285,0.166,0.278,0.177,0.417,0.526
		c0.416-0.24,0.582-0.898,0.884-1.268c0.203,0.568-0.255,1.152-0.396,1.681c-0.181,0.68,0.052,1.375,0.202,2.032
		c0.157,0.683,0.121,1.322,0.131,2.007c0.011,0.76,0.386,0.803,0.778,1.339c0.758-0.519,1.247-1.358,2.19-1.67
		c1.143-0.379,1.186,0.567,1.7,1.185c0.331-0.073,0.33-0.477,0.437-0.744c0.137-0.345,0.228-0.364,0.433-0.552
		c0.543-0.499,1.316-0.568,2.01-0.752c0.778-0.206,0.982,0.349,1.013,1.081c0.042,1.003-0.046,2.029,0.003,3.039
		c0.479-0.633,0.637-1.538,1.051-2.23c0.006-0.01,0.011-0.02,0.017-0.03c0.499-0.217,0.795-1.027,1.269-1.313
		c0.297-0.179,1.027-0.469,1.357-0.367c0.743,0.229,1.305,1.86,2.233,1.34c0.023-0.214-0.003-0.44-0.04-0.653
		c0.519-0.102,1.042,0.52,1.329,0.887c0.38,0.487,0.44,0.577,1.017,0.776c0.366,0.126,0.457,0.207,0.731,0.156
		c-0.836-0.974-1.723-1.947-2.307-2.921c-0.5-1.001,0-2.001-0.75-3.502c0.5,0,1.001-0.5,0.75-1.001
		c-0.75-0.75-1.001-1.751-0.5-2.501c0.41-0.821,1.343-1.342,2.024-2.015c-0.005-0.376,0.107-0.58,0.303-0.915
		c0.366-0.625-0.027-0.512-0.257-1.098c-0.049-0.126-0.165-0.598-0.137-0.705c0.128-0.49,0.609-0.688,0.673-1.244
		c0.027-0.235,0.028-0.63-0.001-1.169c0.048,0.075,0.095,0.15,0.141,0.229l0.183,0.311c0.062,0.102,0.135,0.214,0.205,0.311
		c0.065,0.091,0.135,0.197,0.212,0.298c0.083,0.102,0.151,0.202,0.303,0.306c0.021,0.012,0.037,0.025,0.088,0.042
		c0.02,0.007,0.047,0.013,0.061,0.015l0.022,0.003l0.006,0.001l0.035,0.001l0.006-0.001l0.025-0.003
		c0.017-0.003,0.034-0.005,0.05-0.01c0.03-0.01,0.063-0.021,0.086-0.036c0.085-0.049,0.134-0.104,0.175-0.153
		c0.057,0.141,0.117,0.283,0.182,0.423c0.123,0.26,0.255,0.514,0.452,0.762c0.198,0.245,0.449,0.417,0.655,0.582
		c0.106,0.084,0.201,0.163,0.289,0.252l0.281,0.291c0.181,0.194,0.314,0.374,0.382,0.594c0.017,0.055,0.031,0.112,0.044,0.171
		c0.009,0.056,0.02,0.111,0.026,0.184c0.005,0.052,0.005,0.025,0.003,0.059l-0.008,0.094c-0.007,0.069-0.014,0.141-0.018,0.221
		c-0.001,0.042-0.003,0.082,0.002,0.138c0.001,0.012,0.004,0.031,0.006,0.047l0.006,0.029c0.005,0.019,0.011,0.038,0.019,0.056
		c0.022,0.048,0.024,0.046,0.028,0.054l0.002,0.003c0.049,0.065,0.016,0.021,0.028,0.036l0.008,0.008l0.017,0.017
		c0.044,0.042,0.11,0.096,0.209,0.118c0.099,0.022,0.184-0.002,0.227-0.015c0.018-0.006,0.029-0.009,0.039-0.012
		c0.035,0.013,0.076,0.031,0.143,0.036c0.009,0.014,0.016,0.026,0.016,0.029c0.014,0.029,0.024,0.073,0.03,0.126
		c0.013,0.107,0.003,0.246,0.015,0.407c0.006,0.08,0.018,0.168,0.049,0.259c0.01,0.038,0.044,0.109,0.064,0.144l0.027,0.044
		c0.027,0.042,0.034,0.045,0.052,0.069c0.063,0.076,0.145,0.137,0.21,0.178c0.066,0.04,0.101,0.065,0.113,0.078
		c0.024,0.019,0.046,0.115,0.039,0.242c-0.003,0.122-0.019,0.23-0.055,0.357c-0.016,0.064-0.043,0.138-0.051,0.243
		c-0.009,0.105,0.02,0.218,0.059,0.298c0.039,0.084,0.085,0.148,0.135,0.215l0.067,0.081c0.027,0.034,0.05,0.057,0.076,0.086
		c0.199,0.215,0.411,0.386,0.56,0.582c0.036,0.049,0.069,0.099,0.095,0.151c0.013,0.027,0.021,0.044,0.033,0.074l0.016,0.049
		l0.004,0.012c0,0.002,0.001,0.003,0.001,0.003l0.004,0.018c0.022,0.099,0.005,0.224-0.015,0.362
		c-0.02,0.133-0.039,0.309,0.019,0.463c0.073,0.182,0.187,0.269,0.295,0.366c0.109,0.092,0.223,0.173,0.325,0.257
		c0.1,0.082,0.188,0.186,0.273,0.292c0.148,0.187,0.294,0.39,0.484,0.545c-0.098,0.05-0.196,0.1-0.293,0.153
		c-0.204,0.111-0.401,0.229-0.6,0.363c-0.183,0.126-0.371,0.262-0.554,0.404c-0.362,0.281-0.707,0.579-1.043,0.882
		c-0.675,0.604-1.309,1.238-1.995,1.802c-0.341,0.278-0.706,0.551-1.06,0.825l-1.075,0.813c-0.721,0.535-1.449,1.06-2.199,1.55
		c-0.747,0.486-1.538,0.913-2.361,1.266c-0.175,0.074-0.352,0.143-0.53,0.211c-0.045,0.008-0.092,0.019-0.135,0.024
		c0.022,0.002,0.044,0.002,0.066,0.003c-0.639,0.238-1.296,0.428-1.973,0.533c0.817-0.076,1.619-0.287,2.393-0.565
		c0.279-0.057,0.564-0.178,0.844-0.33c0.038-0.016,0.075-0.034,0.112-0.051c0.034-0.013,0.069-0.026,0.102-0.039
		c0.08-0.032,0.154-0.073,0.229-0.112c0.472-0.221,0.935-0.463,1.386-0.729c0.118-0.07,0.234-0.145,0.351-0.219
		c0.317-0.105,0.64-0.194,0.95-0.339c1.58-0.741,2.966-1.821,4.564-2.539c0.612-0.275,1.261-0.663,1.917-0.813
		c0.377-0.086,0.816-0.106,1.19-0.19c-0.166,0.841,1.105-0.486,1.289-0.653c0.561-0.509,1.381-1.142,1.545-1.924
		c0.176,0.046,0.433-0.009,0.6,0.069c0.261,0.122,0.398,0.44,0.596,0.602c0.414-0.856,1.146-1.619,1.64-2.442
		c0.164-0.273,0.288-0.713,0.498-0.948c0.188-0.211,0.518-0.293,0.748-0.475c0.471-0.373,0.765-0.508,1.089-1.055
		c0.268-0.451,0.477-0.901,0.905-1.039c0.52,0.482,1.089,1.023,1.39,1.67c0.022,0.051,0.043,0.102,0.065,0.153
		c0.073,0.189,0.123,0.386,0.141,0.593c0.067,0.776-0.028,1.068,0.589,1.582c0.193,0.161,0.303,0.318,0.403,0.482
		c0.078,0.207,0.167,0.404,0.282,0.574c0.264,0.387,0.653,0.519,0.944,0.857c0.632,0.736,1.018,1.93,1.347,2.817
		c0.039-0.4,0.029-0.816-0.004-1.239c0.079,0.219,0.148,0.442,0.203,0.672c-0.102-0.363-0.178-0.733-0.243-1.106
		c-0.056-0.488-0.135-0.981-0.21-1.468c-0.038-0.296-0.078-0.592-0.124-0.885c-0.02-0.172-0.039-0.342-0.051-0.509
		c-0.006,0.009-0.015,0.019-0.022,0.029c-0.178-1.152-0.329-2.362-0.37-3.512c-0.028-0.807-0.02-1.945,0.208-2.738
		c0.157-0.547,0.544-1.005,0.698-1.559c0.105-0.377,0.107-0.782,0.279-1.143c0.142-0.298,0.442-0.486,0.587-0.741
		c0.115-0.202,0.157-0.486,0.251-0.724c0.403,0.922,0.792,1.604,0.83,2.775c0.04,1.241,0.15,1.529,0.737,2.512
		c0.321,0.537,0.403,1.171,0.789,1.689c0.083,0.111,0.173,0.209,0.263,0.301c0.05,0.169,0.108,0.338,0.179,0.507
		c0.372,0.882,1.015,1.436,1.573,2.202c-0.419-0.703-0.448-1.568-0.507-2.367c-0.144-1.982,0.254-4.26,1.33-5.956
		c0.408-0.643,0.91-0.693,1.04-1.509c0.078-0.491,0.071-0.9,0.333-1.359c0.167-0.292,0.427-0.366,0.579-0.555
		c0.24-0.298,0.318-0.691,0.387-1.094c0.103,0.131,0.203,0.259,0.284,0.382c0.004-0.598,0.426-1.333,0.99-1.171
		c0.343,0.098,0.541,0.597,0.749,0.855c0.297,0.368,0.685,0.631,0.999,0.964c0.526,0.559,0.833,1.34,1.227,1.974
		c0.364,0.584,0.787,1.095,1.166,1.654c0.162,0.486,0.318,0.969,0.507,1.438c0.063,0.156,0.082,0.289,0.158,0.45
		c0.158,0.34,0.556,0.569,0.691,0.78c0.208,0.326,0.188,0.879,0.24,1.257c0.08,0.582,0.301,1.097,0.413,1.66
		c0.226,1.13,0.328,2.401,0.385,3.568c-0.006,0.011-0.01,0.023-0.016,0.034c0.005,0.001,0.012,0.001,0.017,0.001
		c0.004,0.089,0.009,0.179,0.013,0.266c0.04-0.087,0.075-0.175,0.111-0.263c0.061-0.003,0.123-0.012,0.171-0.026
		c0.044-0.985,0.662-1.974,1.155-2.806c0.371-0.625,1.141-1.187,1.374-1.863c-0.725-0.529,0.056-0.671,0.198-0.999
		c0.167-0.387,0.089-0.515-0.193-0.859c-0.201-0.246-0.573-0.476-0.706-0.743c-0.149-0.299-0.042-0.711-0.132-1.028
		c-0.088-0.311-0.309-0.696-0.437-1.011c-0.239-0.588-0.281-1.215-0.49-1.783c-0.204-0.553-0.497-0.448-0.793-0.756
		c-0.398-0.415-0.707-1.095-1.053-1.572c-0.393-0.542-0.803-0.718-1.269-1.149c-0.538-0.497-0.876-1.111-1.348-1.649
		c-0.323-0.461-0.641-0.924-0.954-1.376c-0.38-0.549-0.529-1.209-0.889-1.773c-0.163-0.255-0.334-0.496-0.494-0.745
		c-0.073-0.246-0.065-0.435-0.113-0.657c1.306,0.533,2.616,1.063,3.7,1.965c0.496,0.413,0.876,0.887,1.338,1.318
		c0.613,0.571,1.388,0.751,1.94,1.434c0.666,0.823,0.714,1.678,1.059,2.614c0.22,0.597,0.763,0.906,1.098,1.427
		c0.346,0.537,0.473,1.112,0.878,1.626c0.712,0.904,1.385,1.841,2.176,2.665c-0.238-0.41-0.44-0.836-0.62-1.272
		c0.304,0.465,0.662,0.896,0.925,1.392c-0.677-1.145-1.381-2.619-1.583-3.931c-0.098-0.641-0.361-1.251-0.652-1.869
		c-0.15-0.751-0.241-1.523-0.531-2.229c-0.395-0.963-1.125-1.827-1.415-2.825c0.817,0.552,1.11,1.47,1.717,2.219
		c0.582,0.718,0.999,1.838,1.718,2.477c0.149,0.275,0.314,0.511,0.505,0.671c-0.04-0.149-0.087-0.296-0.137-0.441
		c-0.2-1.208-0.918-2.25-0.918-3.506c0-0.584-0.142-1.015-0.223-1.537c-0.111-0.712-0.031-1.578-0.055-2.32
		c0.206,0.182,0.802,0.305,1.074,0.37c0.353,0.085,0.98,0.274,1.323,0.268c0.039-0.713-0.024-1.434,0.009-2.15
		c0.018-0.391,0.12-0.69,0.228-1.007c0.007,0.035,0.014,0.068,0.02,0.105c-0.005-0.049-0.006-0.096-0.007-0.144
		c0.044-0.128,0.088-0.26,0.127-0.403c0.046-0.167,0.053-0.335,0.055-0.505c0.169-0.463,0.39-0.906,0.367-1.45
		c-0.028-0.685-0.025-1.288,0.084-1.96c0.051-0.313,0.231-0.681,0.217-0.982c-0.007-0.159-0.069-0.272-0.118-0.396
		c-0.019-0.166-0.038-0.33-0.031-0.489c0.092-0.358,0.443-0.748,0.703-1.078c-0.064,0.061-0.138,0.124-0.216,0.189
		c0.189-0.189,0.376-0.38,0.449-0.637c0.031-0.032,0.063-0.063,0.094-0.096c0.256,0.145,0.497,0.324,0.743,0.52
		c0.148,0.116,0.301,0.237,0.473,0.346c0.087,0.054,0.177,0.106,0.275,0.149c0.026,0.012,0.056,0.025,0.088,0.037
		c0.007,0.005,0.014,0.011,0.02,0.016c0.001-0.004-0.001-0.005-0.001-0.009c0.071,0.027,0.146,0.051,0.198,0.061
		c0.03,0.008,0.125,0.033,0.202,0.026c0.077-0.004,0.142-0.022,0.196-0.04c0.106-0.037,0.186-0.07,0.21-0.068
		c0.01,0.002-0.026-0.006,0.014,0.002c-0.012-0.003,0.003,0.002,0.003,0.002c0.005,0.002,0.013,0.008,0.032,0.033
		c0.019,0.024,0.043,0.068,0.091,0.126c0.026,0.03,0.051,0.058,0.103,0.092l0.042,0.024l0.016,0.007l0.034,0.013l0.022,0.007
		c0.218,0.064,0.393,0.081,0.554,0.127c0.184,0.07,0.154,0.024,0.224,0.234c0.015,0.047,0.031,0.102,0.066,0.169
		c0.041,0.081,0.111,0.138,0.143,0.164c0.017,0.014,0.032,0.025,0.049,0.038c-0.206,0.087-0.368,0.26-0.613,0.289
		c-0.013-0.293,0.033-0.583,0.068-0.871c-0.086,0.093-0.641,0.446-0.693,0.873c-0.03,0.25,0.137,0.446,0.057,0.741
		c-0.07,0.255-0.279,0.45-0.352,0.729c-0.295,1.128,0.077,2.31-0.574,3.35c-0.062-0.079-0.259-0.263-0.266-0.281
		c-0.073,0.444,0.13,0.554,0.229,0.918c0.176,0.647-0.002,0.456-0.092,1.013c-0.146,0.909,0.105,1.382-0.393,2.268
		c0.26-0.108,0.514-0.407,0.801-0.543c0.114,0.944-0.248,1.912-0.131,2.849c0.284-0.741,0.324-1.569,0.565-2.321
		c0.12-0.374,0.306-1.693,0.478-1.863c0.008,0.078-0.007,0.168,0.003,0.246c0.397-0.52,0.613-0.829,1.109-1.224
		c0.292-0.232,0.565-0.453,0.752-0.74c0.456-0.698,0.792-1.755,1.02-2.543c-0.829,0.715-1.253,1.65-2.227,2.155
		c-0.109-0.112-0.549-0.175-0.58-0.224c-0.268-0.423,0.251-1.073,0.414-1.457c0.287-0.674,0.804-1.201,0.705-2.015
		c-0.097,0.157-0.316,0.258-0.425,0.396c-0.133-0.464,0.296-1.02,0.399-1.547c0.046,0.036,0.089,0.071,0.128,0.107
		c0.059,0.055,0.098,0.103,0.127,0.164c0.061,0.126,0.088,0.304,0.112,0.487c0.026,0.185,0.042,0.377,0.118,0.595
		c0.079,0.198,0.204,0.389,0.374,0.528c0.168,0.141,0.361,0.226,0.539,0.297c0.179,0.071,0.349,0.131,0.49,0.215
		c0.143,0.083,0.25,0.195,0.324,0.337l0.118,0.225l0.147-0.196c0.071-0.095,0.196-0.183,0.308-0.309
		c0.075,0.097,0.146,0.196,0.208,0.298c0.093,0.157,0.168,0.324,0.188,0.486l0.04,0.328l0.029-0.036
		c0.026,0.26,0.087,0.587-0.005,0.796c-0.14,0.318-0.471,0.217-0.546,0.584c0.146,0.001,0.297,0.117,0.47,0.096
		c0.098,0.741,0.275,1.824-0.13,2.467c-0.476,0.756-1.368,0.737-2.09,1.084c0.357-0.507,0.706-1.426,0.798-2.06
		c0.065-0.448,0.255-1.182,0.158-1.636c-0.305,0.369-0.725,0.838-1.233,0.705c-0.247,0.584-0.227,1.272-0.361,1.888
		c-0.185,0.847-0.783,1.256-1.122,1.975c-0.384,0.815-0.145,1.802-0.588,2.632c-0.305,0.571-0.773,1.03-0.945,1.683
		c0.717-0.31,1.845-1.712,2.444-2.239c0.342,0.65,0.569,0.625,0.914,0.36c0.503-0.386,0.958-1.166,1.466-1.55
		c0.032-0.024,0.064-0.05,0.098-0.079c-0.136,0.181-0.271,0.362-0.424,0.533c-0.158,0.206-0.289,0.432-0.394,0.667
		c-0.106,0.235-0.187,0.477-0.286,0.708c-0.098,0.231-0.221,0.45-0.385,0.638c-0.159,0.189-0.367,0.34-0.561,0.505
		c-0.392,0.326-0.755,0.692-1.055,1.104c-0.302,0.411-0.551,0.857-0.774,1.313c0.234-0.451,0.492-0.89,0.802-1.292
		c0.308-0.403,0.675-0.756,1.071-1.071c0.197-0.16,0.407-0.304,0.581-0.502c0.174-0.193,0.306-0.421,0.411-0.655
		c0.106-0.234,0.19-0.474,0.297-0.701c0.106-0.227,0.235-0.441,0.391-0.636c0.341-0.371,0.623-0.815,0.973-1.161
		c0.087-0.088,0.182-0.164,0.282-0.225c0.098-0.061,0.205-0.09,0.297-0.067c-0.021,0.056-0.049,0.136-0.073,0.232
		c-0.046,0.177-0.081,0.427,0.008,0.706c0.012,0.034,0.025,0.067,0.041,0.101c0.026,0.061,0.029,0.054,0.054,0.098
		c0.054,0.086,0.105,0.129,0.157,0.172c0.103,0.08,0.166,0.104,0.223,0.143c0.063,0.048,0.113,0.115,0.146,0.164l-0.002,0.638
		c0,0.132-0.129,0.327-0.28,0.491c-0.154,0.168-0.337,0.323-0.524,0.473l-0.289,0.223c-0.098,0.074-0.201,0.152-0.296,0.229
		c-0.187,0.153-0.383,0.299-0.58,0.446c-0.396,0.291-0.795,0.589-1.167,0.92c-0.186,0.166-0.367,0.338-0.529,0.528
		c-0.082,0.093-0.158,0.192-0.228,0.296c-0.073,0.102-0.132,0.209-0.192,0.317c0.073-0.099,0.147-0.199,0.231-0.288
		c0.08-0.091,0.169-0.177,0.257-0.261c0.176-0.169,0.369-0.32,0.565-0.464c0.394-0.288,0.816-0.537,1.231-0.806
		c0.208-0.133,0.417-0.267,0.623-0.413l0.608-0.42c0.204-0.147,0.407-0.301,0.597-0.487c0.086-0.088,0.171-0.181,0.246-0.292
		c0.069,0.107,0.134,0.215,0.207,0.321c0.162,0.228,0.308,0.441,0.518,0.665c0.12,0.124,0.281,0.214,0.409,0.269
		c0.063,0.029,0.117,0.053,0.162,0.079c0.026,0.014,0.05,0.03,0.076,0.048c0.079,0.094,0.154,0.185,0.227,0.274
		c0.015,0.091,0.028,0.204,0.044,0.306c0.018,0.091,0.025,0.135,0.043,0.213c0.023,0.076,0.042,0.16,0.072,0.227
		c0.053,0.142,0.123,0.275,0.199,0.401c0.152,0.253,0.336,0.467,0.514,0.672c0.179,0.205,0.355,0.399,0.507,0.601
		c0.039,0.05,0.075,0.101,0.11,0.152c0.014,0.021,0.043,0.06,0.046,0.067l0.051,0.087l0.051,0.087l0.034,0.077
		c0.023,0.051,0.047,0.1,0.065,0.16c0.169,0.459,0.18,0.988,0.246,1.531c0.033,0.272,0.078,0.552,0.172,0.826
		c0.095,0.275,0.236,0.536,0.444,0.749c0.198,0.207,0.411,0.367,0.576,0.555c0.167,0.184,0.285,0.411,0.374,0.654
		c0.176,0.479,0.222,1.016,0.396,1.516c-0.036-0.025-0.066-0.059-0.082-0.102c0.013,0.056,0.046,0.109,0.097,0.142l0.022,0.014
		l-0.005-0.027c-0.106-0.525-0.107-1.06-0.241-1.6c-0.07-0.266-0.172-0.541-0.353-0.768c-0.061-0.079-0.126-0.152-0.191-0.222
		c-0.43-1.516-0.537-4.296-1.381-5.43c0.207-0.118,0.405-0.238,0.597-0.364l0.13-0.031c0.079-0.027,0.157-0.059,0.235-0.09
		c0.151-0.073,0.297-0.159,0.433-0.261c0.134-0.103,0.261-0.216,0.377-0.339c0.117-0.122,0.227-0.251,0.327-0.386
		c0.403-0.543,0.7-1.148,0.963-1.756c0.067-0.151,0.13-0.309,0.197-0.434c0.07-0.129,0.149-0.243,0.248-0.338
		c0.196-0.187,0.49-0.315,0.79-0.482c0.137-0.074,0.31-0.178,0.446-0.294c0.142-0.117,0.268-0.254,0.376-0.394
		c0.113-0.146,0.21-0.289,0.304-0.427c-0.068,0.319-1.01,1.682-1.599,1.801c-0.045,0.718-0.625,1.364-0.697,2.086
		c0.06-0.048,0.19-0.098,0.257-0.142c0.261,0.421,0.228,0.825,0.221,1.32c0.636-0.622,1.282-1.068,2.119-1.406
		c0.252,0.273,0.435,1.087,0.332,1.456c-0.099,0.353-0.821,1.383-1.159,1.487c-0.205,0.798-1.041,1.593-0.665,2.52
		c0.076-0.073,0.317-0.134,0.414-0.259c0.318,0.546,0.295,1.128,0.483,1.728c1.041-0.293,1.042,2.68,1.187,3.429
		c0.172-0.166,0.312-0.313,0.392-0.543c0.108,0.231,0.185,0.558,0.19,0.865c-0.308,1.363-0.393,2.938-0.831,4.246
		c0.243-0.457,0.8-0.811,0.988-1.313c0.124-0.33,0.176-0.842,0.264-1.205c0.228-0.943,0.237-2.171,0.104-3.147
		c-0.13-0.95-0.705-2.01-1.157-2.804c-0.244-0.429-0.249-0.985-0.487-1.397c-0.185-0.321-0.52-0.4-0.673-0.757
		c0.189-0.18,0.265-0.441,0.432-0.609c0.333-0.335,0.475-0.214,0.805-0.473c0.242-0.191,0.332-0.229,0.345-0.544
		c0.015-0.38-0.303-0.245-0.336-0.489c-0.069-0.52,0.344-0.783,0.406-1.304c0.082-0.688-0.449-1.129-0.431-1.766
		c-0.761,0.127-1.507,0.228-2.274,0.414c0.43-0.47,0.438-1.021,0.869-1.492c0.262-0.286,0.505-0.423,0.575-0.822
		c0.054-0.311-0.122-0.65-0.074-0.881c0.047-0.069,0.094-0.139,0.142-0.204l0.042,0.046c0.138,0.151,0.298,0.255,0.428,0.346
		c0.135,0.095,0.233,0.169,0.323,0.282c0.075,0.096,0.152,0.23,0.213,0.37l0.196,0.453c0.077,0.175,0.156,0.303,0.214,0.443
		c0.06,0.141,0.108,0.286,0.146,0.437c0.076,0.302,0.123,0.63,0.197,0.965c0.032,0.156,0.085,0.356,0.178,0.517
		c0.091,0.168,0.22,0.307,0.347,0.424c0.128,0.118,0.253,0.219,0.363,0.329c0.056,0.055,0.107,0.113,0.152,0.17
		c0.022,0.026,0.043,0.059,0.065,0.09c0.122,0.235,0.244,0.478,0.372,0.724c0.036,0.087,0.07,0.176,0.104,0.264
		c0.115,0.309,0.218,0.624,0.329,0.937c-0.039-0.207-0.078-0.416-0.12-0.623c0.651,1.145,1.544,2.28,3.346,2.943
		c-0.335-0.595-0.42-1.591-0.474-2.706c0.185,0.434,0.444,0.827,0.811,1.109l0.538,0.354c0.074,0.022,0.107,0.119,0.133,0.022
		c-1.1-1.014-1.444-3.22-1.358-4.61c0.033-0.539,0.298-1.069,0.334-1.576c0.028-0.389-0.013-1.019-0.019-1.473
		c-0.011-0.808,0.121-2.296-0.433-2.903c-0.571,0.383-0.564-0.193-0.689-0.589c-0.197-0.626-0.151-0.376-0.561-0.768
		c-0.452-0.432-0.955-0.776-0.833-1.475c0.149-0.852,0.827-1.324,1.391-1.888c0.33-0.33,0.563-1.085,1.112-1.125
		c0.091-0.416,0.257-0.641,0.292-1.071c0.03-0.371-0.253-1.135-0.038-1.475c0.233-0.367,0.54-0.16,0.774-0.49
		c0.087-0.123,0.147-0.75,0.166-0.912c0.1-0.882-0.342-2.65,0.078-3.672l-0.045-0.003c0.245-0.396,0.585-0.698,0.55-1.321
		c0.295,0.279,0.58,0.572,0.854,0.878c0.325,0.364,0.643,0.74,0.944,1.121c0.14,0.283,0.287,0.551,0.456,0.816
		c0.087,0.137,0.178,0.271,0.279,0.403c0.1,0.132,0.208,0.26,0.337,0.381c0.066,0.065,0.121,0.108,0.181,0.162l0.177,0.154
		l0.354,0.309l0.668,0.583c0.344,0.77,0.699,1.532,1.072,2.288c0.19,0.386,0.386,0.77,0.591,1.151
		c0.205,0.381,0.417,0.759,0.66,1.13c0.12,0.184,0.271,0.387,0.476,0.542c0.204,0.161,0.438,0.246,0.626,0.326
		c0.186,0.077,0.372,0.172,0.515,0.269c0.135,0.089,0.23,0.245,0.38,0.434c0.075,0.092,0.165,0.191,0.284,0.273
		c0.118,0.082,0.264,0.139,0.404,0.157l0.013,0.002l0.007,0.001l0.003,0.001l0.023,0.002l0.02,0.001l0.04,0.002
		c0.029,0.001,0.049,0.004,0.085,0.002c0.078-0.006,0.166-0.012,0.23-0.034c0.141-0.034,0.264-0.104,0.37-0.177
		c0.21-0.151,0.355-0.319,0.501-0.448c0.03-0.027,0.059-0.049,0.088-0.072c-0.011,0.105-0.019,0.204-0.027,0.298
		c-0.213,0.562-0.287,1.127-0.769,1.656c-0.696,0.763-0.712,1.008-0.955,1.967c-0.18,0.713-0.69,1.191-0.828,1.938
		c-0.076,0.412-0.144,0.84-0.294,1.239c-0.296,0.473-0.63,0.891-1.06,1.344c-0.151,0.136-0.298,0.276-0.427,0.438
		c-0.004,0.005-0.008,0.011-0.012,0.016c-0.634,0.706-1.303,1.894-2.012,2.214c0.313,1.129-0.751,1.506-1.188,2.295
		c-0.786,1.42-1.162,3.121-2.36,4.444c-0.226-0.331-0.636-0.458-0.897-0.676c-0.938,1.951-2.061,4.048-3.872,5.088
		c-0.906,0.521-0.856,0.133-1.413,1.442c-0.496,1.166-1.262,2.128-1.819,3.236c0.262-0.054,0.493-0.137,0.706-0.241
		c-0.137,0.094-0.277,0.185-0.417,0.274l-0.089,0.057l0.039,0.089c0.119,0.27,0.289,0.484,0.452,0.698
		c0.165,0.213,0.332,0.419,0.478,0.636c0.072,0.109,0.139,0.22,0.195,0.336c0.052,0.116,0.101,0.235,0.117,0.357
		c0.014,0.062,0.011,0.119,0.011,0.177c0.003,0.054-0.025,0.137-0.033,0.184c-0.038,0.102-0.128,0.203-0.22,0.293
		c-0.187,0.183-0.401,0.341-0.61,0.515c-0.104,0.087-0.197,0.188-0.293,0.279l-0.287,0.281l-1.142,1.128l1.193-1.075l0.297-0.27
		c0.101-0.089,0.193-0.183,0.298-0.264c0.208-0.162,0.431-0.314,0.634-0.499c0.1-0.094,0.202-0.191,0.265-0.339
		c0.02-0.083,0.041-0.128,0.046-0.208c0.006-0.076,0.01-0.153-0.003-0.223c-0.014-0.144-0.064-0.278-0.117-0.407
		c-0.057-0.127-0.124-0.248-0.196-0.364c-0.145-0.232-0.308-0.448-0.463-0.663c-0.133-0.186-0.265-0.375-0.357-0.568
		c0.554-0.329,1.093-0.699,1.554-1.175c0.061-0.064,0.117-0.125,0.177-0.199c0.05-0.06,0.112-0.148,0.156-0.221
		c0.094-0.152,0.17-0.31,0.242-0.464c0.12-0.257,0.233-0.51,0.38-0.723l0.001,0.001c0.053,0.026,0.105,0.055,0.161,0.077
		c0.114,0.039,0.237,0.067,0.36,0.058c0.124-0.001,0.24-0.036,0.349-0.076c0.107-0.044,0.205-0.101,0.296-0.163
		c0.359-0.256,0.616-0.585,0.858-0.913c0.239-0.331,0.45-0.676,0.658-1.018l0.311-0.507c0.051-0.082,0.104-0.16,0.157-0.237
		c0.044,0.056,0.092,0.111,0.151,0.165c0.012,0.01,0.025,0.02,0.038,0.029c0.007,0.013,0.016,0.026,0.022,0.039
		c0.005-0.004,0.01-0.008,0.015-0.012c0.061,0.043,0.132,0.083,0.222,0.101c0.126,0.027,0.251,0.004,0.348-0.033
		c0.189-0.078,0.315-0.182,0.441-0.278c0.123-0.099,0.237-0.194,0.353-0.277c0.472-0.348,1.014-0.645,1.501-1.063
		c0.122-0.104,0.238-0.217,0.347-0.339l0.298-0.349c0.198-0.228,0.402-0.458,0.595-0.707c0.096-0.125,0.19-0.255,0.276-0.398
		c0.012-0.021,0.018-0.028,0.035-0.061l0.026-0.051c0.017-0.032,0.04-0.087,0.057-0.128c0.031-0.082,0.057-0.165,0.076-0.243
		c0.036-0.136,0.064-0.257,0.102-0.356c0.067,0.209,0.128,0.428,0.197,0.647c0.115,0.361,0.239,0.734,0.474,1.085
		c0.058,0.088,0.127,0.171,0.202,0.251c0.043,0.04,0.074,0.074,0.128,0.118l0.055,0.043l0.076,0.051
		c0.189,0.118,0.371,0.19,0.545,0.261c0.173,0.07,0.337,0.135,0.476,0.215c0.034,0.02,0.069,0.04,0.098,0.062
		c0.013,0.01,0.035,0.024,0.042,0.03c0.016,0.014,0.04,0.031,0.051,0.042c0.047,0.042,0.113,0.109,0.171,0.173
		c0.121,0.132,0.242,0.281,0.403,0.423c0.081,0.071,0.173,0.141,0.289,0.196l0.044,0.02l0.025,0.009l0.008,0.003l0.017,0.005
		c0.039,0.012,0.096,0.022,0.124,0.024c0.068,0.006,0.127,0.005,0.182,0.001c0.092-0.006,0.191-0.021,0.237-0.024
		c0.016,0.007,0.033,0.015,0.041,0.02c0.026,0.014,0.057,0.032,0.091,0.054c0.13,0.087,0.257,0.202,0.381,0.329
		c0.125,0.126,0.246,0.264,0.379,0.404c0.131,0.135,0.27,0.279,0.439,0.406c0.086,0.064,0.181,0.125,0.297,0.172
		c0.118,0.045,0.272,0.075,0.431,0.031c0.165-0.045,0.268-0.158,0.348-0.258c0.01-0.016,0.019-0.032,0.029-0.049
		c0.027,0.017,0.055,0.031,0.082,0.049c0.093,0.068,0.183,0.14,0.27,0.219c0.174,0.159,0.336,0.338,0.493,0.526
		c0.314,0.377,0.602,0.791,0.943,1.186c0.086,0.099,0.176,0.2,0.29,0.294c0.107,0.09,0.219,0.168,0.328,0.239
		c0.218,0.142,0.43,0.263,0.59,0.409l0.029,0.027c0.002,0.002,0.015,0.014,0.009,0.008l0.016,0.017
		c0.021,0.023,0.045,0.048,0.057,0.064c0.028,0.033,0.062,0.08,0.09,0.126c0.059,0.093,0.11,0.196,0.16,0.307
		c0.1,0.22,0.193,0.467,0.34,0.706l0.092,0.15l0.251-0.103c0.019-0.008,0.034-0.024,0.05-0.033c0.018,0.003,0.027-0.017,0.049-0.01
		c0.019,0.002,0.038-0.004,0.066,0.008c0.025,0.005,0.052,0.013,0.083,0.03c0.119,0.056,0.248,0.158,0.367,0.27
		c0.243,0.23,0.46,0.496,0.718,0.764c0.148,0.145,0.269,0.243,0.405,0.365l0.397,0.35l0.793,0.701l0.795,0.698
		c0.267,0.231,0.532,0.46,0.783,0.7c0.252,0.239,0.49,0.49,0.696,0.761c0.214,0.284,0.431,0.558,0.616,0.847
		c0.092,0.144,0.177,0.292,0.234,0.441c0.03,0.075,0.048,0.146,0.052,0.214c0.004,0.046,0.005,0.09,0,0.112
		c0,0.015-0.002,0.028-0.007,0.038c-0.003,0.012-0.006,0.023-0.01,0.026c-0.004,0.014-0.013,0.014-0.032,0.024
		c-0.023,0.007-0.057,0.012-0.098,0.014c-0.081,0.005-0.18,0.001-0.29,0.032c-0.11,0.027-0.225,0.112-0.277,0.212l-0.012,0.018
		l-0.003,0.005c-0.004,0.008,0.005-0.012-0.01,0.02l-0.003,0.008l-0.011,0.031c-0.007,0.022-0.016,0.039-0.022,0.065
		c-0.008,0.059-0.022,0.133-0.011,0.18c0.022,0.212,0.115,0.383,0.212,0.539c0.1,0.156,0.215,0.298,0.336,0.431
		c0.122,0.133,0.252,0.258,0.389,0.376c0.141,0.121,0.291,0.217,0.447,0.31c0.31,0.182,0.636,0.322,0.938,0.494
		c0.303,0.17,0.577,0.387,0.778,0.67c0.194,0.289,0.389,0.587,0.569,0.888c0.177,0.303,0.344,0.617,0.431,0.96
		c-0.071-0.347-0.225-0.671-0.389-0.984c-0.169-0.313-0.344-0.615-0.535-0.918c-0.199-0.302-0.483-0.543-0.788-0.728
		c-0.305-0.188-0.625-0.339-0.918-0.524c-0.298-0.181-0.544-0.414-0.771-0.679c-0.111-0.131-0.215-0.269-0.3-0.413
		c-0.084-0.143-0.154-0.299-0.162-0.44c-0.007-0.04,0.006-0.055,0.002-0.083c0.003-0.016,0.015-0.04,0.022-0.059l0.01-0.026
		l0.001-0.002l0.007-0.009c0.034-0.055,0.074-0.081,0.135-0.096c0.062-0.015,0.141-0.014,0.236-0.017
		c0.048-0.002,0.102-0.006,0.164-0.023c0.062-0.02,0.139-0.063,0.176-0.128c0.077-0.12,0.071-0.262,0.068-0.336
		c-0.004-0.109-0.03-0.21-0.063-0.3c-0.066-0.182-0.156-0.343-0.25-0.498c-0.189-0.31-0.406-0.594-0.611-0.878
		c-0.215-0.296-0.46-0.563-0.714-0.815c-0.254-0.253-0.518-0.491-0.78-0.727l-0.781-0.715l-0.779-0.717l-0.389-0.359
		c-0.124-0.116-0.273-0.246-0.374-0.351c-0.227-0.244-0.451-0.532-0.72-0.788c-0.138-0.128-0.284-0.256-0.483-0.353
		c-0.047-0.026-0.103-0.046-0.165-0.06c-0.056-0.02-0.126-0.022-0.196-0.02c-0.042-0.003-0.085,0.009-0.128,0.023
		c-0.072-0.148-0.14-0.305-0.214-0.473c-0.053-0.119-0.112-0.242-0.188-0.363c-0.038-0.061-0.077-0.117-0.129-0.181
		c-0.027-0.034-0.047-0.055-0.068-0.078l-0.016-0.017l-0.025-0.024l-0.039-0.037c-0.213-0.195-0.443-0.323-0.644-0.458
		c-0.101-0.067-0.196-0.135-0.281-0.207c-0.08-0.066-0.159-0.153-0.237-0.245c-0.315-0.37-0.601-0.786-0.928-1.185
		c-0.164-0.2-0.338-0.397-0.535-0.579c-0.099-0.091-0.204-0.177-0.315-0.258c-0.113-0.079-0.232-0.152-0.357-0.216l-0.226-0.116
		l-0.11,0.251l-0.045,0.103c-0.016,0.032-0.035,0.056-0.05,0.085c-0.037,0.04-0.067,0.073-0.088,0.073
		c-0.021,0.005-0.058,0.004-0.113-0.017c-0.056-0.024-0.119-0.062-0.182-0.11c-0.127-0.097-0.249-0.221-0.375-0.354
		c-0.122-0.13-0.246-0.272-0.381-0.411c-0.135-0.139-0.282-0.278-0.46-0.399c-0.044-0.029-0.092-0.059-0.149-0.088
		c-0.029-0.016-0.044-0.022-0.067-0.033l-0.016-0.007l-0.022-0.009l-0.036-0.011c-0.028-0.008-0.043-0.009-0.055-0.01
		c-0.013-0.001-0.031-0.003-0.039-0.003c-0.149,0.002-0.218,0.02-0.301,0.024c-0.038,0.002-0.072,0.002-0.096,0
		c-0.019-0.003-0.007-0.001-0.013-0.001l-0.017-0.006l0,0l-0.019-0.009c-0.052-0.025-0.11-0.067-0.168-0.119
		c-0.117-0.105-0.234-0.243-0.365-0.384c-0.068-0.073-0.13-0.14-0.223-0.22l-0.057-0.047c-0.029-0.024-0.047-0.034-0.071-0.051
		c-0.045-0.033-0.092-0.058-0.138-0.086c-0.185-0.103-0.368-0.173-0.54-0.241c-0.17-0.067-0.335-0.134-0.462-0.213l-0.041-0.026
		l-0.055-0.042l-0.077-0.071c-0.052-0.055-0.103-0.114-0.148-0.181c-0.184-0.267-0.306-0.605-0.416-0.95
		c-0.113-0.348-0.203-0.709-0.361-1.081l-0.085-0.201c0.013-0.015,0.028-0.028,0.044-0.04c0.065-0.051,0.142-0.087,0.215-0.134
		c0.073-0.046,0.147-0.099,0.201-0.176c0.027-0.039,0.048-0.083,0.064-0.119c0.016-0.043,0.032-0.089,0.04-0.133
		c0.038-0.177,0.027-0.354,0.028-0.52c-0.001-0.128,0.009-0.252,0.043-0.361c0.17,0.078,0.341,0.108,0.519,0.123
		c0.108,0.006,0.218,0.001,0.333-0.026c0.108-0.028,0.252-0.083,0.327-0.226c0.069-0.145,0.065-0.25,0.075-0.355
		c0.006-0.102,0.008-0.199,0.023-0.28c0.015-0.089,0.032-0.116,0.091-0.203c0.023-0.033,0.049-0.065,0.069-0.083
		c0.02-0.018,0.037-0.027,0.08-0.047c0.424-0.184,0.675-0.566,0.951-0.742c0.015-0.009,0.034-0.022,0.046-0.026
		c0.021-0.01,0.048-0.025,0.061-0.029c0.029-0.012,0.069-0.027,0.108-0.037c0.079-0.022,0.165-0.036,0.258-0.048
		c0.182-0.023,0.405-0.035,0.62-0.101c0.421-0.13,0.778-0.331,1.126-0.552c0.085-0.055,0.173-0.114,0.256-0.176
		c0.09-0.068,0.173-0.138,0.255-0.222c0.167-0.167,0.282-0.387,0.364-0.568l0.062-0.136l0.008-0.017l0.004-0.008l0.002-0.004
		l0.016-0.044l0.002-0.009l0.001-0.005l0.006-0.034c0.007-0.047-0.003-0.102-0.006-0.11c-0.019-0.073-0.039-0.103-0.053-0.129
		l0.11-0.048l0.145-0.062l0.046-0.022c0.012-0.005,0.053-0.031,0.056-0.034l0.062-0.042c0.328-0.221,0.669-0.46,0.97-0.763
		c0.15-0.151,0.286-0.316,0.407-0.487c0.12-0.164,0.239-0.37,0.32-0.556c0.085-0.188,0.157-0.365,0.242-0.515
		c0.092-0.165,0.181-0.281,0.311-0.373c0.132-0.092,0.33-0.189,0.503-0.312c0.17-0.117,0.349-0.279,0.481-0.448
		c0.275-0.345,0.429-0.749,0.544-1.138c0.057-0.196,0.105-0.391,0.153-0.583c0.042-0.196,0.089-0.338,0.196-0.493
		c0.101-0.153,0.235-0.307,0.347-0.488c0.029-0.045,0.054-0.09,0.08-0.14c0.022-0.043,0.045-0.088,0.067-0.141
		c0.043-0.1,0.081-0.208,0.089-0.328c0.009-0.12-0.015-0.229-0.03-0.323c-0.016-0.095-0.027-0.186-0.029-0.281
		c-0.005-0.188,0.025-0.374,0.084-0.559c0.055-0.186,0.133-0.373,0.172-0.575c0.03-0.133,0.031-0.271,0.013-0.405
		c0.007-0.008,0.014-0.015,0.022-0.023c0.069,0.117,0.148,0.223,0.229,0.323c0.162,0.194,0.337,0.367,0.525,0.527
		c0.184,0.156,0.388,0.312,0.609,0.436c0.225,0.124,0.451,0.211,0.661,0.301c0.209,0.09,0.401,0.184,0.567,0.307
		c0.178,0.133,0.348,0.28,0.521,0.435c0.173,0.155,0.346,0.315,0.531,0.47c0.189,0.158,0.377,0.291,0.52,0.439
		c0.152,0.151,0.279,0.317,0.381,0.506c0.103,0.188,0.189,0.397,0.276,0.614c0.087,0.216,0.177,0.438,0.276,0.656
		c0.099,0.217,0.213,0.436,0.336,0.644c0.492,0.828,1.107,1.54,1.512,2.344l0.092,0.183l0.185-0.072
		c0.415-0.161,0.679-0.45,0.947-0.681c0.132-0.118,0.263-0.228,0.395-0.309c0.121-0.079,0.297-0.134,0.326-0.105
		c0.098,0.027,0.242,0.172,0.482,0.257c0.063,0.019,0.131,0.033,0.203,0.031l0.053-0.002c0,0,0.049-0.007,0.032-0.005l0.008-0.002
		l0.017-0.004c0.024-0.006,0.038-0.006,0.079-0.021c0.034-0.012,0.073-0.027,0.102-0.041l0.075-0.042
		c0.046-0.029,0.091-0.059,0.131-0.09c0.16-0.124,0.291-0.254,0.421-0.367c0.123-0.112,0.272-0.214,0.339-0.215l0.011-0.002
		l0.003-0.001c-0.022-0.002-0.001,0-0.004-0.001l0.017,0.002c0.02,0.002,0.052,0.004,0.061,0.007
		c0.006,0.001,0.013,0.003,0.019,0.005c0.006,0.022,0.014,0.075,0.033,0.136c0.018,0.065,0.06,0.143,0.115,0.198
		c0.053,0.058,0.115,0.097,0.17,0.123c0.062,0.033,0.107,0.044,0.147,0.06c0.038,0.016,0.098,0.031,0.146,0.046
		c0.391,0.108,0.764,0.103,1.095,0.165c0.339,0.056,0.605,0.193,0.879,0.418c0.267,0.216,0.511,0.473,0.752,0.74
		c0.241,0.267,0.479,0.544,0.743,0.808c0.265,0.262,0.553,0.501,0.859,0.716c0.609,0.426,1.276,0.765,1.981,1
		c0.353,0.117,0.716,0.205,1.087,0.257c0.187,0.021,0.367,0.048,0.572,0.034c0.19-0.009,0.372-0.031,0.552-0.05
		c0.356-0.037,0.719-0.083,1.033-0.02c0.161,0.033,0.261,0.095,0.369,0.227c0.108,0.125,0.204,0.29,0.368,0.432
		c0.31,0.258,0.695,0.371,1.035,0.474c0.344,0.104,0.671,0.218,0.934,0.432c0.528,0.44,0.882,1.09,1.333,1.668
		c0.223,0.292,0.473,0.571,0.761,0.81c0.283,0.236,0.61,0.432,0.929,0.603c0.642,0.346,1.316,0.624,1.875,1.063
		c0.282,0.218,0.493,0.495,0.694,0.798c0.202,0.298,0.39,0.607,0.581,0.915c0.381,0.616,0.782,1.234,1.303,1.751
		c0.736,0.746,1.589,1.355,2.368,2.043c0.113,0.117,0.227,0.234,0.348,0.344c0.386,0.351,0.784,0.74,0.91,1.252
		c-0.004-0.228,0.007-0.504-0.09-0.713c-0.09-0.193-0.242-0.342-0.305-0.549c-0.07-0.231-0.062-0.482-0.119-0.718
		c-0.206-0.851-1.123-1.888-0.955-2.728c0.161,0.046,0.485-0.025,0.677,0.065c-0.36-0.938-1.106-1.369-1.714-2.105
		c1.064-0.8-1.446-3.285-1.867-4.139c-0.473-0.96-1.714-1.433-1.948-2.568c-0.219-1.063,0.652-1.415,0.598-2.49
		c0.107-0.042,0.244-0.047,0.363-0.047c-0.097-0.111-0.132-0.269-0.251-0.377c1.316-0.447,2.64,1.149,4.033,0.957
		c-0.205-0.575,0.216-1.203-0.437-1.619c-0.512-0.327-1.249,0.151-1.69-0.002c-0.321-0.111-0.81-0.72-1.088-0.952
		c-0.55-0.459-1.093-0.933-1.706-1.276c-0.172,0.856-3.488-1.122-3.89-1.945c-0.116,1.062,0.94,1.774,1.417,2.619
		c0.397,0.703,0.972,1.583,0.991,2.403c-0.16,0.015-0.295,0.114-0.455,0.131c0.041,0.186-0.072,0.461-0.029,0.647
		c-0.114,0.003-0.243,0.028-0.356,0.032c-0.569,1.077,1.33,3.107,1.79,4.135c-0.448,0.053-0.818-0.214-1.119-0.54
		c-0.063,0.064,0.039,0.189,0.051,0.25c-0.114-0.004-0.329-0.012-0.443,0.029c0.914,0.952,1.156,1.934,1.776,3.033
		c0.163,0.289,0.479,0.494,0.642,0.779c0.102,0.179,0.11,0.379,0.164,0.573c0.001,0.002,0.002,0.004,0.002,0.007
		c-0.045-0.042-0.089-0.086-0.137-0.124c-0.58-0.47-1.258-0.761-1.883-1.113c-0.316-0.177-0.612-0.36-0.883-0.594
		c-0.267-0.229-0.499-0.497-0.711-0.784c-0.422-0.559-0.762-1.205-1.33-1.707c-0.632-1.244-2.084-2.043-1.694-3.622
		c0.188-0.761,1.182-1.17,1.122-1.986c-0.049-0.664-0.834-1.08-0.945-1.705c-0.534,0.382-1.753,0.41-1.667-0.509
		c-0.882-0.158-0.939,0.35-1.267-0.499c-0.216-0.561,0.017-1.236-0.273-1.793c-0.316-0.605-0.627-0.463-1.073-1.058
		c-0.15-0.199-0.305-0.536-0.37-0.783c-0.076-0.292-0.319-0.466-0.201-0.339c-0.042,0.05-0.075,0.1-0.103,0.151
		c-0.176-0.423-0.24-0.865,0.317-1.044c0.246,0.359,0.768,0.347,1.096,0.733c0.297,0.35,0.482,0.711,0.871,0.988
		c0.517,0.367,0.884,0.542,1.289,1.059c0.382,0.487,0.709,1.06,1.12,1.518c-0.017-0.743,0.118-1.51,0.142-2.253
		c0.078-0.348,0.169-0.692,0.257-1.046c0.065-0.158,0.114-0.323,0.168-0.484c0.046-0.142,0.091-0.286,0.144-0.424
		c0.232-0.384,0.527-0.433,0.901-0.638c0.118-0.017,0.246-0.059,0.346-0.144c0.064-0.05,0.118-0.112,0.16-0.174
		c0.009-0.012,0.015-0.024,0.023-0.036l0.068,0.076c0.066,0.063,0.137,0.122,0.205,0.184c0.144,0.114,0.295,0.216,0.453,0.306
		c0.315,0.18,0.644,0.316,0.963,0.453c0.16,0.068,0.317,0.136,0.469,0.21c0.152,0.074,0.296,0.155,0.433,0.244l0.194,0.144
		l0.173,0.162l0.064,0.077c0.182,0.39,0.356,0.747,0.341,1.283c0.101-0.071,0.443-0.106,0.548-0.169
		c0.151,0.496,0.429,0.901,0.421,1.434c0.467-0.317,0.413-0.764,1.051-0.77c0.416-0.004,0.664,0.262,0.894,0.557
		c0.428,0.548,0.743,1.955,0.469,2.628c0.303-0.032,0.552-0.298,0.744-0.559c0.379,0.769,0.725-0.389,1.284-0.307
		c0.38,0.055,1.201,1.294,1.553,1.565c0.94,0.722,1.786,1.346,2.545,2.313c-0.067-0.752-0.581-1.46-0.807-2.173
		c-0.144-0.455-0.183-0.858-0.375-1.286c0.02-0.046,0.064-0.116,0.112-0.187c0.014-0.023,0.03-0.045,0.045-0.069
		c0.059,0.042,0.118,0.083,0.18,0.119c0.142,0.085,0.288,0.157,0.437,0.22c0.297,0.126,0.603,0.218,0.911,0.289
		c0.588,0.134,1.188,0.186,1.791,0.157c0.028,0.05,0.054,0.101,0.086,0.147c0.05,0.073,0.096,0.149,0.152,0.217
		c0.104,0.141,0.22,0.272,0.338,0.398c0.238,0.252,0.493,0.485,0.766,0.695c0.137,0.104,0.276,0.206,0.421,0.298
		c0.145,0.093,0.292,0.182,0.448,0.255c0.076,0.04,0.154,0.076,0.236,0.104c0.079,0.034,0.161,0.06,0.245,0.081
		c0.081,0.027,0.167,0.039,0.252,0.052c0.044,0.009,0.09,0.011,0.135,0.01c-0.021,0.016-0.041,0.034-0.062,0.05
		c-0.32,0.182-0.626,0.4-0.806,0.6c-0.061-0.014-0.123-0.027-0.193-0.035l-0.155-0.017l-0.072,0.161
		c-0.174,0.391-0.387,0.763-0.632,1.112c-0.123,0.174-0.254,0.343-0.397,0.501c-0.139,0.161-0.292,0.31-0.447,0.455
		c-0.155,0.145-0.321,0.279-0.49,0.407c-0.173,0.123-0.35,0.24-0.535,0.344c-0.191,0.105-0.363,0.191-0.57,0.278
		c-0.195,0.08-0.436,0.183-0.632,0.309c-0.201,0.124-0.387,0.262-0.565,0.407c-0.177,0.146-0.346,0.298-0.507,0.457
		c-0.326,0.314-0.633,0.643-0.921,0.986c-0.583,0.681-1.114,1.4-1.601,2.148c0.599-0.66,1.201-1.314,1.826-1.939
		c0.156-0.157,0.317-0.307,0.476-0.459c0.161-0.149,0.322-0.3,0.489-0.44c0.164-0.144,0.336-0.279,0.508-0.407
		c0.172-0.13,0.349-0.251,0.53-0.354c0.183-0.107,0.356-0.173,0.575-0.255c0.207-0.074,0.435-0.185,0.634-0.293
		c0.204-0.111,0.4-0.237,0.591-0.37c0.187-0.137,0.37-0.281,0.541-0.438c0.171-0.157,0.333-0.323,0.483-0.499
		c0.153-0.174,0.293-0.359,0.425-0.549c0.132-0.19,0.252-0.388,0.363-0.591c0.079-0.15,0.15-0.305,0.218-0.46
		c0.135,0.03,0.289,0.081,0.434,0.134c0.208,0.08,0.419,0.162,0.63,0.249c0.424,0.17,0.844,0.358,1.299,0.492
		c0.114,0.033,0.229,0.065,0.354,0.083c0.06,0.012,0.125,0.017,0.194,0.016l0.083,0.001c0.027,0.001,0.061-0.002,0.082,0.002
		c0.085,0.006,0.199,0.032,0.302,0.062c0.106,0.031,0.212,0.069,0.318,0.11c0.212,0.082,0.426,0.168,0.645,0.242
		c0.059,0.02,0.119,0.038,0.181,0.055c0.011,0.059-0.001,0.13-0.049,0.22c-0.095,0.002,0.327,0.341,0.237,0.355l0.295,0.239
		c0.595,1-0.176,1.114-0.965,1.374c0.445,1.276-0.471,1.892-0.489,3.154c0.97,0.236,1.683,1.476,2.198,2.521
		c0.357,1.286,0.347,2.741,0.138,3.918c-0.184,1.036-0.434,2.123-0.863,3.082c-0.447,0.997-0.988,1.242-1.956,1.646
		c-0.876,0.365-1.466,0.636-2.349,0.301c-1.078-0.41-1.951-0.973-3.122-1.102c0.286,0.185,0.567,0.453,0.761,0.708
		c-0.737,0.483-1.397,1.063-2.248,1.315c-1.171,0.347-3.074,1.106-4.261,0.786c0.376,0.055,0.719,0.254,1.09,0.342
		c-0.381,0.411-0.511,0.823-1.109,1.02c-0.555,0.183-1.241,0.249-1.822,0.273c-1.766,0.073-2.94-0.284-4.424-1.144
		c-0.873-0.506-2.144-0.867-3.141-0.555c0.622,0.196,1.292,0.659,1.813,1.022c0.563,0.392,0.511,0.632,0.528,1.258
		c-1.352,0.038-2.739,0.425-4.219,0.674c-0.8,0.134-1.597,0.509-1.597,0.509s1.504,1.205,1.836,1.618
		c-0.825,0.011-1.432,0.571-2.325,0.54c-0.556-0.02-2.507-0.002-1.848,1.16c-0.701,0.12-1.296,0.499-1.977,0.658
		c-0.481,0.112-1.049,0.06-1.49,0.335c-0.295,0.184-0.487,0.449-0.638,0.751c-0.232,0.146-0.466,0.287-0.718,0.395
		c0.245-0.096,0.474-0.224,0.7-0.357c-0.028,0.058-0.057,0.115-0.082,0.175c0.762-0.669,1.39-0.872,2.134-0.846
		c0.304,0.045,0.606,0.132,0.905,0.217c0.395,0.114,0.787,0.243,1.199,0.319c-0.232,0.099-0.509,0.087-0.752,0.005
		c-0.2,0.995-0.754,1.376-1.611,1.886c-0.631,0.376-1.077,0.314-0.521,0.868c0.546,0.544,0.493,0.292,0.034,1.017
		c0.597,0.035,1.183,0.313,1.563,0.793c0.417,0.526,0.259,1.283,0.571,1.823c0.123-0.836,0.498-1.784,0.867-2.571
		c0.399-0.371,0.801-0.734,1.2-1.118c1.077-1.036,0.654-0.917,0.535-2.319c-0.4,0.148-0.946,0.15-1.334-0.016h-0.127
		c-0.063-0.171-0.133-0.349-0.156-0.539c0.274-0.312,0.684-0.481,1.101-0.55c0.486-0.093,0.992-0.075,1.503-0.18
		c1.011-0.199,1.914-0.707,2.894-0.808c0.996-0.117,2.008-0.21,3.005-0.435c0.496-0.112,0.995-0.261,1.463-0.465
		c0.006-0.002,0.011-0.005,0.016-0.008c-0.398,0.228-0.899,0.365-1.222,0.528c-0.296,0.15-2.411,0.973-2.36,1.307
		c0.084,0.548,0.756-0.106,0.873-0.142c0.413-0.124,0.954-0.016,1.305,0.253c0.859,0.659-0.107,1.321,0.06,2.226
		c0.493,0.046,1.067-0.213,1.543,0.026c0.328,0.165,0.411,0.407,0.748,0.574c0.421,0.208,0.388-0.096,0.701,0.288
		c0.27,0.332,0.223,0.81,0.328,1.193c0.315-0.661,0.679-1.287,0.617-1.961c0.254-0.998,0.157-1.125-0.511-2.285
		c-0.473-0.82-0.322-1.822-1.485-2.003c-0.021,0.008-0.041,0.018-0.062,0.026c0.046-0.095,0.067-0.203,0.054-0.327
		c0.253-0.138,0.5-0.285,0.743-0.435c0.338-0.209,0.673-0.424,1.011-0.623c0.244-0.129,0.486-0.258,0.726-0.389
		c0.29-0.138,0.586-0.257,0.895-0.34c0.874-0.246,1.841-0.243,2.777-0.559c-0.151,0.09-0.283,0.19-0.374,0.306
		c-0.148,0.191-0.59,1.398-0.542,1.521c0.134,0.34,0.973,0.527,1.263,0.686c0.377,0.206,0.795,0.473,1.094,0.782
		c0.717,0.742,0.73,1.367,0.723,2.277c0.9,0.052,1.849-0.021,2.738,0.075c0.862,0.094,1.412,0.785,2.015,1.353
		c-0.158-0.387-0.155-0.923-0.279-1.368c0.112-0.738-0.474-0.863-0.832-1.419c-0.534-0.832-0.158-0.469-0.353-1.342
		c-0.245-1.099-0.68-1.798-2.018-1.664c-0.098-1.079-1.163-0.882-2.161-1.131c0.049-0.206,0.158-0.43,0.104-0.782
		c0.057-0.035,0.114-0.071,0.17-0.104c0.208-0.124,0.41-0.214,0.636-0.269c0.226-0.057,0.463-0.086,0.708-0.102
		c0.477-0.029,0.981,0.02,1.503,0.005c0.261-0.008,0.529-0.032,0.793-0.094l0.737-0.171c0.567-0.142,1.124-0.305,1.675-0.481
		c0.331,0.192,0.986,0.127,1.354,0.385c-0.396,0.527-0.85,0.816-1.161,1.428c0.847-0.089,1.653-0.476,2.518-0.574
		c0.549-0.062,1.502-0.381,1.918-0.005c0.614,0.555,0.635,1.997,0.458,2.727c-0.197,0.814-0.612,1.766-1.108,2.444
		c0.884-0.707,1.609-1.498,2.581-2.081c-0.038,0.286-0.189,0.534-0.297,0.818c0.725-0.71,1.638-1.411,2.323-2.237
		c-0.127,0.2-0.263,0.392-0.407,0.574c1.281-0.761,2.324-1.874,2.081-3.492c-0.202-1.339-0.194-2.235-1.583-2.418
		c0.336-1.133,1.949-1.342,2.186-2.634c0.186-0.134,0.371-0.264,0.558-0.384c0.2-0.128,0.422-0.255,0.621-0.327
		c0.332-0.128,0.709-0.176,1.105-0.242c-0.87,0.491-1.875,1.214-1.799,2.022c0.393,0,0.656-0.338,0.952-0.569
		c0.214,0.271,0.194,0.726,0.318,1.067c0.247,0.68,0.725,1.21,1.071,1.84c0.01-0.028,0.017-0.057,0.024-0.085
		c0.067,0.115,0.137,0.213,0.211,0.281c0.131-0.432,0.109-0.981,0.266-1.377c0.096-0.242,0.594-0.787,0.622-0.993
		c0.107-0.796-1.164-1.735-0.617-2.265l-0.123-0.123c-0.026,0.02-0.044,0.043-0.068,0.064c0.002-0.023,0.001-0.049,0.003-0.072
		c0.082-0.029,0.164-0.055,0.244-0.09c0.125-0.054,0.247-0.117,0.363-0.185c0.104-0.059,0.229-0.141,0.334-0.215
		c0.57-0.401,1.05-0.878,1.558-1.28c0.45-0.257,0.9-0.513,1.352-0.759c0.275-0.101,0.562-0.198,0.847-0.311
		c0.209-0.083,0.424-0.183,0.629-0.307c-0.186,0.243-0.486,0.361-0.62,0.62c-0.063,0.121,0.062,0.339,0.007,0.464
		c-0.087,0.195-0.252,0.307-0.36,0.491c-0.236,0.402-0.367,0.41-0.1,0.75c0.126,0.16,0.659,0.329,0.833,0.203
		c0.468,0.457,0.46,1.135,0.485,1.746c0.076-0.042,0.102-0.026,0.188-0.104c-0.029,0.959-0.058,2.391-0.511,3.341
		c0.607-1.053,1.612-2.231,1.956-3.453c0.173-0.286,0.299-0.596,0.363-0.961c0.164-0.936-0.29-1.016-0.529-1.628
		c-0.492-1.259,0.168-1.544,0.926-2.106c0.019-0.007,0.038-0.013,0.056-0.02c0.351-0.133,0.677-0.306,0.998-0.481
		c0.32-0.176,0.627-0.365,0.936-0.547c0.241-0.144,0.483-0.28,0.727-0.409c-0.218,0.505,0.467,1.666,0.45,2.238
		c-0.019,0.655-0.308,1.861-0.694,2.385c0.122-0.087,0.277-0.185,0.439-0.291c-0.28,0.443-0.583,0.877-0.68,1.416
		c-0.031,0.17,0.099,0.351,0.072,0.499c-0.044,0.248-0.234,0.435-0.341,0.649c-1.259,0.677,0.076,2.768-0.204,3.901
		c-0.223,0.901-0.88,1.829-1.132,2.785c-0.286,1.085-0.554,2.148-0.949,3.192c0.648-0.768,1.569-0.988,2.341-1.544
		c0.54-0.389,1.004-0.962,1.538-1.36c-0.405,0.02-0.858-0.068-1.265-0.046c0.027-0.424,0.163-0.81,0.342-1.181
		c0.234-0.276,0.461-0.55,0.649-0.844c0.572-0.894,1.214-2.664,1.307-3.759c0.076-0.89-0.716-2.197-0.499-2.925
		c0.159-0.534,1.006-0.954,1.528-0.891c-0.008,0.345,0.074,0.735,0.382,0.913c0.656-0.76,0.411-1.943,0.743-2.853
		c0.565-1.548,1.989-2.578,3.333-3.367c0.478,0.454,0.354,2.642,0.897,2.628c0,0.275,0.031,0.56,0.072,0.832
		c0.245-0.479,0.746-1.725,1.242-1.959c0.432-0.204,0.792,0.205,1.064,0.406c0.745,0.55,1.317,1.266,1.765,2.099
		c0.155,0.884-0.182,2.185,0.337,2.837c0.527-0.373,1.103-0.774,1.503-1.248c-0.653-0.895-0.991-2.32-0.86-3.43
		c0.709,0.218,1.814,0.298,2.544,0.338c-0.052-0.466,0.169-0.921,0.523-1.211c-0.825-1.352-2.473-1.936-3.639-2.886
		c-0.516-0.421-0.894-1.276-1.331-2.004c0.018,0.019,0.037,0.036,0.055,0.055c0.112,0.118,0.219,0.239,0.316,0.364
		c0.047,0.063,0.094,0.126,0.13,0.191c0.05,0.084,0.093,0.142,0.139,0.215c0.22,0.297,0.499,0.506,0.776,0.699
		c0.28,0.192,0.572,0.355,0.864,0.518l0.876,0.473c0.288,0.161,0.574,0.323,0.843,0.507c0.267,0.186,0.515,0.392,0.704,0.647
		c0.092,0.128,0.171,0.279,0.301,0.413c0.065,0.066,0.151,0.125,0.248,0.152c0.096,0.028,0.198,0.024,0.283,0.009
		c0.094-0.013,0.214-0.076,0.179-0.053c0.043,0.032,0.108,0.103,0.157,0.161c0.098,0.119,0.183,0.26,0.263,0.403
		c0.081,0.143,0.158,0.292,0.249,0.435c0.094,0.144,0.195,0.275,0.301,0.406c0.212,0.259,0.44,0.501,0.655,0.752l0.631,0.769
		c0.215,0.246,0.345,0.559,0.569,0.815c0.213,0.286,0.611,0.3,0.808,0.569c0.199,0.261,0.32,0.582,0.544,0.83
		C200.637,58.609,200.528,58.289,200.332,58.016z M180.668,52.657c0.019,0.012,0.04,0.024,0.055,0.038
		c0.007,0.01,0.006,0.003-0.004,0.007c-0.008,0.002-0.018,0.001-0.028,0.001c-0.025-0.029-0.053-0.055-0.079-0.084
		C180.632,52.632,180.649,52.645,180.668,52.657z M38.032,52.745l-0.003,0.025c0.008-0.047,0.016-0.092,0.024-0.138
		c0.023,0.043,0.048,0.092,0.077,0.146c-0.038,0.035-0.078,0.066-0.119,0.098C38.02,52.835,38.028,52.792,38.032,52.745z
		 M48.458,40.182c-0.003,0.006-0.006,0.012-0.009,0.018c0.002-0.008,0.005-0.016,0.007-0.024
		C48.457,40.178,48.458,40.18,48.458,40.182z M48.89,38.835c0.052-0.104,0.105-0.173,0.193-0.222
		c0.075-0.044,0.17-0.081,0.264-0.119c-0.072,0.072-0.144,0.156-0.218,0.263c-0.041,0.059-0.085,0.141-0.132,0.235
		c-0.108,0.101-0.212,0.209-0.3,0.325c0.016-0.053,0.034-0.105,0.055-0.161C48.793,39.051,48.841,38.934,48.89,38.835z
		 M36.301,39.793c0.133,0.152,0.257,0.326,0.376,0.504c0.119,0.179,0.233,0.364,0.351,0.553c0.119,0.189,0.26,0.394,0.426,0.561
		c0.16,0.176,0.344,0.323,0.532,0.46c0.191,0.132,0.389,0.25,0.592,0.354c0.406,0.208,0.825,0.371,1.243,0.521
		c0.418,0.149,0.841,0.28,1.248,0.43l1.234,0.47c0.781,0.304,1.55,0.663,2.194,1.213c-0.03,0.047-0.061,0.093-0.087,0.146
		c-0.128,0.308-0.112,0.619-0.181,0.888c-0.053,0.26-0.272,0.443-0.522,0.56c-0.255,0.121-0.543,0.208-0.824,0.342
		c-0.283,0.14-0.531,0.299-0.784,0.474c-0.249,0.175-0.485,0.367-0.712,0.565c-0.22,0.203-0.441,0.363-0.693,0.523l-0.757,0.478
		c-0.253,0.167-0.507,0.345-0.733,0.583c-0.053,0.058-0.115,0.132-0.154,0.19c-0.048,0.07-0.094,0.146-0.131,0.214
		c-0.076,0.141-0.138,0.283-0.198,0.422c-0.118,0.277-0.223,0.549-0.364,0.781c-0.124,0.216-0.359,0.446-0.511,0.746
		c-0.161,0.307-0.21,0.63-0.263,0.922l-0.002,0.013l0,0.012c-0.002,0.049-0.044,0.149-0.098,0.226
		c-0.027,0.04-0.059,0.077-0.089,0.106c-0.015,0.014-0.029,0.025-0.038,0.031c0,0-0.001,0.001-0.002,0.001
		c0,0,0.017-0.007,0.036-0.005l-0.209,0.145c-0.104,0.265-0.214,0.543-0.275,0.847c-0.059,0.293-0.076,0.577-0.093,0.854
		l-0.066,0.239l-0.089,0.25c-0.067,0.165-0.143,0.326-0.227,0.485c-0.087,0.158-0.179,0.314-0.278,0.467
		c-0.101,0.152-0.205,0.302-0.314,0.45c-0.137,0.186-0.282,0.369-0.429,0.55c0.003-0.011,0.009-0.022,0.011-0.033
		c0.184-0.82,0.257-1.713,0.4-2.553c0.132-0.774-0.243-1.332-0.288-2.085c-0.03-0.496,0.558-1.654,1.053-0.869
		c-0.011-0.343,0.197-0.615,0.342-0.909c0.177-0.359,0.256-0.768,0.454-1.113c0.21-0.367,0.494-0.422,0.389-0.838
		c-0.077-0.306-0.573-0.661-0.357-0.944c0.222-0.291,1.047-0.157,1.372-0.269c-0.187-0.474-0.559-0.848-0.731-1.355
		c-0.149-0.437-0.705-1.075-0.494-1.549c0.195,0.069,0.408,0.103,0.586,0.18c-0.059-0.229-0.243-0.346-0.333-0.525
		c-0.094-0.187-0.125-0.391-0.221-0.577c-0.338-0.654-0.504-1.168-0.556-1.917c0.121,0.075,0.251,0.198,0.359,0.293
		c0.162-0.346,0.346-0.528,0.045-0.811c-0.164-0.155-0.451-0.261-0.625-0.429c-0.196-0.189-0.433-0.469-0.562-0.7
		c-0.1-0.178-0.093-0.571-0.261-0.68c0.029-0.038,0.055-0.076,0.079-0.114C36.147,39.629,36.229,39.707,36.301,39.793z
		 M35.088,50.449c0.006,0.452-0.284,0.629-0.708,0.642c0.009,0.273-0.166,0.405-0.294,0.611c-0.306,0.491-0.181,0.722,0.105,1.187
		c0.159,0.258,0.33,0.587,0.448,0.841c0.173,0.369-0.005,0.749,0.063,1.136c0.055,0.313,0.164,0.118,0.303,0.371
		c0.173,0.313-0.261,0.75-0.221,1.091c0.046,0.391,0.287,0.655,0.301,1.074c0.003,0.086,0.001,0.173,0.001,0.26
		c-0.057-0.297-0.098-0.548-0.35-0.795c-0.85-0.836-0.625-1.655-0.897-2.473c-0.211-0.633-0.854-0.951-1.193-1.561
		c-0.299-0.537-0.975-1.296-1.084-1.886c-0.153-0.83,0.888-0.509,0.885-0.969c-0.001-0.176-0.482-0.558-0.546-0.799
		c-0.082-0.309-0.04-0.521,0.112-0.771c0.484-0.794,1.625-1.775,2.576-1.31c0.43,0.21,0.575,0.691,0.967,0.886
		c-0.023,0.271-0.062,0.536-0.119,0.767c-0.085,0.344-0.23,0.615-0.365,0.943C34.924,50.058,35.084,50.094,35.088,50.449z
		 M36.071,43.491c-0.004-0.281-0.014-0.564-0.035-0.851C36.101,42.923,36.21,43.246,36.071,43.491z M35.998,40.272
		c-0.018-0.102-0.039-0.209-0.057-0.312C35.987,40.076,36.029,40.158,35.998,40.272z M30.072,52.04
		c-0.148-0.105-0.291-0.21-0.405-0.323C29.801,51.824,29.936,51.931,30.072,52.04z M33.792,55.942
		c0.476,0.584,0.795,1.267,1.269,1.844c-0.027,0.032-0.053,0.064-0.08,0.097c-0.02-0.032-0.04-0.064-0.058-0.096l-0.182-0.293
		l-0.372-0.581l-0.758-1.154l-0.151-0.231C33.57,55.667,33.681,55.806,33.792,55.942z M25.353,48.093
		c-0.006-0.001-0.016-0.001-0.02-0.002c-0.013-0.002-0.029-0.008-0.029-0.008c-0.026-0.012-0.031-0.015-0.038-0.019
		c0.007-0.005,0.012-0.012,0.019-0.018C25.308,48.062,25.33,48.079,25.353,48.093z M20.408,46.918
		c0.033,0.117,0.074,0.231,0.122,0.342c0.046,0.108,0.098,0.212,0.154,0.316c-0.083-0.103-0.156-0.214-0.217-0.343
		c-0.058-0.123-0.086-0.386-0.142-0.494c0.014-0.007,0.029-0.01,0.043-0.017C20.375,46.789,20.394,46.856,20.408,46.918z
		 M5.889,51.616c0.101-0.192,0.125-0.431,0.229-0.621c0.11-0.2,0.379-0.361,0.425-0.57c0.029-0.132-0.096-0.402-0.071-0.583
		c0.01-0.074,0.033-0.146,0.06-0.218l0.032-0.021l0.081-0.047c0.021-0.012,0.039-0.02,0.053-0.027
		c0.024,0.016,0.062,0.041,0.093,0.066l0.11,0.074l0.107,0.063c0.146,0.081,0.295,0.15,0.449,0.21
		c0.077,0.03,0.157,0.055,0.238,0.079l0.123,0.031c0.047,0.01,0.093,0.017,0.14,0.024c0.187,0.021,0.367,0.002,0.533-0.033
		c0.331-0.071,0.617-0.19,0.895-0.267c0.065-0.019,0.131-0.035,0.21-0.05c0.06-0.008,0.134-0.023,0.204-0.027
		c0.142-0.014,0.292-0.015,0.444-0.016c0.304,0,0.626,0.005,0.955-0.072c0.164-0.039,0.326-0.109,0.468-0.208
		c0.113-0.076,0.203-0.178,0.279-0.285c0.23,0.144,0.463,0.286,0.71,0.406c0.258,0.127,0.531,0.231,0.812,0.282
		c-0.16,0.149-0.317,0.298-0.474,0.446c-0.051,0.049-0.103,0.096-0.154,0.144c0.011-0.013,0.022-0.024,0.033-0.037
		c-0.354,0.284-0.749,0.08-1.041,0.679c-1.854-2.181-3.602,1.815-4.96,0.128c-0.291,0.365-0.654,0.641-0.79,1.23
		c-0.103,0.014-0.163-0.028-0.18-0.126c-0.401,0.678-0.383,1.084-0.288,1.419c-0.165-0.276-0.361-0.559-0.381-0.759
		C5.185,52.454,5.688,51.997,5.889,51.616z M21.996,49.385c0.013-0.045,0.02-0.091,0.02-0.138c0.004,0.006,0.008,0.011,0.012,0.016
		c0.01,0.014,0.018,0.03,0.028,0.045C22.036,49.335,22.016,49.361,21.996,49.385z M26.514,54.742
		c-0.008-0.004-0.002-0.002,0.004,0.001C26.517,54.742,26.516,54.743,26.514,54.742z M29.239,60.212
		c-0.076-0.117-0.156-0.234-0.26-0.339c-0.101-0.102-0.205-0.191-0.298-0.287c-0.09-0.091-0.181-0.205-0.201-0.286
		c-0.03-0.112-0.005-0.22,0.022-0.356c0.027-0.132,0.067-0.283,0.044-0.458l-0.005-0.033c-0.002-0.008,0-0.005-0.005-0.022
		l-0.003-0.013l-0.013-0.05c-0.01-0.035-0.026-0.082-0.042-0.119c-0.031-0.074-0.069-0.143-0.11-0.208
		c-0.168-0.258-0.382-0.447-0.547-0.646c-0.019-0.024-0.043-0.051-0.057-0.072l-0.06-0.082c-0.03-0.046-0.062-0.096-0.078-0.139
		c-0.018-0.045-0.022-0.071-0.017-0.104c0.004-0.033,0.023-0.091,0.045-0.159c0.047-0.136,0.083-0.301,0.092-0.455
		c0.004-0.142,0.024-0.347-0.129-0.549c-0.077-0.093-0.162-0.14-0.212-0.175c-0.05-0.034-0.078-0.059-0.103-0.09
		c-0.002-0.004-0.019-0.027-0.01-0.014l-0.026-0.045c-0.01-0.027-0.008-0.018-0.016-0.047c-0.013-0.04-0.019-0.09-0.022-0.147
		c-0.007-0.114,0.009-0.252-0.004-0.42c-0.007-0.084-0.021-0.178-0.062-0.276c-0.057-0.116-0.073-0.138-0.145-0.237
		c-0.006-0.009-0.03-0.035-0.06-0.059c-0.034-0.022-0.062-0.042-0.123-0.052c-0.032-0.005-0.071-0.003-0.096,0.003
		c-0.006,0.001-0.012,0.004-0.018,0.006L26.7,54.278c-0.013-0.004-0.005-0.003-0.035-0.012c-0.068-0.019-0.114-0.017-0.152-0.014
		c-0.02,0.002-0.032,0.006-0.047,0.009c0.004-0.049,0.008-0.099,0.014-0.154l0.011-0.112c0.001-0.023,0.004-0.041,0.002-0.082
		l-0.006-0.065c-0.005-0.064-0.017-0.145-0.031-0.225c-0.015-0.077-0.033-0.153-0.057-0.23c-0.09-0.314-0.3-0.586-0.498-0.789
		l-0.297-0.301c-0.107-0.106-0.225-0.202-0.337-0.288c-0.226-0.175-0.437-0.319-0.587-0.505c-0.151-0.18-0.288-0.412-0.406-0.648
		c-0.12-0.238-0.226-0.486-0.332-0.74l-0.112-0.27l-0.222,0.17c-0.096,0.073-0.133,0.137-0.172,0.192l-0.094,0.144
		c-0.015,0.023-0.029,0.039-0.04,0.051c-0.051-0.037-0.121-0.109-0.18-0.179c-0.073-0.086-0.14-0.177-0.219-0.277
		c-0.076-0.094-0.137-0.179-0.205-0.278l-0.2-0.296c-0.068-0.1-0.139-0.201-0.216-0.3c-0.073-0.096-0.166-0.201-0.242-0.278
		l-0.242-0.265c-0.078-0.088-0.169-0.178-0.24-0.261c-0.08-0.099-0.179-0.192-0.279-0.264c-0.1-0.076-0.188-0.131-0.271-0.218
		c-0.073-0.077-0.147-0.175-0.211-0.271c-0.066-0.098-0.129-0.198-0.185-0.302c-0.056-0.104-0.114-0.208-0.159-0.318
		c-0.022-0.06-0.049-0.124-0.063-0.189c0.001-0.001,0.002-0.001,0.003-0.002l0.337,0.194c0.159,0.09,0.33,0.186,0.54,0.248
		c0.105,0.029,0.219,0.049,0.335,0.048c0.115-0.001,0.231-0.018,0.334-0.051c0.106-0.03,0.204-0.072,0.292-0.12
		c0.04-0.02,0.077-0.042,0.114-0.064c0.412,0.254,0.842,0.416,1.208,0.625c0.108,0.063,0.189,0.111,0.296,0.19
		c0.099,0.074,0.228,0.158,0.349,0.219c0.124,0.064,0.243,0.114,0.35,0.165c0.124,0.059,0.161,0.078,0.258,0.167
		c0.047,0.041,0.105,0.093,0.179,0.14c0.031,0.021,0.095,0.053,0.114,0.061c0.058,0.025,0.104,0.036,0.152,0.045
		c0.19,0.022,0.287,0.007,0.319,0.028c0.068,0.03,0.176,0.101,0.265,0.17c0.093,0.071,0.185,0.148,0.272,0.228
		c0.184,0.169,0.309,0.307,0.398,0.521c0.089,0.205,0.209,0.518,0.459,0.716c0.223,0.186,0.477,0.302,0.712,0.402
		c0.236,0.101,0.46,0.188,0.656,0.307c0.191,0.114,0.36,0.273,0.523,0.454c0.163,0.18,0.326,0.382,0.52,0.568
		c0.206,0.198,0.424,0.328,0.632,0.47l0.631,0.415c0.214,0.14,0.4,0.276,0.622,0.432c0.182,0.117,0.371,0.205,0.561,0.286
		c0.058,0.059,0.116,0.117,0.172,0.178c0.026,0.041,0.052,0.081,0.079,0.124l0.194,0.289l0.4,0.565l0.812,1.117l0.815,1.114
		l0.408,0.556l0.202,0.28c0.021,0.032,0.044,0.064,0.067,0.096c-0.125,0.148-0.25,0.298-0.375,0.45
		c-0.059-0.048-0.118-0.093-0.177-0.136c-0.133-0.096-0.264-0.182-0.408-0.265l-0.165-0.096l-0.14,0.131
		c-0.326,0.305-0.658,0.609-0.992,0.906c-0.237,0.208-0.476,0.421-0.717,0.615c-0.366,0.241-0.748,0.464-1.15,0.674
		c-0.24,0.125-0.473,0.262-0.703,0.402c-0.161,0.077-0.322,0.154-0.483,0.235C29.492,60.633,29.376,60.418,29.239,60.212z
		 M37.548,53.753c-0.049,0.136-0.115,0.253-0.177,0.37c0.044-0.21,0.117-0.42,0.198-0.635c0.011-0.006,0.021-0.012,0.032-0.019
		c0.003-0.002,0.004-0.003,0.006-0.005C37.595,53.554,37.586,53.648,37.548,53.753z M72.856,30.296
		c0.003,0.001,0.008,0.003,0.012,0.005c0.003,0.002,0.002,0.001,0.003,0.002L72.856,30.296z M88.976,55.251
		c-0.008-0.047-0.001-0.098,0.001-0.147C88.977,55.153,88.98,55.203,88.976,55.251z M78.065,41.244
		c-0.021-0.046-0.044-0.087-0.067-0.122c0.136,0.095,0.26,0.247,0.378,0.384c0.016,0.018,0.032,0.038,0.047,0.057
		c-0.114-0.094-0.231-0.194-0.349-0.298C78.071,41.258,78.068,41.25,78.065,41.244z M80.531,41.635
		c0.102-0.128,0.203-0.254,0.311-0.37l0.049-0.054C80.769,41.368,80.649,41.508,80.531,41.635z M91.263,27.557
		c-0.003,0.005,0.012-0.024,0.018-0.035c0.015-0.029,0.031-0.063,0.044-0.078c0.023-0.038,0.058-0.085,0.095-0.126
		c0,0,0.001-0.001,0.001-0.001c-0.064,0.093-0.123,0.19-0.179,0.29c0.001-0.003,0.002-0.006,0.003-0.009L91.263,27.557z
		 M90.509,29.53c-0.021,0.065-0.041,0.13-0.063,0.196C90.463,29.655,90.484,29.59,90.509,29.53z M77.465,34.961
		c0.052-0.065,0.111-0.111,0.174-0.132c0.064-0.02,0.139-0.014,0.219,0.013c0.161,0.054,0.322,0.17,0.473,0.295
		c0.153,0.125,0.299,0.264,0.453,0.4c0.028,0.025,0.057,0.049,0.087,0.074c-0.3,0.038-0.554,0.263-0.84,0.354
		c0.022-0.528-0.497-0.459-0.613-0.917c-0.007-0.001-0.013-0.002-0.02-0.003L77.465,34.961z M78.265,40.965
		c0.628-0.708,0.497-1.468,0.973-2.241c0.352-0.572,0.376-1.375,0.846-1.856c-0.44,0.008-1.21,1.07-1.463,0.298
		c-0.105-0.32,0.248-1.126,0.265-1.542c0.046,0.038,0.094,0.076,0.145,0.112c0.047,0.031,0.093,0.062,0.151,0.086
		c0.043,0.017,0.096,0.036,0.158,0.032c0.591,0.502,1.046,1.162,1.439,1.842c0.2,0.347,0.371,0.721,0.623,1.043
		c0.126,0.164,0.28,0.296,0.411,0.448c0.091,0.102,0.164,0.223,0.203,0.355c-0.097,0.15-0.206,0.288-0.337,0.43l-1.011,1.141
		c-0.174,0.194-0.321,0.404-0.478,0.598c-0.155,0.192-0.322,0.384-0.525,0.417c-0.1,0.019-0.211-0.003-0.319-0.048
		c-0.109-0.041-0.209-0.101-0.319-0.171c-0.192-0.121-0.348-0.329-0.515-0.519c-0.084-0.097-0.169-0.194-0.266-0.285
		c-0.048-0.046-0.1-0.089-0.158-0.129c-0.026-0.02-0.064-0.039-0.097-0.057c-0.037-0.015-0.05-0.024-0.101-0.036c0,0,0,0,0,0
		C78.032,40.841,78.162,40.857,78.265,40.965z M83.371,45.469c-0.115,0.111-0.242,0.209-0.377,0.296l-0.097,0.053
		c0.22-0.156,0.431-0.324,0.633-0.514C83.479,45.36,83.426,45.415,83.371,45.469z M106.956,33.694
		c0.036-0.025,0.073-0.049,0.109-0.068c0.108,0.212,0.241,0.402,0.376,0.578c0.183,0.238,0.372,0.455,0.527,0.677l0.127,0.181
		c0.049,0.067,0.098,0.129,0.151,0.189c0.105,0.121,0.224,0.234,0.347,0.331l0.349,0.266c0.054,0.042,0.106,0.085,0.156,0.129
		c-0.008-0.007,0.02,0.02,0.028,0.029l0.02,0.025l0.055,0.072c0.079,0.109,0.158,0.231,0.242,0.352
		c0.085,0.123,0.168,0.246,0.281,0.374c0.062,0.063,0.111,0.132,0.259,0.202l0.03,0.012l0.015,0.005l0.008,0.003
		c-0.033-0.005,0.049,0.009,0.041,0.007l0.002,0l0.027,0.002l0.032,0.003c-0.407,0.538-0.572,1.066-0.935,1.667
		c-0.954,1.577-3.343,3.401-4.963,4.247c0.923-1.136,0.944-2.558,1.252-4.015c0.346-0.511,0.668-1.28,0.882-1.853
		c0.397,0.551,1.128,0.919,1.082,1.715c0.065-0.514,0.147-0.871,0.123-1.349c-0.022-0.433,0.062-0.969,0.002-1.45
		c-0.094-0.754-0.551-1.624-0.563-2.312c-0.026,0.051-0.047,0.102-0.069,0.152C106.952,33.809,106.956,33.752,106.956,33.694z
		 M100.248,50.528l-0.002-0.005c0.012-0.011,0.024-0.022,0.036-0.034C100.27,50.5,100.259,50.514,100.248,50.528z M100.645,50.153
		c-0.039,0.067-0.097,0.124-0.162,0.176c-0.064,0.053-0.137,0.098-0.199,0.159c0.127-0.118,0.271-0.26,0.41-0.453
		c-0.001,0.003-0.001,0.006-0.002,0.009C100.677,50.086,100.664,50.12,100.645,50.153z M107.882,43.219
		c-0.074,0.102-0.155,0.198-0.238,0.291c0.146-0.196,0.282-0.389,0.411-0.56C108.004,43.04,107.949,43.128,107.882,43.219z
		 M145.087,57.779c0.027,0.026,0.053,0.054,0.079,0.081c-0.44-0.387-0.892-0.761-1.325-1.153
		C144.263,57.06,144.697,57.399,145.087,57.779z M135.887,34.327c-0.011,0.01-0.026,0.014-0.038,0.023
		c-0.041-0.042-0.083-0.083-0.127-0.124C135.777,34.26,135.832,34.292,135.887,34.327z M123.056,42.011
		c-0.082-0.06-0.152-0.073-0.226-0.089c-0.035-0.006-0.048-0.006-0.074-0.009l-0.017-0.002l-0.021-0.001l-0.014,0l-0.057,0.003
		c-0.15,0.016-0.26,0.077-0.35,0.134c-0.089,0.059-0.168,0.122-0.239,0.185c-0.144,0.125-0.272,0.25-0.399,0.347
		c-0.032,0.025-0.063,0.045-0.093,0.064l-0.044,0.024c-0.012,0.006-0.016,0.006-0.023,0.011c0.001,0.005-0.032,0.01-0.052,0.014
		l-0.013,0.003l-0.011,0c-0.019,0.001-0.04-0.004-0.064-0.01c-0.109-0.029-0.229-0.158-0.473-0.256
		c-0.033-0.011-0.065-0.02-0.107-0.026c-0.047-0.006-0.103-0.006-0.115-0.004c-0.083,0.007-0.12,0.024-0.182,0.037
		c-0.107,0.036-0.207,0.082-0.295,0.136c-0.178,0.108-0.324,0.234-0.463,0.357c-0.215,0.191-0.42,0.383-0.629,0.505
		c-0.429-0.785-0.989-1.456-1.412-2.179c-0.114-0.195-0.216-0.392-0.311-0.6c-0.094-0.208-0.179-0.421-0.266-0.639
		c-0.087-0.217-0.177-0.443-0.298-0.666c-0.088-0.164-0.198-0.321-0.321-0.464c0.093,0.017,0.188,0.024,0.282,0.014
		c0.24-0.021,0.464-0.109,0.68-0.203c0.431-0.196,0.827-0.454,1.212-0.722c0.386-0.268,0.754-0.558,1.119-0.847l0.548-0.427
		c0.184-0.143,0.362-0.255,0.566-0.376c0.396-0.239,0.802-0.47,1.2-0.727c0.198-0.129,0.396-0.262,0.586-0.409
		c0.182-0.14,0.353-0.285,0.524-0.448c-0.211,0.473-0.38,0.98-0.237,1.308c0.639-1.156,1.707-1.643,2.501-2.68
		c0.031,0.982-0.436,2.025-0.339,2.991c0.304-0.147,0.451-0.524,0.742-0.685c0.11-0.061,0.424-0.106,0.486-0.145
		c0.205-0.128,0.592-0.381,0.853-0.673c0.322,0.802-0.434,2.435-0.904,3.061c-0.392-0.028-0.514-0.419-0.612-0.776
		c-0.282,0.41,0.004,1.003-0.047,1.477c-0.043,0.398-0.2,0.751-0.354,1.135c-0.199,0.497-0.37,0.774-0.236,1.299
		c0.088,0.347,0.353,0.483,0.195,0.845c-0.392-0.214-0.823-0.136-1.237-0.373c-0.355-0.203-0.466-0.497-0.956-0.383
		c0.177,0.365,0.066,0.67,0.05,0.922C123.096,42.043,123.077,42.025,123.056,42.011z M163.08,45.336
		c0.25-0.007,0.493-0.013,0.737-0.012c0.248,0.001,0.48,0.009,0.695,0.047c0.212,0.04,0.389,0.122,0.56,0.261
		c0.168,0.132,0.342,0.319,0.483,0.487c0.006,0.009,0.013,0.021,0.02,0.034c-0.005,0.005-0.008,0.008-0.013,0.013
		c-0.029,0.336,0.245,0.619,0.172,0.928c-0.037,0.157-0.23,0.226-0.258,0.422c-0.017,0.114,0.05,0.337,0.089,0.443
		c0.112,0.303,0.343,0.561,0.461,0.864c0.146,0.372,0.094,0.86,0.286,1.179c0.065-0.839,0.48-1.851,0.31-2.7
		c0.245,0.05,0.467,0.086,0.613,0.168c0.159,0.1,0.311,0.259,0.448,0.447c0.139,0.187,0.283,0.418,0.507,0.616
		c0.23,0.196,0.504,0.316,0.793,0.367c0.109,0.02,0.273,0.038,0.407,0.037c0.136,0.002,0.268-0.007,0.397-0.018
		c0.512-0.046,0.988-0.154,1.415-0.073c0.106,0.02,0.208,0.048,0.304,0.091l0.014,0.006c-0.003,0.003-0.008,0.004-0.01,0.008
		c0.188,0.168,0.356,0.395,0.417,0.635c-0.533,0.325-1.286,0.515-1.129,1.245c0.095,0.441,0.321,0.903,0.387,1.325
		c0.119,0.761-0.586,0.674-1.143,0.717c-0.818,0.063-1.833,0.716-2.609,0.464c-0.3-0.097-0.479-0.24-0.818-0.254
		c-0.24-0.01-0.33-0.009-0.5-0.073c-0.535-0.202-0.898-0.709-1.314-1.052c0.098,0.337,0.223,0.893-0.122,1.125
		c-0.131-0.135-0.307-0.231-0.493-0.276c-0.447-0.465-0.861-0.947-1.215-1.457c-0.42-0.605-0.771-1.245-1.139-1.879
		c0.024-0.05,0.053-0.112,0.083-0.202c0.14-0.425,0.23-0.892,0.234-1.34c0.005-0.517,0.016-0.933,0.129-1.416
		c0.084-0.363,0.172-0.647,0.087-1.016c0.062,0.021,0.183,0.01,0.244,0.032c-0.017-0.077-0.045-0.145-0.08-0.209
		C162.725,45.348,162.91,45.336,163.08,45.336z M161.318,44.382c-0.079-0.068-0.148-0.142-0.2-0.227
		c0.002,0.002,0.005,0.004,0.008,0.006C161.188,44.229,161.252,44.305,161.318,44.382z M158.348,46.038
		c0.072,0.005,0.145,0.005,0.216-0.008c-0.202,0.006-0.385-0.071-0.564-0.153c-0.062-0.062-0.158-0.101-0.258-0.129
		c-0.143-0.075-0.285-0.152-0.431-0.225c-0.103-0.052-0.208-0.103-0.318-0.149c-0.112-0.045-0.219-0.087-0.361-0.111
		c-0.017-0.004-0.031-0.005-0.044-0.006c-0.058-0.313,0.041-0.578,0.399-0.545c0.049-0.361-0.226-0.601-0.306-0.895
		c0.274-0.029,0.496-0.191,0.737-0.3c0.359,0.016,0.711,0.004,1.064-0.004c0.494-0.01,0.986-0.034,1.447,0.048
		c0.423,0.064,0.801,0.248,1.106,0.524c-0.024,0.355,0.632,0.815,0.733,1.206c0.12,0.463,0.023,0.806-0.421,0.998
		c0.236,0.759,0.363,1.104-0.604,1.014c-0.191-0.018-0.37-0.056-0.543-0.107C159.399,46.352,158.816,46.153,158.348,46.038z
		 M151.956,65.956c-0.012,0.002-0.025,0.003-0.038,0.004C151.931,65.959,151.943,65.958,151.956,65.956z M130.303,72.703
		c-0.01,0.014-0.022,0.028-0.032,0.042c-0.047-0.007-0.093-0.017-0.14-0.026c0.009,0,0.02,0.002,0.028,0.001
		C130.216,72.715,130.263,72.71,130.303,72.703z M129.455,72.537c0.1,0.022,0.251,0.079,0.396,0.124
		c-0.255-0.06-0.51-0.132-0.766-0.201C129.205,72.484,129.327,72.509,129.455,72.537z M151.777,72.203
		c0.098,0.009,0.19,0.019,0.273,0.03c-0.102,0.018-0.193,0.051-0.265,0.106C151.777,72.293,151.775,72.248,151.777,72.203z
		 M186.11,51.607c-0.333,0.407-0.169-0.001-0.474,0.099c-0.335,0.11-1.033,0.485-1.464,0.466c-0.209,0.875-0.412,2.129-1.278,2.355
		c0.089-0.236,0.09-0.494,0.229-0.938c-0.487-0.037-1.471-0.339-1.781-0.323c-0.158,0.008-0.306,0.047-0.45,0.101
		c0.019-0.018,0.039-0.035,0.058-0.053c0.467-0.404,0.864-0.856,1.29-1.251c0.255-0.24,0.522-0.462,0.81-0.651
		c0.072-0.045,0.146-0.094,0.217-0.135c0.078-0.044,0.158-0.091,0.231-0.127c0.149-0.079,0.306-0.149,0.463-0.202
		c0.313-0.112,0.652-0.138,1.017-0.181c0.364-0.044,0.728-0.106,1.087-0.216c0.316-0.095,0.622-0.21,0.924-0.335
		c-0.336,0.159-0.653,0.285-0.915,0.363C186.197,50.83,186.31,51.362,186.11,51.607z M188.456,49.373
		c0.161-0.13,0.32-0.261,0.478-0.394l0.441-0.377C189.138,48.861,188.815,49.124,188.456,49.373z"/>
</g>
</svg>
