<?xml version="1.0" encoding="utf-8"?>
<!-- Generator: Adobe Illustrator 17.0.0, SVG Export Plug-In . SVG Version: 6.00 Build 0)  -->
<!DOCTYPE svg PUBLIC "-//W3C//DTD SVG 1.1//EN" "http://www.w3.org/Graphics/SVG/1.1/DTD/svg11.dtd">
<svg version="1.1" id="Layer_1" xmlns="http://www.w3.org/2000/svg" xmlns:xlink="http://www.w3.org/1999/xlink" x="0px" y="0px"
	 width="560px" height="800px" viewBox="0 0 560 800" enable-background="new 0 0 560 800" xml:space="preserve">
<g>
	<g>
		<path fill="#3EADFF" d="M336.185,808.867c-0.401-0.34-0.807-0.671-1.228-0.981C335.345,808.223,335.765,808.545,336.185,808.867z"
			/>
		<path fill="#3EADFF" d="M163.07,383.001c-1.326,0.684-2.626,1.357-3.835,1.865C160.665,384.358,161.925,383.735,163.07,383.001z"
			/>
		<path fill="#3EADFF" d="M175.833,358.668c-2.254,4.554-1.719,10.512-4.379,14.844c-2.173,3.54-4.7,7.014-8.384,9.489
			c2.365-1.22,4.82-2.475,7.02-2.93c2.381-0.492,4.285,1.282,6.318-0.813c1.734-1.787,1.515-5.148,3.054-7.406
			c1.673-2.456,4.516-4.547,6.453-6.468c2.635-2.614,5.883-4.817,9.434-6.011c3.097-1.041,5.905-2.638,7.86-5.934
			c2.026-3.418,4.131-6.984,5.59-10.71c-4.016-4.368-8.117,4.129-10.642,6.456c-3.525,3.247-8.255,5.899-13.413,5.845
			C182.029,355.001,177.313,355.678,175.833,358.668z"/>
		<path fill="#3EADFF" d="M183.47,397.627c-0.12,0.083-0.223,0.191-0.338,0.282C183.161,397.988,183.266,397.916,183.47,397.627z"/>
		<path fill="#3EADFF" d="M125.423,421.235c-3.085-0.011-4.39,1.77-6.616,3.348c-3.358,2.381-7.93,2.344-11.682,4.62
			c3.09-0.197,6.349-2.33,9.404-2.939c4.165-0.83,8.759,0.023,12.983,0.173c5.552,0.198,11.319-0.225,16.351-2.642
			c3.584-1.721,8.18-3.116,10.494-6.63c1.514-2.299,1.247-4.941,3.996-6.145c2.067-0.906,4.683-0.01,6.904-0.521
			c3.051-0.702,6.558-2.369,9.138-4.362c2.743-2.12,4.08-6.13,6.738-8.228c-0.118-0.314,1.012-3.118,2.33-5.043
			c-4.312,3.545-9.491,7.005-14.614,8.168c-4.558,1.035-10.289,0.933-14.328,2.714c-5.344,2.357-4.929,12.266-11.324,14.469
			C139.019,420.344,132.095,421.259,125.423,421.235z"/>
		<path fill="#3EADFF" d="M219.064,504.609c-1.121-4.425,0.6-8.593,1.023-12.946c0.43-4.425,1.713-9.02,0.697-13.471
			c-3.391,4.838-4.101,11.12-6.171,16.345c-1.863,4.7-7.956,5.31-10.069,9.444c-2.043,3.998-1.585,9.471-2.611,14.13
			c-1.317,5.977-2.065,11.955-2.449,18.04c-0.523,8.267-1.85,16.365-6.207,23.618c4.409-2.437,4.77-9.623,6.438-13.63
			c1.916-4.605,6.253-8.16,7.556-13.357c1.253-4.998,3.53-9.875,4.601-14.733C212.711,514.247,212.345,502.48,219.064,504.609z"/>
		<path fill="#3EADFF" d="M187.463,512.279c-3.714,10.852-9.878,21.314-16.394,31.226c1.602-0.763,3.924-1.26,6.169,0.077
			c-2.866-8.306,10.249-14.696,13.326-21.159c-0.827-0.016-1.893-0.723-2.85-0.565c1.96-5.952,3.578-12.159,6.507-17.377
			c2.69-4.792,6.598-9.493,9.004-14.765c-0.333,0.386-0.674,0.764-1.289,1.42c-2.703,2.89-6.908,3.841-9.259,6.407
			C189.501,501.011,189.075,507.57,187.463,512.279z"/>
		<path fill="#3EADFF" d="M175.937,501.094c0.963-2.913,0.257-5.986-0.044-6.544c-3.147,11.645-7.434,22.799-13.791,33.097
			c2.881-3.433,5.18-7.116,7.418-10.983c-0.737,6.926-2.676,13.618-3.939,20.45c6.066-7.114,5.213-17.305,6.899-25.885
			C173.241,507.358,174.81,504.501,175.937,501.094z"/>
		<path fill="#3EADFF" d="M165.752,500.421c1.367-3.748,0.393-8.276,0.588-12.391c-1.554,1.172-2.123,3.412-2.736,3.504
			c-1.427,3.565-3.504,6.858-5.149,10.246c-1.178,2.426-0.52,7.037-2.226,8.566c4.535,4.47-0.601,17.4-1.868,22.436
			c-2.24,8.902-6.39,18.93-6.008,28.232c1.175-6.109,3.322-12.169,4.587-17.995c0.92-4.239,1.296-9.061,2.209-13.368
			c1.264-5.964,2.954-12.186,5.066-17.98c0.895-2.455,1.193-5.551,2.326-7.75C163.356,502.342,165.234,501.842,165.752,500.421z"/>
		<path fill="#3EADFF" d="M127.559,551.182c3.314-4.668,1.447-11.982,2.7-17.171c2.026-8.393,4.81-17.208,8.438-25.203
			c2.134-4.704,1.446-9.873,1.619-14.78c0.142-4.037,1.597-8.073,2.851-11.993c-0.503,1.443-6.292,5.066-8.631,5.178
			c-0.37-0.985-1.164-1.835-1.508-2.695c-2.679,8.451-0.75,17.911-1.201,26.536c-0.312,5.967-0.602,12.14-1.528,18.005
			C129.156,536.278,126.141,543.66,127.559,551.182z"/>
		<path fill="#3EADFF" d="M119.77,528.982c-0.242-6.417-3.113-12.919-2.843-19.257c0.445-10.432,3.883-20.951,6.283-31.439
			c-1.943,2.039-2.914,5.454-4.927,6.824c-1.447,0.984-2.853-1.264-3.543,1.831c-0.644-4.555-1.17-8.695-2.616-13.072
			c0.314-0.642,0.7-0.545-1.822-2.748c-0.186,9.562-3.504,19.186-2.243,28.49c0.507,3.741,1.731,7.738,1.669,11.509
			c-0.057,3.45-2.351,6.067-2.124,9.688c0.581-1.161,1.634-2.116,2.328-3.188c5.193,9.049,4.24,19.921,7.638,29.562
			C118.212,541.09,119.998,535.039,119.77,528.982z"/>
		<path fill="#3EADFF" d="M199.759,593.396c2.229-4.958,0.847-11.118,1.322-16.642c-1.658,3.598-3.703,7.091-5.698,10.438
			c-2.569,4.308-3.865,10.501-8.282,13.512c-1.345-1.952-2.348-4.663-3.235-6.894c-0.549,3.881,0.505,7.814,0.474,11.533
			c-0.022,2.638-1.343,5.067-1.138,7.792c0.426,5.682,3.486,11.047,4.672,16.597c0.758,3.552,0.876,7.164,1.847,10.805
			c2.022-11.562,3.823-23.173,4.389-34.81C194.345,600.856,197.941,597.44,199.759,593.396z"/>
		<path fill="#3EADFF" d="M201.381,574.868c-0.141,0.614-0.226,1.248-0.3,1.886C201.614,575.527,201.819,574.739,201.381,574.868z"
			/>
		<path fill="#3EADFF" d="M140.741,627.976c-5.332-12.951-6.933-26.816-8.815-40.798c-0.941-6.99-3.404-13.156-6.682-19.286
			c-3.056-5.714-2.887-12.289-5.273-18.258c-0.641,6.757,0.075,12.894,1.895,19.323c2.334,8.248,1.812,17.345,3.609,25.684
			c1.219,5.657,2.235,11.637,3.658,17.2c1.45,5.667,4.042,11.357,4.461,17.319c0.767,10.896,0.61,22.008,2.043,32.962
			c2.834-9.108-1.596-18.754,0.679-27.959c1.885,3.884,2.759,8.11,3.556,12.321c-0.444-2.58-0.177-2.332,1.328-2.757
			c-2.093-8.299-3.843-16.672-5.749-25.015c1.796,5.219,4.747,9.9,7.457,14.673C142.226,631.594,141.483,629.778,140.741,627.976z"
			/>
		<path fill="#3EADFF" d="M151.397,653.308c-0.479-0.835-0.914-1.668-1.344-2.502c1.795,4.23,3.452,8.332,6.594,11.781
			C155.301,659.857,153.204,656.459,151.397,653.308z"/>
		<path fill="#3EADFF" d="M144.84,637.152c-0.563-1.284-1.262-2.543-1.932-3.767c2.21,5.906,4.44,11.722,7.146,17.421
			C148.354,646.233,146.757,641.522,144.84,637.152z"/>
		<path fill="#3EADFF" d="M224.426,577.83c1.959-4.541,5.26-8.697,7.179-13.434c-3.874,5.396-7.679-2.027-9.148-5.001
			c-3.213,5.675-3.829,13.736-4.766,20.025c-0.732,4.914,0.324,12.789-4.408,16.123C220.177,592.67,221.851,583.8,224.426,577.83z"
			/>
		<path fill="#3EADFF" d="M229.007,669.919c2.582-20.952,24.688-53.638,24.688-53.638c-0.005-0.004-7.481,4.346-10.74,2.839
			c-4.784-2.211-0.286-11.213,0.238-15.045c0.834-6.105,0.997-12.783,1.691-19.161c-2.486,1.26-3.639,6.68-4.608,9.558
			c-1.677,4.979-4.274,9.707-7.128,13.977c-3.422,5.121-1.92,12.52-1.381,18.376c0.65,7.064,1.707,14.412,0.835,21.35
			C231.701,655.322,229.607,662.55,229.007,669.919z"/>
		<path fill="#3EADFF" d="M245.54,580.954c-0.267,1.276-0.474,2.608-0.658,3.961c0.146-0.074,0.279-0.187,0.434-0.231
			C244.883,581.981,246.084,580.353,245.54,580.954z"/>
		<path fill="#3EADFF" d="M34.146,348.042c-0.24,0.182-0.482,0.351-0.721,0.535C33.675,348.424,33.913,348.239,34.146,348.042z"/>
		<path fill="#3EADFF" d="M56.424,330.123c3.921-3.662,4.897-10.065,9.985-12.463c-5.96,1.299-12.325,1.088-16.193,6.66
			c-3.116,4.489-6.321,9.235-9.387,13.585c-2.267,3.215-3.854,7.152-6.683,10.137c5.513-4.034,11.195-7.941,16.935-11.436
			c3.339-2.033,7.337-1.971,11.167-2.289C60.298,333.239,57.768,332.451,56.424,330.123z"/>
		<path fill="#3EADFF" d="M119.65,152.803c-0.741-0.089-1.7-0.548-2.75-1.118C118.063,152.611,119.048,153.141,119.65,152.803z"/>
		<path fill="#3EADFF" d="M109.801,168.193c-2.93,0.655-7.061,2.568-9.448,4.856c3.194-1.949,6.805-3.403,10.597-3.406
			c1.179,2.399,5.093,3.214,6.278-1.318c-0.425,0.101-1.614-0.218-2.658-0.226C112.859,168.086,111.556,167.801,109.801,168.193z"/>
		<path fill="#3EADFF" d="M118.051,182.47c-0.048,0.013-0.097,0.026-0.146,0.04C118.016,182.578,118.073,182.579,118.051,182.47z"/>
		<path fill="#3EADFF" d="M87.028,318.836c-4.238,1.624-8.768,1.128-13.173,2.107c0.447,0.299,1.141,1.152,1.587,1.527
			c-1.331,3.621-3.529,4.865-6.114,6.651c5.557,2.838,10.41,6.789,14.505,11.485c-0.524,3.003-4.151,7.735-6.271,8.148
			c-3.463,0.675-8.918-0.781-11.682-3.48c-5.211,1.014-12.224-1.682-15.209,4.386c0.641,0.337,1.818,2.056,2.799,2.351
			c-2,3.979-4.468,7.098-6.985,10.749c5.221,8.07-8.196,18.258-12.592,23.679c1.487,0.726,2.764,1.266,4.212,0.968
			c-0.713,1.843-2.02,3.834-3.503,5.163c-8.145,3.415-15.437,8.875-24.074,11.082c3.209,0.092,7.202,3.232,10.403,2.648
			c2.109-0.385,4.831-2.125,6.925-2.959c6.187-2.463,11.646-7.3,15.786-12.403c4.741-5.845,7.091-13.717,9.443-20.84
			c1.218-3.688,4.004-5.946,5.215-9.488c0.941-2.753,0.126-5.764,1.387-8.384c1.593,0.818,3.193,0.409,4.646,1.091
			c2.898,1.36,2.799,2.962,5.306,4.558c1.843,1.173,2.363,1.732,4.002,0.598c1.973-1.365,0.136-3.348,1.256-4.548
			c2.391-2.56,5.445-0.269,8.074-1.852c3.641-2.194,4.157-7.197,7.475-10.086c-3.266-5.439-6.493-10.891-9.898-16.245
			c3.874,1.661,6.76-0.306,10.648,1.321c2.357,0.986,3.89,2.363,6.191,1.435c1.779-0.718,2.94-3.274,4.284-3.778
			C96.702,324.971,90.097,322.976,87.028,318.836z M33.756,393.288c0.196-0.264,0.475-0.421,0.722-0.611
			C34.237,392.885,34.004,393.122,33.756,393.288z"/>
		<path fill="#3EADFF" d="M65.766,345.134c0.03,0.048,0.079,0.093,0.114,0.141c0.645-0.192,1.253-0.467,1.804-0.878
			C67.042,344.628,66.43,344.979,65.766,345.134z"/>
		<path fill="#3EADFF" d="M81.217,538.137c-4.14-10.688,0.656-19.654,2.156-30.117c1.991-13.891,6.079-27.364,8.777-41.146
			c-7.889,4.629-6.174,13.03-10.385,19.572c-4.109,6.867-13.843,9.15-17.153,15.729c-3.571,7.098-0.113,16.569-0.761,24.463
			c-1.496,18.24-9.326,33.954-17.495,50.405c9.966-4.555,11.289-17.592,19.94-23.754c4.348,5.487,6.646,10.843,5.99,17.972
			c14.417-0.791,16.199,36.993,16.199,36.993s5.366-31.847,9.024-47.633C92.239,552.98,84.637,546.966,81.217,538.137z"/>
	</g>
</g>
<g>
	<path fill="none" d="M215.151,783.934c-3.19-1.99-6.681-3.343-9.472-3.069c-0.299,1.28-0.225,2.762-0.174,4.165
		c0.376,0.297,0.564,0.445,0.94,0.741c2.625,3.341,6.012,6.062,9.89,7.811c-0.614,2.491-0.888,4.666-1.4,6.418h30.872
		c-6.346-3.071-13.222-5.326-19.072-8.613C222.881,789.222,219.008,786.339,215.151,783.934z"/>
	<path fill="none" d="M60.731,307.293c0.891,0.784,1.811,1.465,2.761,1.993c0.453,0.252,0.915,0.483,1.377,0.695
		c-1.647-0.95-3.205-2.052-4.723-3.282C60.38,306.937,60.497,307.055,60.731,307.293z"/>
	<path fill="none" d="M105.183,228.312c-0.265-0.441-0.669-0.765-1.155-0.984c-0.251-0.113-0.376-0.169-0.627-0.282
		c0.01,0.058,0.021,0.111,0.03,0.171c-2.279,2.278-0.616,6.179-3.606,7.608c1.213,1.995,3.095,3.311,4.068,5.558
		c0.062-0.305,0.124-0.61,0.191-0.909c0.362-1.63,0.768-3.207,1.085-4.786c0.314-1.564,0.569-3.19,0.476-4.612
		C105.598,229.371,105.448,228.753,105.183,228.312z"/>
	<path fill="none" d="M71.242,250.689c-0.135,0.298-0.295,0.615-0.494,0.937c-0.028,0.05-0.065,0.098-0.094,0.148
		c-0.264,1.318-0.505,2.609-0.714,3.862c0.066-0.206,0.132-0.411,0.195-0.617C70.569,253.61,71.077,252.11,71.242,250.689z"/>
	<path fill="none" d="M75.327,272.928c1.035,0.534,2.177,1.037,3.402,1.509c-0.18-0.09-0.269-0.135-0.449-0.224
		C77.321,273.72,76.329,273.329,75.327,272.928z"/>
	<path fill="none" d="M4.472,436.187c0.309-0.971,0.536-2.055,0.735-3.151c0.398-2.199,0.648-4.541,0.963-6.864
		c0.314-2.318,0.628-4.702,1.418-6.889c0.104-0.289,0.157-0.434,0.261-0.723c0.258,0.2,0.387,0.301,0.644,0.501
		c0.973,0.755,1.951,1.495,2.934,2.207c-1.35-1.307-2.671-2.872-3.986-4.785c7.768,0.264,15.815,1.867,23.143,1.053
		c6.364-0.707,8.055,1.62,12.839,5.23c11.735,8.856,25.821,9.795,40.584,8.267c0.093,2.935,1.279,6.605,0.732,9.782
		c10.864,2.156,20.819-1.846,30.969-1.872c4.805-0.012,12.609,5.215,15.82-1.393c5.336,3.931,12.773,3.329,18.987,4.538
		c0.047,0.007,0.095,0.011,0.142,0.018c1.314,0.186,2.603,0.594,3.895,1.046c3.954,0.991,7.324,1.448,10.779,1.404
		c2.492-0.718,4.811-2.293,6.986-3.387c3.775-1.898,8.786-1.235,12.504-2.83c4.077-1.749,8.514-3.149,13.168-2.187
		c3.668,0.757,7.409-0.762,10.937-2.134c0.463-0.352,0.951-0.713,1.48-1.086c-0.228-0.088-0.467-0.17-0.714-0.244
		c-1.206-0.362-2.638-0.579-4.202-1.285c-0.782-0.353-1.637-0.851-2.394-1.611c-0.377-0.319-0.774-0.853-1.135-1.328
		c-0.163-0.228-0.231-0.367-0.351-0.555c-0.065-0.106-0.097-0.159-0.161-0.265c-0.032-0.053-0.048-0.079-0.081-0.132
		c-0.035-0.061-0.052-0.092-0.087-0.153c-0.005-0.009-0.007-0.014-0.012-0.024c-0.009-0.019-0.014-0.028-0.023-0.047
		c-0.018-0.038-0.027-0.057-0.045-0.095c-0.511-0.976-0.859-2.158-0.973-3.253c-0.115-1.101-0.037-2.1,0.084-2.959
		c0.246-1.745,0.585-3.011,0.452-4.239c-0.142-1.313-0.462-2.911-0.854-4.422c-0.398-1.532-0.93-3.421-1.006-5.374
		c-0.076-1.937,0.271-3.759,0.665-5.273c0.798-3.064,1.769-5.949,2.807-8.779c1.037-2.828,2.136-5.606,3.284-8.335
		c2.226-5.293,4.622-10.521,7.172-15.668c0.161-2.596,0.248-3.892,0.433-6.479c0.098-1.37,0.148-2.055,0.253-3.422
		c0.052-0.684,0.079-1.026,0.132-1.709c0.053-0.585,0.078-1.105,0.158-1.763c0.152-1.261,0.406-2.443,0.708-3.564
		c0.303-1.124,0.657-2.206,1.041-3.258c0.745-2.042,1.583-3.956,2.533-5.866c0.884-3.298,1.718-6.675,2.475-10.032
		c0.638-2.826,1.191-5.68,1.656-8.532c-3.101,2.359-5.783,1.201-8.638,0.966c0.054,0.123,0.081,0.184,0.135,0.307
		c-7.768,1.306-12.699,8.865-19.109,12.352c-0.858,0.467-4.294,2.296-5.225,2.15c-2.491-0.393-2.489-3.213-5.164-3.482
		c-2.472-0.249-5.4,4.429-7.396,5.568c-2.311,1.319-4.035,0.991-6.467,1.879c-2.124-3.659-6.866-2.505-9.602-3.664
		c-4.392-1.86-9.788-4.986-14.454-3.026c-4.053,1.703-4.235,7.564-4.615,11.431c-0.426,4.328,0.564,3.144-1.878,6.931
		c-1.549,2.402-4.467,4.557-0.454,7.207c-1.343,6.587-8.035,10.554-12.826,14.414c-2.214,1.784-5.169,4.635-7.187,5.982
		c-2.637,1.76-6.282,1.922-9.036,3.847c-9.216,6.441-16.529,17.786-16.818,29.252c-0.572,0.215-0.242-0.443-0.446-1.098
		c-0.218-2.227-0.324-3.339-0.527-5.565c-0.154-3.931,0.651-7.534,1.996-10.706c-4.413,4.179-9.188,8.913-11.043,14.871
		c-2.922-12.875-3.198-25.26,1.037-37.873c-0.863,1.151-1.742,2.274-2.612,3.406c1.122-2.122,2.31-4.194,3.399-6.304
		c0.311-0.603,0.615-1.22,0.914-1.835c0.749-1.964,1.51-3.864,2.237-5.73c0.07-0.296,0.16-0.605,0.213-0.878
		c0.11-0.568,0.218-1.194,0.292-1.837c0.147-1.279,0.2-2.647,0.328-4.09c0.127-1.435,0.39-2.982,0.888-4.321
		c0.491-1.319,1.32-2.517,1.985-3.359c1.441-1.827,2.942-3.467,4.212-5.191c0.637-0.864,1.206-1.793,1.718-2.774
		c0.505-0.967,0.898-2.06,1.526-3.302c0.656-1.278,0.985-1.916,1.646-3.188c0.506-0.987,0.94-2.073,1.173-2.999
		c0.277-1.101,0.324-2.131,0.356-3.512c0.03-1.335,0.033-2.935,0.352-4.544c0.039-0.197,0.059-0.296,0.098-0.493
		c-0.494-0.125-0.998-0.236-1.508-0.347c-0.017,0.006-0.037,0.011-0.055,0.016c0.015-0.006,0.03-0.014,0.045-0.019
		c-1.042-0.226-2.125-0.448-3.264-0.788c-1.085-0.324-2.22-0.82-3.295-1.476c-1.033-0.63-2.169-1.606-3.002-2.392
		c-1.832-1.729-3.487-3.571-5.099-4.434c-0.813-0.435-1.668-0.647-2.57-0.728c-0.87-0.078-1.918-0.011-2.91,0.016
		c-4.083,0.111-8.336-0.137-12.316-1.315c-1.031-0.305-2.068-0.739-3.082-1.23c-1.013-0.491-2.035-1.099-2.992-1.813
		c-0.967-0.721-1.888-1.608-2.754-2.576c-0.413-0.528-0.829-1.043-1.219-1.591c-0.229-0.38-0.344-0.57-0.572-0.95
		c-1.269-1.112-2.526-2.303-3.798-3.577c-4.085,12.701-16.537,20.943-23.897,31.595c-0.141,0.827-0.3,1.664-0.496,2.486
		c-0.564,2.367-1.598,4.373-2.729,5.932c-2.127,2.932-4.958,5.464-7.332,8.311c-0.047,0.061-0.071,0.092-0.118,0.153
		c-0.003-0.097-0.004-0.145-0.006-0.242c-0.015-0.56,0.138-1.055,0.376-1.382c-0.161,0.306-0.227,0.696-0.228,1.099
		c1.965-3.218,4.505-6.086,6.362-9.285c0.955-1.646,1.686-3.582,2.075-5.677c0.39-2.102,0.52-4.523,0.916-6.966
		c0.413-2.546,1.292-4.735,2.416-6.564c1.115-1.815,2.44-3.241,3.754-4.532c2.624-2.579,5.369-4.623,7.245-7.708
		c0.26-0.371,0.441-0.755,0.637-1.128c0.119-0.225,0.179-0.338,0.298-0.563c0.119-0.295,0.179-0.442,0.298-0.736
		s0.179-0.442,0.299-0.736c0.026-0.048,0.142-0.428,0.209-0.626c0.161-0.475,0.313-0.968,0.459-1.468
		c0.583-1.988,1.067-4.162,1.608-6.374c0.54-2.206,1.129-4.501,2.017-6.654c0.442-1.072,0.946-2.119,1.547-3.059
		c0.268-0.482,0.666-0.937,1.002-1.394c0.362-0.43,0.574-0.638,1.011-1.103c0.501-0.49,1.067-0.994,1.513-1.432
		c0.26-0.901,0.529-1.847,0.803-2.818c0.022-0.28,0.036-0.528,0.038-0.79c0.004-0.465-0.016-0.993-0.049-1.614
		c-0.065-1.243-0.058-2.895,0.276-4.304c0.593-2.497,1.348-4.446,2.14-6.539c0.36-0.952,0.778-1.856,1.168-2.783
		c-0.811-0.245-1.564-0.632-2.271-1.058c-1.533-0.924-2.935-2.124-4.297-3.336c-1.582-1.466-2.371-2.203-3.947-3.684
		c-1.351-1.238-2.644-2.563-3.929-3.872c-2.563-2.612-5.052-5.378-7.663-7.797c-1.304-1.208-2.633-2.363-4.015-3.322
		c-0.69-0.478-1.388-0.961-2.099-1.354c-0.706-0.425-1.445-0.737-2.18-1.047c0.75,0.166,1.504,0.346,2.245,0.62
		c0.733,0.271,1.494,0.604,2.218,0.997c1.44,0.782,2.88,1.76,4.272,2.803c2.788,2.089,5.471,4.521,8.113,6.888
		c1.318,1.181,2.651,2.351,3.989,3.409c0.679,0.537,1.383,1.146,2.05,1.719c0.8,0.672,1.2,1.008,2,1.677
		c1.33,1.069,2.681,2.074,4.01,2.791c1.303,0.703,2.725,1.121,3.444,0.688c1.395-0.84,2.093-1.258,3.489-2.092
		c0.178-0.428,0.411-1.055,0.503-1.736c0.065-0.594,0.023-1.188,0.186-2.3c0.099-0.565,0.19-1.139,0.525-1.849
		c0.165-0.35,0.134-0.35,0.392-0.764c0.143-0.23,0.29-0.458,0.446-0.66c1.26-1.628,2.78-2.139,3.86-2.339
		c0.585-0.108,1.105-0.145,1.466-0.148c-0.113-0.824-0.56-1.609-1.144-2.215c-0.594-0.616-1.27-1.157-1.973-1.591
		c-2.809-1.736-5.991-2.678-8.911-4.336c-1.473-0.669-2.994-1.059-4.513-1.228c-1.521-0.169-3.072-0.12-4.634-0.253
		c-1.557-0.133-3.165-0.536-4.666-1.366c-1.515-0.838-2.878-2.154-4.241-3.321c-2.733-2.34-5.614-4.383-8.596-5.754
		c-2.987-1.373-9.152-2.83-9.152-2.83s6.183,1.242,9.202,2.52c3.014,1.275,5.956,3.242,8.737,5.509
		c1.379,1.124,2.776,2.397,4.201,3.145c1.449,0.761,2.984,1.11,4.506,1.204c1.524,0.094,3.079,0.007,4.643,0.141
		c1.56,0.134,3.151,0.503,4.69,1.164c1.337,0.724,2.684,1.274,4.035,1.824c-0.248-0.192-0.482-0.392-0.696-0.569
		c-3.621-2.995-8.679-4.299-12.276-7.325c-2.315-1.948-3.033-3.922-0.216-8.835c-6.054-4.483-13.806-7.67-18.257-13.99
		c4.145-0.136,8.036,2.181,11.629,2.97c5.207,1.143,10.922-3.661,16.165-2.98c4.345,0.564,9.048,4.398,13.677,3.443
		c3.631-0.748,7.453-2.593,11.46-2.607c0.398,4.525,4.014,6.543,6.801,7.908c-2.326,2.121-6.907,2.831-9.543,3.601
		c-4.249,1.24-9.165,1.147-13.424-0.313c3.181,4.651,5.696,12.422,11.137,13.793c4.826,1.216,10.188-3.328,14.037-6.513
		c-0.539-1.326-0.258-2.88-0.601-4.055c2.23-0.501,2.466,2.445,4.578,2.606c1.392,0.106,3.07-1.365,4.457-2.34
		c-0.108-0.049-0.162-0.073-0.27-0.122c0.694-0.517,1.041-0.775,1.735-1.29c0.862-0.639,1.621-1.719,2.277-2.916
		c0.43-0.784,0.814-1.637,1.184-2.51c-0.974-0.52-1.757-1.251-2.454-1.538c-0.576-0.237-0.863-0.356-1.439-0.595
		c0.397-0.635,0.596-0.953,0.995-1.586c0.628-0.999,1.006-2.179,1.155-3.542c0.148-1.36,0.111-2.885,0.115-4.505
		c0.004-1.613,0.074-3.393,0.496-5.119c0.424-1.734,1.236-3.263,2.193-4.439c1.074-1.207,2.135-1.865,3.134-2.571
		c0.978-0.691,1.949-1.389,2.538-2.212c0.288-0.402,0.482-0.839,0.672-1.45c0.123-0.397,0.236-0.839,0.346-1.295
		c-3.224,0.602-7.284-1.312-9.656,1.019c1.015,0.493,2.045,1.957,3.143,2.302c-5.095,1.664-7.994,0.662-12.957-0.105
		c-2.386-0.369-7.326-2.681-9.17,0.695c-0.215,0.393,0.358,4.16-0.044,5.369c5.071,5.342,11.265,7.524,17.101,11.78
		c-5.52,0.546-11.385,0.827-16.647-0.845c-2.019-0.642-3.898-2.264-5.859-3.979c-3.334-2.915-5.549-3.802-9.361-5.593
		c0.417-0.307,0.958-0.448,1.387-0.737c-3.919-0.481-7.773,0.947-11.603,1.428c-4.79,0.601-9.511,1.664-14.385,2.076
		c5.326-2.96,11.091-4.378,16.457-7.257c-1.385-2.017-3.619-3.298-4.773-5.181c5.091,1.49,9.223-1.906,13.763-3.14
		c3.253-0.885,2.633,1.181,5.982-2.065c1.887-1.829,2.114-3.801,4.808-4.416c-0.09,0.1-0.755,2.229-1.083,2.959
		c7.215,2.183,13.621-3.608,20.354-4.39c1.693-0.197,3.277,1.01,4.878,0.893c1.852-0.135,2.65-1.991,4.146-2.404
		c2.555-0.707,5.668,2.768,6.371,3.206c-1.72,0.476-3.479,0.877-5.131,1.757c0.652,1.861,1.976,2.683,2.888,4.069
		c0.04-0.159,0.075-0.313,0.119-0.474c0.085-0.317,0.277-1.029,0.651-1.564c0.314-0.448,0.601-0.728,0.837-0.97
		c1.063-1.094,0.859-0.749,0.897-2.384c-0.053-1.389-0.297-2.82-0.352-4.707c0-0.076-0.001-0.114-0.001-0.189
		c0.005-0.12,0.007-0.181,0.012-0.301c0.004-0.058,0.006-0.087,0.01-0.146c0.023-0.156,0.034-0.234,0.056-0.39
		c0.095-0.497,0.207-0.775,0.332-1.052c0.235-0.524,0.451-0.834,0.554-1.041c0.107-0.215,0.129-0.294,0.131-0.338
		c0,0,0-0.051,0.002-0.062c-0.026-0.281-0.006-0.005-0.016-0.087c-0.035-0.193-0.385-0.751-0.787-1.489
		c-0.205-0.376-0.429-0.85-0.596-1.45c-0.183-0.595-0.213-1.413-0.223-1.671c-0.035-0.439-0.036-1.092-0.012-1.715
		c-0.016,0.006-0.029,0.015-0.048,0.019c0.018-0.068,0.036-0.136,0.055-0.203c0.013-0.284,0.033-0.561,0.054-0.793
		c0.08-0.874,0.208-1.734,0.366-2.555c0.317-1.641,0.749-3.164,1.168-4.621c0.699-2.436,1.335-4.79,1.752-7.174
		c-0.242-0.163-0.476-0.346-0.716-0.516c-1.63,0.041-3.069-1.006-4.493-2.069c0.516,0.476,1.017,0.918,1.486,1.292
		c-2.345-1.273-5.186-3.162-7.424-3.066c-0.957,0.331-1.897,0.896-2.852,1.467c-0.642,0.695-1.196,1.465-2.107,1.913
		c-1.734,0.853-4.188,0.291-6.091,0.659c-4.038,0.78-7.924,2.375-11.561,4.235c-3.093,1.581-6.082,0.882-9.063,0.665
		c-0.992,0.423-1.985,0.796-3.038,0.843c-0.901,0.04-1.743,0.014-2.564-0.018c-0.274,0.129-0.548,0.266-0.824,0.432
		c0.199-0.15,0.382-0.294,0.573-0.442c-2.032-0.081-4.023-0.195-6.251,0.717c-4.135,1.692-8.298,3.833-12.492,5.668
		c-0.71-3.98-0.641-8.087-0.74-12.092c-0.062-2.508-0.326-7.991,0.417-10.237c-4.542,2.096-9.421,3.69-13.496,6.541
		c-2.91,2.036-5.252,4.483-8.597,6.093c-7.871,3.789-12.066,12.482-18.679,18.011c-0.745,0.869-1.5,1.717-2.285,2.513
		c0.555-2.18,1.606-4.349,2.924-6.472c2.434-8.101,7.846-14.707,11.43-22.249c3.382-7.117,8.515-13.268,10.449-21.061
		c-5.967,5.768-9.381,13.689-14.488,19.998c-3.398,4.197-7.89,7.467-12.112,10.899c-1.576,2.267-3.215,4.54-5.021,6.653v275.82
		c0.101-0.116,0.2-0.241,0.289-0.398C3.808,438.097,4.171,437.133,4.472,436.187z"/>
	<path fill="none" d="M120.486,177.988c-0.004,0.053-0.006,0.08-0.01,0.133c0.002-0.009-0.001,0.001,0.005-0.026
		C120.487,178.06,120.489,178.015,120.486,177.988z"/>
	<path fill="none" d="M18.561,119.939c2.999-6.156,3.696-14.414,6.135-21.092c1.822-4.989,4.665-10.07,6.51-15.17
		c4.35-12.024,6.612-24.923,9.059-37.654c-1.333,0.885-2.485,1.178-3.944,2.339c-1.429,1.962-2.795,4.063-4.25,6.045
		c-3.07,4.183-7.278,7.599-10.147,11.942c-2.503,3.788-4.953,7.731-7.386,11.625c-2.978,5.525-6.431,10.975-8.715,16.592
		c-1.077,2.65-1.871,5.559-2.813,8.406v35.851c0.484-0.85,1.007-1.669,1.631-2.404C9.307,130.926,15.481,126.261,18.561,119.939z"/>
	<path fill="none" d="M196.088,771.227c1.685,1.937,3.364,3.882,5.087,5.75c-0.947-1.124-1.908-2.362-2.584-3.088
		C197.725,772.959,196.898,772.082,196.088,771.227z"/>
	<path fill="none" d="M484.474,742.204c-0.014-0.024-0.031-0.048-0.045-0.072c0.214,0.674,0.568,1.333,1.011,1.982
		C485.117,743.449,484.801,742.793,484.474,742.204z"/>
	<path fill="none" d="M203.086,778.977c0.322,0.326,0.638,0.662,0.965,0.98c0.109-0.031,0.229-0.041,0.34-0.066
		c-0.311-0.196-0.667-0.435-1.103-0.745C203.225,779.1,203.152,779.03,203.086,778.977z"/>
	<path fill="none" d="M454.185,736.807c0.66,0.62,1.28,1.269,1.887,1.91c0.852,0.898,1.676,1.805,2.509,2.698
		c0.659,0.5,1.281,1.058,1.588,1.643c1.064,1.045,2.182,2.066,3.562,2.65c-0.493-0.139-0.973-0.343-1.441-0.584
		c4.722,3.325,7.8,7.739,10.794,12.601c1.124,0.826,2.451,1.554,3.623,2.266c4.962,3.014,6.556,0.322,5.825-4.35
		c3.387,0.132,4.595-1.668,4.506-4.803c-0.075-2.66-3.842-7.342-3.029-9.386c-1.615-2.529-3.923-4.699-6.618-6.348
		c-2.959-1.81-6.329-3.213-9.67-4.671c-2.389-1.043-4.782-2.066-7.162-3.302c-1.821-0.111-3.618,0.135-5.504-0.572
		c-0.034,1.997,1.36,4.305,0.341,6.293c-2.352-1.351-3.542-0.11-3.744,1.941c0.092,0.051,0.187,0.107,0.297,0.185
		C452.861,735.585,453.513,736.176,454.185,736.807z"/>
	<path fill="none" d="M551.776,797.538c-0.038-0.027-0.057-0.04-0.094-0.066c-0.661-0.474-1.386-0.865-2.138-1.216
		c-3.043-1.422-6.61-1.814-10.378-2.69c-0.945-0.22-1.923-0.479-2.902-0.794c-0.963-0.309-2.147-0.798-2.92-1.174
		c-2.033-0.991-3.931-2.384-5.349-4.135c-1.398-1.726-2.179-3.522-2.953-5.006c-0.772-1.481-1.664-2.83-2.681-3.836
		c-0.945-0.856-2.474-1.625-4.155-2.543c-0.173,5.767-3.614,10.498-5.49,15.771c-1.028-2.452-0.065-5.318-0.661-7.974
		c-0.486-2.162-1.811-4.338-2.225-6.484c-0.144-0.748-0.328-2.282-0.06-2.936c0.458-1.121,1.916-1.044,2.383-1.906
		c0.92-1.699-0.639-4.124,0.017-6.097c0.042-0.015,0.073-0.028,0.112-0.043c-0.033-0.094-0.067-0.19-0.097-0.26
		c-0.764-1.384-1.746-2.977-2.717-4.212c-1.004-1.276-2.122-2.259-3.535-3.055c-1.432-0.806-3.046-1.47-4.764-2.146
		c-1.693-0.666-3.416-1.278-5.13-1.937c-1.172-0.451-2.478-0.897-3.811-1.637c0.134,0.479,0.226,0.967,0.223,1.473
		c-0.385-0.304-1.245-0.579-1.64-0.878c0.012,2.466-1.031,3.938-2.174,5.893c-1.521,2.603-2.233,5.091-3.037,8.216
		c-0.697,2.707-2.015,5.292-3.63,7.474c-0.344,0.465-0.639,0.757-0.883,0.991c1.704,4.986,3.387,10.102,5.626,14.77
		c1.459,3.042,3.138,5.988,4.924,8.899h7.732c-0.004-0.029-0.008-0.061-0.012-0.09c0.022,0.03,0.044,0.06,0.066,0.09h53.94
		c-0.451-0.854-1.033-1.687-1.669-2.433C551.712,797.548,551.751,797.551,551.776,797.538z"/>
	<path fill="none" d="M183.509,306.093c-0.12-0.034-0.349-0.035-0.549-0.039c-0.071-0.002-0.273-0.01-0.238-0.004
		c-0.109,0.005-0.163,0.008-0.272,0.014c-0.004,0-0.008,0.001-0.012,0.001c0.659,0.047,1.314,0.123,1.962,0.239
		C184.089,306.2,183.761,306.125,183.509,306.093z"/>
	<path fill="none" d="M106.189,461.448c0.529,0.239,1.059,0.416,1.537,0.4c0.233-0.008,0.445-0.068,0.709-0.15
		c0.018-0.008,0.035-0.017,0.052-0.026c-1.51-0.147-3.93-0.974-3.93-0.974C104.558,460.699,105.663,461.211,106.189,461.448z"/>
	<path fill="none" d="M104.217,460.62c0.11,0.016,0.33,0.075,0.33,0.075s-0.212-0.076-0.316-0.114
		C104.225,460.596,104.222,460.604,104.217,460.62z"/>
	<path fill="none" d="M103.859,240.546c-2.35,1.138-7.872,0.854-9.202,2.659c-2.974,4.034,3.413,7.398,5.466,10.641
		c-4.112-1.642-8.363-0.26-12.432-0.817c-4.924-0.675-9.959,1.683-14.883-0.667c0.32-1.191,0.066-2.293-0.548-3.324
		c0,0.001,0,0.002,0.001,0.003c0.067,0.453,0.054,0.587,0.068,0.935c-0.013,0.327-0.013,0.699-0.056,0.977
		c-0.062,0.599-0.166,1.167-0.288,1.704c-0.245,1.082-0.553,2.102-0.852,3.098c-0.595,1.976-1.301,3.943-1.439,5.902
		c-0.08,1.128-0.132,2.144-0.052,3.165c0.056,1.028,0.255,2.007,0.628,2.758c0.756,1.519,2.267,2.257,3.741,2.868
		c1.499,0.622,3.049,1.104,4.594,1.858c3.62,1.725,5.431,2.576,9.059,4.256c1.144,0.562,2.2,0.965,3.291,1.227
		c0.598-0.749,1.038-1.734,1.332-2.786c0.429-1.532,0.729-3.198,1.255-4.729c1.043-3.038,2.637-5.635,3.938-8.312
		c2.692-5.538,4.765-11.104,6.274-17.146c-0.183-0.475-0.216-0.948-0.231-1.337c-0.021-0.535,0.032-1,0.086-1.455
		C103.67,241.516,103.764,241.024,103.859,240.546z"/>
	<path fill="none" d="M168.628,307.695c0.507-0.088,1.012-0.18,1.516-0.273C169.662,307.437,169.154,307.542,168.628,307.695z"/>
	<path fill="none" d="M172.196,480.87c0.736,0.026,1.394,0,2.049-0.084c-1.368-0.069-2.877-0.095-4.444-0.168
		C170.601,480.75,171.403,480.843,172.196,480.87z"/>
	<path fill="none" d="M210.954,433.556c-3.523,3.956-5.077,9.314-8.109,13.434c-1.795,2.439-4.706,4.252-6.556,6.281
		c-2.041,2.239-4.011,3.275-6.609,5.119c3.804-3.605,2.431-9.801,2.944-14.465c-3.995,1.257-8.124,2.179-12.328,2.244
		c-7.907,4.562-14.35,9.275-23.788,9.146c11.588,7.598,27.789,15.275,41.554,13.863c3.8-0.39,7.687-1.536,11.642-1.543
		c-0.053-0.083-0.08-0.125-0.133-0.208c-0.046-0.072-0.069-0.107-0.115-0.179c-0.003-0.004-0.004-0.007-0.007-0.011
		c0.03,0.056-0.28-0.514-0.155-0.288c-0.01-0.024-0.014-0.035-0.024-0.059c-0.019-0.048-0.028-0.071-0.047-0.119
		c-0.035-0.097-0.053-0.145-0.088-0.242c-0.368-1.237-0.285-1.853-0.288-2.517c0.05-1.274,0.219-2.341,0.382-3.41
		c0.161-1.056,0.348-2.091,0.481-3.062c0.03-0.263,0.044-0.395,0.074-0.659c0.008-0.095,0.013-0.143,0.021-0.238
		c0.001-0.088-0.001-0.381,0.002-0.3c-0.031-0.508-0.067-1.016-0.122-1.54c-0.148-1.339-0.221-2.008-0.363-3.345
		c-0.104-1.189-0.123-2.43-0.041-3.61c0.041-0.59,0.104-1.167,0.19-1.763c0.104-0.63,0.157-0.946,0.263-1.575
		c0.33-1.932,0.495-4.049,0.792-6.212c0.219-1.592,0.517-3.239,1.031-4.813c-0.243-0.147-0.502-0.28-0.773-0.401
		c-0.243,0.225-0.489,0.44-0.739,0.641C210.343,433.66,210.645,433.602,210.954,433.556z"/>
	<path fill="none" d="M227.614,552.056c1.587,0.627,3.424,0.872,5.3,1.182c1.208,0.2,2.48,0.434,3.837,0.92
		c0.674,0.241,1.387,0.591,2.094,1.027c0.379,0.292,0.644,0.42,1.111,0.863c0.074,0.057,0.377,0.377,0.6,0.678
		c0.201,0.27,0.339,0.502,0.473,0.746c0.935,1.894,1.089,3.228,1.567,3.995c0.106,0.171,0.2,0.316,0.308,0.419
		c0.024,0.025,0.036,0.038,0.06,0.063c0.032,0.024,0.049,0.036,0.081,0.061c0.124,0.089,0.318,0.25,0.333,0.223
		c0.061,0.016,0.081,0.038,0.169,0.078c0.131,0.051,0.197,0.076,0.328,0.126c0.234,0.076,0.48,0.151,0.742,0.209
		c1.051,0.232,2.225,0.346,3.466,0.527c0.614,0.09,1.292,0.213,1.984,0.42c0.697,0.209,1.523,0.532,2.394,1.293
		c0.128,0.122,0.192,0.184,0.32,0.306c0.031,0.031,0.047,0.047,0.078,0.078c0.044,0.05,0.065,0.076,0.109,0.126
		c0.034,0.041,0.051,0.062,0.085,0.104c0.125,0.158,0.205,0.234,0.365,0.458c0.346,0.483,0.669,0.946,0.893,1.709
		c0.06,0.184,0.097,0.375,0.118,0.564c1.027-1.181,2.764-2.101,3.177-4.916c3.07,2.151,2.574,4.238,3.76,7.224
		c1.381,3.477,4.039,5.435,5.426,8.66c2.187-0.987,1.223-3.122,2.008-5.364c1.187-3.393,3.146-3.863,6.055-5.312
		c2.246-1.118,4.401-2.065,6.102-3.841c2.025-2.114,2.705-6.591,5.737-7.162c-0.812,2.294-1.611,4.907,0.4,7.103
		c5.823-0.974,14.322-4.427,16.156-10.674c-2.467,0.133-5.456-0.598-7.019-1.016c-0.471-0.126-2.301-1.529-3.108-1.796
		c-2.141-0.707-4.332,0.391-6.489-0.479c3.4-5.299,9.304-8.042,13.149-12.95c-7.775,0.792-15.54-2.122-23.231-0.105
		c0.531-2.369,3.38-3.916,6.299-5.083c-1.509-0.121-2.951-0.344-4.423-0.644c-1.543-0.315-3.078-0.736-4.595-1.194
		c-3.035-0.915-6.039-2.027-8.98-3.075c-1.516-0.54-2.865-0.996-4.368-1.339c-1.792-0.404-2.689-0.608-4.482-1.024
		c-3.006-0.67-6.033-1.377-9.057-2.307c-3.018-0.929-6.094-1.977-9.023-3.574c-1.462-0.797-2.953-1.734-4.236-3.022
		c-0.504-0.506-0.957-1.103-1.353-1.731c0.027,1.405-0.067,2.8-0.29,4.1c-0.304,1.77-0.761,3.386-1.202,4.94
		c-0.441,1.555-0.868,3.081-1.224,4.641c-0.357,1.562-0.655,3.143-0.814,4.74C228.185,539.252,228.146,545.718,227.614,552.056z"/>
	<path fill="none" d="M346.257,765.791c-2.077-4.071-4.388-8.119-6.637-12.154c2.3,4.384,4.677,8.719,7.07,13.054
		C346.545,766.39,346.407,766.085,346.257,765.791z"/>
	<path fill="none" d="M352.296,592.756c-0.188-0.422-0.382-0.842-0.575-1.262c0.117,0.421,0.223,0.836,0.312,1.244
		C352.121,592.744,352.209,592.76,352.296,592.756z"/>
	<path fill="#3EADFF" d="M499.368,800h0.054c-0.022-0.03-0.044-0.06-0.066-0.09C499.36,799.939,499.364,799.971,499.368,800z"/>
	<path fill="#3EADFF" d="M3.01,102.974c0.942-2.847,1.736-5.756,2.813-8.406c2.283-5.617,5.737-11.066,8.715-16.592
		c2.433-3.895,4.883-7.837,7.386-11.625c2.869-4.343,7.076-7.76,10.146-11.942c1.455-1.982,2.822-4.083,4.25-6.045
		c1.46-1.161,2.611-1.454,3.944-2.339c-2.447,12.73-4.709,25.629-9.059,37.654c-1.845,5.099-4.688,10.181-6.51,15.17
		c-2.439,6.678-3.136,14.936-6.135,21.092c-3.08,6.322-9.254,10.987-13.92,16.482c-0.624,0.735-1.147,1.554-1.631,2.404v24.53
		c1.806-2.114,3.445-4.386,5.021-6.653c4.222-3.432,8.714-6.702,12.112-10.899c5.108-6.309,8.522-14.229,14.488-19.998
		c-1.934,7.793-7.067,13.943-10.449,21.061c-3.584,7.542-8.996,14.149-11.43,22.249c-1.318,2.122-2.369,4.292-2.924,6.472
		c0.784-0.796,1.54-1.644,2.285-2.513c6.613-5.529,10.808-14.223,18.679-18.011c3.345-1.61,5.687-4.057,8.597-6.093
		c4.075-2.851,8.954-4.445,13.496-6.541c-0.743,2.245-0.479,7.728-0.417,10.237c0.099,4.005,0.03,8.112,0.74,12.092
		c4.194-1.835,8.357-3.975,12.492-5.668c2.227-0.912,4.219-0.798,6.251-0.717c-0.191,0.147-0.374,0.292-0.573,0.442
		c0.276-0.167,0.55-0.303,0.824-0.432c0.821,0.032,1.664,0.059,2.564,0.018c1.053-0.047,2.046-0.42,3.038-0.843
		c2.982,0.217,5.97,0.917,9.063-0.665c3.637-1.859,7.523-3.455,11.561-4.235c1.902-0.367,4.357,0.195,6.091-0.659
		c0.91-0.448,1.465-1.219,2.107-1.913c0.955-0.571,1.895-1.135,2.852-1.467c2.238-0.095,5.08,1.794,7.424,3.066
		c-0.469-0.373-0.97-0.816-1.486-1.292c1.424,1.063,2.862,2.11,4.493,2.069c0.24,0.17,0.474,0.353,0.716,0.516
		c-0.417,2.384-1.053,4.738-1.752,7.174c-0.418,1.457-0.85,2.98-1.168,4.621c-0.159,0.821-0.286,1.682-0.366,2.555
		c-0.021,0.232-0.041,0.508-0.054,0.793c-0.019,0.067-0.037,0.134-0.055,0.203c0.019-0.005,0.032-0.013,0.048-0.019
		c-0.024,0.622-0.024,1.276,0.012,1.715c0.01,0.258,0.04,1.076,0.223,1.671c0.167,0.599,0.391,1.073,0.596,1.45
		c0.402,0.738,0.752,1.295,0.787,1.489c0.01,0.082-0.01-0.194,0.016,0.087c-0.001,0.012-0.002,0.062-0.002,0.062
		c-0.002,0.044-0.024,0.123-0.131,0.338c-0.103,0.208-0.319,0.517-0.554,1.041c-0.125,0.278-0.237,0.555-0.332,1.052
		c-0.023,0.156-0.034,0.234-0.056,0.39c-0.004,0.058-0.006,0.087-0.01,0.146c-0.005,0.12-0.007,0.181-0.012,0.301
		c0,0.076,0.001,0.114,0.001,0.189c0.055,1.887,0.299,3.318,0.352,4.707c-0.038,1.635,0.165,1.29-0.897,2.384
		c-0.236,0.243-0.523,0.522-0.837,0.97c-0.374,0.535-0.566,1.247-0.651,1.564c-0.043,0.161-0.079,0.315-0.119,0.474
		c-0.912-1.387-2.236-2.208-2.888-4.069c1.652-0.881,3.411-1.281,5.131-1.757c-0.703-0.438-3.816-3.912-6.371-3.206
		c-1.496,0.414-2.294,2.269-4.146,2.404c-1.6,0.117-3.185-1.09-4.878-0.893c-6.733,0.782-13.139,6.573-20.354,4.39
		c0.328-0.73,0.993-2.858,1.083-2.959c-2.694,0.615-2.921,2.586-4.808,4.416c-3.348,3.246-2.729,1.181-5.982,2.065
		c-4.54,1.235-8.672,4.631-13.763,3.14c1.155,1.883,3.388,3.164,4.773,5.181c-5.367,2.879-11.131,4.297-16.457,7.257
		c4.874-0.412,9.596-1.474,14.385-2.076c3.83-0.481,7.684-1.909,11.603-1.428c-0.428,0.29-0.97,0.43-1.387,0.737
		c3.812,1.791,6.027,2.679,9.361,5.593c1.961,1.715,3.84,3.338,5.859,3.979c5.262,1.673,11.127,1.392,16.647,0.845
		c-5.836-4.256-12.031-6.438-17.101-11.78c0.402-1.21-0.171-4.976,0.044-5.369c1.845-3.377,6.785-1.064,9.17-0.695
		c4.963,0.767,7.862,1.769,12.957,0.105c-1.097-0.344-2.127-1.808-3.143-2.302c2.373-2.331,6.433-0.417,9.656-1.019
		c-0.11,0.456-0.223,0.898-0.346,1.295c-0.19,0.612-0.384,1.049-0.672,1.45c-0.589,0.823-1.559,1.521-2.538,2.212
		c-0.998,0.705-2.06,1.364-3.134,2.571c-0.957,1.176-1.77,2.706-2.193,4.439c-0.422,1.726-0.492,3.506-0.496,5.119
		c-0.004,1.62,0.033,3.145-0.115,4.505c-0.149,1.363-0.526,2.543-1.155,3.542c-0.398,0.634-0.597,0.951-0.995,1.586
		c0.575,0.238,0.863,0.357,1.439,0.595c0.697,0.287,1.48,1.019,2.454,1.538c-0.37,0.873-0.754,1.726-1.184,2.51
		c-0.656,1.196-1.415,2.276-2.277,2.916c-0.694,0.515-1.042,0.773-1.735,1.29c0.108,0.049,0.162,0.073,0.27,0.122
		c-1.388,0.975-3.066,2.446-4.457,2.34c-2.113-0.16-2.348-3.107-4.578-2.606c0.343,1.175,0.061,2.73,0.601,4.055
		c-3.849,3.185-9.211,7.729-14.037,6.513c-5.441-1.371-7.956-9.142-11.137-13.793c4.258,1.461,9.174,1.554,13.424,0.313
		c2.635-0.769,7.217-1.479,9.543-3.601c-2.787-1.365-6.403-3.383-6.801-7.908c-4.007,0.013-7.829,1.858-11.46,2.607
		c-4.629,0.954-9.332-2.879-13.677-3.443c-5.243-0.68-10.958,4.123-16.165,2.98c-3.593-0.789-7.484-3.106-11.629-2.97
		c4.452,6.32,12.204,9.507,18.257,13.99c-2.817,4.913-2.099,6.887,0.216,8.835c3.597,3.026,8.655,4.329,12.276,7.325
		c0.214,0.177,0.448,0.377,0.696,0.569c-1.351-0.55-2.698-1.101-4.035-1.824c-1.539-0.661-3.13-1.029-4.69-1.164
		c-1.563-0.135-3.119-0.047-4.643-0.141c-1.522-0.094-3.057-0.443-4.506-1.204c-1.425-0.748-2.822-2.021-4.201-3.145
		c-2.781-2.267-5.724-4.233-8.737-5.509c-3.019-1.278-9.202-2.52-9.202-2.52s6.165,1.457,9.152,2.83
		c2.982,1.371,5.863,3.414,8.596,5.754c1.363,1.167,2.725,2.483,4.241,3.321c1.501,0.831,3.108,1.233,4.666,1.366
		c1.562,0.133,3.113,0.085,4.634,0.253c1.519,0.168,3.04,0.559,4.513,1.228c2.921,1.658,6.102,2.6,8.911,4.336
		c0.702,0.434,1.379,0.976,1.973,1.591c0.584,0.606,1.031,1.39,1.144,2.215c-0.361,0.004-0.881,0.04-1.466,0.148
		c-1.081,0.2-2.601,0.711-3.86,2.339c-0.156,0.201-0.303,0.43-0.446,0.66c-0.258,0.414-0.227,0.413-0.392,0.764
		c-0.334,0.71-0.426,1.284-0.525,1.849c-0.162,1.112-0.121,1.706-0.186,2.3c-0.093,0.68-0.325,1.307-0.503,1.736
		c-1.397,0.834-2.095,1.253-3.489,2.092c-0.719,0.433-2.142,0.015-3.444-0.688c-1.329-0.717-2.68-1.722-4.01-2.791
		c-0.801-0.669-1.201-1.004-2-1.677c-0.667-0.573-1.371-1.182-2.05-1.719c-1.337-1.059-2.671-2.229-3.989-3.409
		c-2.642-2.367-5.325-4.798-8.113-6.888c-1.392-1.043-2.832-2.021-4.272-2.803c-0.723-0.393-1.484-0.725-2.218-0.997
		c-0.741-0.274-1.495-0.454-2.245-0.62c0.735,0.311,1.474,0.623,2.18,1.047c0.71,0.393,1.409,0.875,2.099,1.354
		c1.382,0.959,2.711,2.114,4.015,3.322c2.61,2.419,5.099,5.185,7.663,7.797c1.285,1.31,2.578,2.634,3.929,3.872
		c1.576,1.48,2.365,2.217,3.947,3.684c1.362,1.212,2.764,2.412,4.297,3.336c0.707,0.426,1.46,0.813,2.271,1.058
		c-0.39,0.927-0.808,1.831-1.168,2.783c-0.793,2.093-1.547,4.043-2.14,6.539c-0.335,1.409-0.341,3.061-0.276,4.304
		c0.032,0.62,0.053,1.149,0.049,1.614c-0.002,0.262-0.016,0.51-0.038,0.79c-0.275,0.971-0.543,1.917-0.803,2.818
		c-0.447,0.438-1.012,0.942-1.513,1.432c-0.437,0.465-0.649,0.673-1.011,1.103c-0.336,0.456-0.734,0.911-1.002,1.394
		c-0.601,0.941-1.105,1.987-1.547,3.059c-0.888,2.153-1.477,4.448-2.017,6.654c-0.541,2.212-1.025,4.386-1.608,6.374
		c-0.146,0.5-0.298,0.993-0.459,1.468c-0.067,0.197-0.183,0.578-0.209,0.626c-0.12,0.294-0.18,0.441-0.299,0.736
		c-0.12,0.294-0.179,0.442-0.298,0.736c-0.119,0.225-0.179,0.338-0.298,0.563c-0.196,0.373-0.377,0.758-0.637,1.128
		c-1.876,3.084-4.621,5.128-7.245,7.708c-1.314,1.292-2.639,2.718-3.754,4.532c-1.124,1.83-2.003,4.018-2.416,6.564
		c-0.396,2.443-0.526,4.863-0.916,6.966c-0.389,2.095-1.119,4.032-2.075,5.677c-1.857,3.199-4.397,6.068-6.362,9.285
		c0-0.403,0.066-0.793,0.228-1.099c-0.238,0.328-0.391,0.823-0.376,1.382c0.003,0.097,0.004,0.145,0.006,0.242
		c0.047-0.061,0.071-0.092,0.118-0.153c2.375-2.847,5.206-5.38,7.332-8.311c1.131-1.559,2.165-3.566,2.729-5.932
		c0.196-0.822,0.354-1.659,0.496-2.486c7.36-10.652,19.812-18.893,23.897-31.595c1.272,1.274,2.529,2.465,3.798,3.577
		c0.229,0.38,0.343,0.57,0.572,0.95c0.39,0.548,0.806,1.064,1.219,1.591c0.866,0.968,1.787,1.855,2.754,2.576
		c0.958,0.714,1.979,1.323,2.992,1.813c1.015,0.491,2.051,0.925,3.082,1.23c3.98,1.178,8.233,1.425,12.316,1.315
		c0.991-0.027,2.04-0.094,2.91-0.016c0.901,0.081,1.757,0.293,2.57,0.728c1.612,0.863,3.267,2.705,5.099,4.434
		c0.833,0.786,1.969,1.762,3.002,2.392c1.075,0.656,2.211,1.152,3.295,1.476c1.139,0.34,2.221,0.562,3.264,0.788
		c-0.015,0.005-0.03,0.013-0.045,0.019c0.018-0.006,0.038-0.01,0.055-0.016c0.51,0.111,1.014,0.222,1.508,0.347
		c-0.039,0.197-0.059,0.296-0.098,0.493c-0.319,1.609-0.322,3.21-0.352,4.544c-0.031,1.381-0.079,2.412-0.356,3.512
		c-0.233,0.926-0.667,2.013-1.173,2.999c-0.661,1.273-0.99,1.911-1.646,3.188c-0.628,1.242-1.021,2.335-1.526,3.302
		c-0.512,0.981-1.081,1.91-1.718,2.774c-1.27,1.724-2.771,3.365-4.212,5.191c-0.665,0.843-1.495,2.04-1.985,3.359
		c-0.498,1.339-0.76,2.886-0.888,4.321c-0.128,1.443-0.181,2.811-0.328,4.09c-0.074,0.643-0.182,1.269-0.292,1.837
		c-0.053,0.273-0.143,0.582-0.213,0.878c-0.727,1.866-1.489,3.765-2.237,5.73c-0.299,0.616-0.603,1.232-0.914,1.835
		c-1.089,2.11-2.276,4.182-3.399,6.304c0.869-1.132,1.748-2.255,2.612-3.406c-4.236,12.613-3.96,24.998-1.037,37.873
		c1.855-5.959,6.63-10.692,11.043-14.871c-1.346,3.171-2.15,6.774-1.996,10.706c0.204,2.225,0.309,3.338,0.527,5.565
		c0.205,0.655-0.125,1.313,0.446,1.098c0.289-11.466,7.603-22.811,16.818-29.252c2.754-1.925,6.399-2.087,9.036-3.847
		c2.018-1.347,4.973-4.198,7.187-5.982c4.791-3.861,11.482-7.827,12.826-14.414c-4.013-2.65-1.095-4.805,0.454-7.207
		c2.442-3.787,1.453-2.603,1.878-6.931c0.38-3.867,0.562-9.728,4.615-11.431c4.667-1.961,10.062,1.165,14.454,3.026
		c2.736,1.159,7.478,0.005,9.602,3.664c2.432-0.889,4.156-0.56,6.467-1.879c1.996-1.139,4.924-5.817,7.396-5.568
		c2.675,0.27,2.673,3.09,5.164,3.482c0.931,0.147,4.367-1.683,5.225-2.15c6.411-3.487,11.341-11.046,19.109-12.352
		c-0.054-0.123-0.081-0.184-0.135-0.307c2.855,0.235,5.538,1.393,8.638-0.966c-0.464,2.852-1.018,5.706-1.656,8.532
		c-0.758,3.357-1.591,6.734-2.475,10.032c-0.951,1.91-1.789,3.824-2.533,5.866c-0.384,1.052-0.737,2.134-1.041,3.258
		c-0.302,1.121-0.556,2.303-0.708,3.564c-0.079,0.658-0.104,1.178-0.158,1.763c-0.054,0.683-0.08,1.025-0.132,1.709
		c-0.104,1.368-0.155,2.052-0.253,3.422c-0.185,2.588-0.271,3.883-0.433,6.479c-2.551,5.148-4.947,10.375-7.172,15.668
		c-1.147,2.729-2.246,5.507-3.284,8.335c-1.038,2.83-2.009,5.715-2.807,8.779c-0.394,1.514-0.741,3.336-0.665,5.273
		c0.076,1.953,0.608,3.842,1.006,5.374c0.393,1.511,0.712,3.109,0.854,4.422c0.133,1.228-0.206,2.494-0.452,4.239
		c-0.121,0.859-0.199,1.858-0.084,2.959c0.114,1.095,0.462,2.277,0.973,3.253c0.018,0.038,0.027,0.057,0.045,0.095
		c0.009,0.019,0.014,0.028,0.023,0.047c0.005,0.009,0.007,0.014,0.012,0.024c0.035,0.061,0.052,0.092,0.087,0.153
		c0.032,0.053,0.048,0.079,0.081,0.132c0.065,0.106,0.097,0.159,0.161,0.265c0.12,0.188,0.188,0.328,0.351,0.555
		c0.362,0.475,0.758,1.009,1.135,1.328c0.757,0.76,1.612,1.258,2.394,1.611c1.565,0.706,2.996,0.923,4.202,1.285
		c0.248,0.074,0.486,0.156,0.714,0.244c-0.529,0.373-1.017,0.734-1.48,1.086c-3.528,1.372-7.269,2.891-10.937,2.134
		c-4.654-0.961-9.091,0.438-13.168,2.187c-3.718,1.595-8.729,0.932-12.504,2.83c-2.175,1.094-4.494,2.668-6.986,3.387
		c-3.456,0.044-6.826-0.413-10.779-1.404c-1.292-0.452-2.582-0.86-3.895-1.046c-0.047-0.007-0.095-0.011-0.142-0.018
		c-6.215-1.209-13.651-0.607-18.987-4.538c-3.211,6.608-11.015,1.381-15.82,1.393c-10.15,0.026-20.105,4.028-30.969,1.872
		c0.546-3.176-0.64-6.846-0.732-9.782c-14.763,1.528-28.849,0.588-40.584-8.267c-4.784-3.61-6.474-5.937-12.839-5.23
		c-7.329,0.815-15.375-0.788-23.143-1.053c1.315,1.914,2.636,3.479,3.986,4.785c-0.982-0.712-1.961-1.452-2.934-2.207
		c-0.258-0.2-0.387-0.3-0.644-0.501c-0.105,0.289-0.157,0.433-0.261,0.723c-0.79,2.188-1.104,4.571-1.418,6.889
		c-0.315,2.323-0.565,4.665-0.963,6.864c-0.198,1.096-0.426,2.18-0.735,3.151c-0.301,0.946-0.664,1.91-1.172,2.59
		c-0.09,0.157-0.188,0.282-0.289,0.398v1.881c0.015-0.011,0.028-0.017,0.043-0.028c0.379-0.296,0.762-0.608,1.03-1.034
		c0.617-0.768,1.044-1.804,1.401-2.817c0.362-1.028,0.631-2.157,0.866-3.282c0.471-2.251,0.784-4.592,1.147-6.856
		c0.312-1.946,0.657-3.89,1.193-5.514c3.969,3.075,7.818,5.841,12.219,7.797c0.535,0.238,1.1,0.414,1.702,0.587
		c0.498,0.143,1.189,0.266,1.717,0.309c1.117,0.09,2.2,0.035,3.24-0.056c1.731-0.151,3.415-0.34,5.052-0.081
		c0,0.004,0.001,0.005,0.001,0.009c0.105,0.549,0.191,1.099,0.328,1.651c0.306,1.101,0.709,2.23,1.284,3.189
		c0.542,1.001,1.213,1.789,1.878,2.494c0.676,0.672,1.37,1.225,2.059,1.671c2.731,1.77,5.453,2.379,8.038,2.829
		c2.582,0.449,5.136,0.579,7.645,0.704c1.492,0.082,2.238,0.122,3.729,0.2c0.606,0.042,1.205,0.105,1.794,0.183
		c-0.067,0.594-0.112,1.219-0.101,1.924c0.007,0.137,0.019,0.283,0.029,0.426c-0.028,0.116-0.051,0.239-0.086,0.347
		c0.041,0.02,0.081,0.042,0.122,0.062c0.07,0.675,0.206,1.411,0.518,2.195c0.438,1.1,1.104,1.999,1.705,2.576
		c1.174,1.126,2.257,1.664,3.263,2.191c0.991,0.519,1.972,0.967,2.863,1.491c3.85,2.266,7.721,4.837,11.673,6.739
		c0.985,0.474,2.078,0.832,3.132,1.104c1.18,0.272,1.77,0.407,2.949,0.675c1.943,0.46,3.926,0.961,5.938,1.274
		c1.007,0.157,2.041,0.284,3.067,0.261c0.15-0.003,0.212,0.008,0.438-0.014c0.14-0.013,0.21-0.02,0.35-0.033
		c0.225-0.019,0.583-0.092,0.841-0.156c0.506-0.127,1.007-0.329,1.449-0.529c0.777-0.351,1.458-0.688,2.079-0.851
		c-0.643,1.437-1.354,2.883-2.021,4.386c-1.1,2.48-2.19,5.127-2.663,8.467c-0.117,0.827-0.169,1.73-0.165,2.657
		c0.025,0.503,0.023,0.89,0.08,1.491c0.029,0.243,0.043,0.365,0.072,0.608c0.053,0.318,0.079,0.478,0.132,0.796
		c0.371,1.948,0.924,3.634,1.446,5.247c0.518,1.599,1.039,3.13,1.348,4.519c0.075,0.339,0.157,0.695,0.203,1.016
		c0.021,0.144,0.067,0.371,0.07,0.448c0.02,0.185,0.056,0.439,0.062,0.568c0.048,0.544,0.07,1.348,0.074,2.07
		c0.007,1.503-0.046,3.104,0.133,4.957c0.09,0.927,0.238,1.936,0.572,3.05c0.052,0.167,0.078,0.251,0.13,0.418
		c0.033,0.091,0.049,0.136,0.082,0.227c0.012,0.029,0.018,0.044,0.029,0.074c0.023,0.059,0.035,0.088,0.058,0.147
		c0.141,0.342,0.384,0.812,0.508,1.019c0.313,0.522,0.61,0.953,0.898,1.336c0.48,0.64,1.036,1.294,1.28,1.62
		c0.049,0.152,0.101,0.311,0.118,0.396c0.069,0.253,0.148,0.573,0.22,0.921c0.283,1.357,0.419,2.846,0.506,4.352
		c0.087,1.511,0.114,3.063,0.203,4.702c0.086,1.596,0.189,3.312,0.526,5.154c0.17,0.93,0.4,1.932,0.802,2.994
		c0.404,1.066,1.09,2.334,2.096,3.266c1.041,0.964,2.043,1.157,2.875,1.247c0.117-0.008,0.231-0.025,0.35-0.031
		c0.069,0.278,0.164,0.549,0.222,0.828c0.207,0.985,0.371,2.002,0.499,3.013c0.256,2.022,0.374,4.082,0.416,6.122
		c0.086,4.191-0.016,8.457,0.199,12.637c0.057,1.1,0.148,2.26,0.382,3.543c0.22,1.211,0.512,2.4,0.822,3.536
		c0.618,2.268,1.301,4.382,1.601,6.256c0.021,0.139,0.032,0.209,0.053,0.348c0.003,0.02,0.016,0.102,0.019,0.121
		c0.008,0.075,0.012,0.113,0.019,0.188c0.028,0.268,0.062,0.562,0.061,0.723c0.022,0.363,0.024,0.851,0.002,1.279
		c-0.046,0.88-0.164,1.783-0.317,2.699c-0.308,1.832-0.754,3.753-0.862,6.018c-0.027,0.568-0.04,0.852-0.067,1.421
		c0.722,0.496,1.084,0.744,1.807,1.238c0.138,0.094,0.283,0.115,0.408,0.178c0.092,0.143,0.217,0.105,0.315,0.293
		c0.1,0.144,0.228,0.243,0.339,0.502c0.121,0.198,0.246,0.433,0.35,0.737c0.457,1.127,0.792,2.561,1.038,3.976
		c0.502,2.886,0.69,5.836,1.192,9.009c0.281,1.779,0.634,3.154,0.96,4.741c0.393,1.842,0.592,2.763,0.996,4.606
		c0.807,3.685,1.22,5.528,2.069,9.215c0.856,3.686,1.294,5.529,2.192,9.216c0.765,3.075,1.543,6.129,2.218,9.145
		s1.256,6.008,1.568,8.886c0.326,3,0.718,5.979,0.873,8.823c0.077,1.413,0.09,2.812-0.051,4.015
		c-0.072,0.612-0.206,1.135-0.405,1.533c-0.136,0.272-0.278,0.531-0.384,0.619c-0.051,0.085-0.11,0.14-0.173,0.163
		c-0.058,0.049-0.115,0.091-0.152,0.074c-0.076,0.049-0.127-0.011-0.283-0.082c-0.17-0.121-0.4-0.327-0.661-0.588
		c-0.521-0.522-1.154-1.222-1.929-1.806c-0.78-0.588-1.793-0.923-2.466-0.734c-0.054,0.008-0.082,0.012-0.136,0.019
		c-0.014,0.002-0.02,0.003-0.034,0.005c-0.054,0.018,0.073-0.033-0.129,0.042c-0.018,0.009-0.026,0.014-0.044,0.024
		c-0.071,0.038-0.106,0.057-0.177,0.095c-0.121,0.072-0.23,0.106-0.36,0.209c-0.251,0.272-0.594,0.579-0.688,0.915
		c-0.591,1.322-0.6,2.909-0.511,4.436c0.09,1.543,0.342,3.129,0.665,4.702c0.324,1.576,0.733,3.165,1.217,4.762
		c0.496,1.635,1.135,3.207,1.832,4.785c1.384,3.131,3.043,6.145,4.452,9.148c1.409,3.001,2.558,6.111,2.943,9.038
		c0.383,2.907,0.721,5.965,0.963,8.877c0.241,2.903,0.377,5.836-0.094,8.391c0.59-2.471,0.578-5.375,0.452-8.243
		c-0.128-2.902-0.334-5.844-0.648-8.815c-0.32-3.028-1.447-6.324-2.824-9.427c-1.381-3.111-2.943-6.164-4.221-9.172
		c-1.291-3.035-2.119-6.03-2.662-9.051c-0.267-1.487-0.454-2.964-0.502-4.347c-0.047-1.366,0.049-2.705,0.48-3.54
		c0.091-0.274,0.227-0.257,0.298-0.445c0.076-0.068,0.23-0.117,0.341-0.177c0.062-0.029,0.092-0.043,0.154-0.073
		c0.006,0,0.009,0,0.015,0c0.03-0.001,0.045-0.001,0.075-0.002c0.4-0.074,0.745,0.061,1.18,0.395
		c0.439,0.336,0.932,0.888,1.538,1.517c0.305,0.317,0.662,0.664,1.109,0.991c0.455,0.31,1.087,0.597,1.547,0.488
		c0.895-0.136,1.338-0.968,1.569-1.394c0.338-0.624,0.524-1.368,0.622-2.084c0.199-1.449,0.199-2.946,0.143-4.435
		c-0.112-2.98-0.469-6.014-0.742-8.95c-0.285-3.068-0.849-6.19-1.495-9.286c-0.647-3.098-1.39-6.191-2.107-9.255
		c-0.841-3.677-1.251-5.516-2.051-9.191c-0.791-3.673-1.176-5.509-1.926-9.179c-0.375-1.835-0.56-2.753-0.924-4.587
		c-0.282-1.473-0.663-3.195-0.837-4.438c-0.397-2.834-0.557-5.931-1.115-9.121c-0.283-1.619-0.626-3.304-1.373-5.201
		c-0.166-0.463-0.404-0.957-0.697-1.464c-0.239-0.495-0.626-0.998-1.018-1.478c-0.224-0.31-0.512-0.555-0.808-0.786
		c0.17-1.271,0.406-2.554,0.646-3.935c0.171-0.984,0.321-2.032,0.381-3.174c0.03-0.579,0.031-1.142-0.002-1.832
		c-0.017-0.36-0.045-0.609-0.071-0.878c-0.008-0.08-0.012-0.121-0.02-0.201c-0.016-0.119-0.024-0.179-0.04-0.298
		c-0.028-0.186-0.042-0.28-0.069-0.466c-0.401-2.49-1.148-4.772-1.706-6.87c-0.28-1.051-0.523-2.072-0.696-3.033
		c-0.162-0.898-0.249-1.902-0.295-2.913c-0.189-4.141-0.074-8.356-0.145-12.501c-0.036-2.143-0.151-4.371-0.432-6.665
		c-0.141-1.151-0.327-2.335-0.569-3.51c-0.244-1.186-0.571-2.396-0.949-3.607c-0.273-0.873-0.409-1.31-0.68-2.184
		c-0.645,0.171-0.968,0.257-1.613,0.428c-0.265,0.07-0.398,0.105-0.663,0.176c-0.215,0.038-0.412,0.023-0.615,0.052
		c-0.357-0.068-0.648-0.13-0.755-0.276c-0.129-0.129-0.314-0.402-0.511-0.899c-0.185-0.517-0.349-1.158-0.471-1.843
		c-0.246-1.39-0.344-2.869-0.422-4.421c-0.075-1.509-0.096-3.091-0.187-4.74c-0.09-1.648-0.226-3.387-0.604-5.248
		c-0.093-0.458-0.212-0.952-0.361-1.5c-0.077-0.285-0.128-0.424-0.193-0.643c-0.019-0.06-0.028-0.09-0.046-0.15
		c-0.027-0.081-0.04-0.121-0.067-0.201c-0.051-0.125-0.077-0.187-0.128-0.312c-0.106-0.24-0.174-0.355-0.231-0.453
		c-0.06-0.102-0.142-0.241-0.182-0.297c-0.753-1.065-1.165-1.496-1.591-2.08c-0.193-0.264-0.369-0.518-0.474-0.706
		c-0.083-0.148-0.033-0.058-0.063-0.101c-0.023-0.059-0.035-0.088-0.058-0.147c0-0.001-0.001-0.001-0.001-0.002
		c-0.021-0.071-0.031-0.107-0.052-0.178c-0.148-0.496-0.252-1.122-0.313-1.794c-0.124-1.353-0.093-2.862-0.117-4.482
		c-0.013-0.838-0.025-1.614-0.125-2.671c-0.029-0.255-0.044-0.382-0.073-0.637c-0.037-0.324-0.08-0.504-0.12-0.763
		c-0.076-0.485-0.184-0.951-0.29-1.41c-0.421-1.823-1.013-3.51-1.534-5.091c-0.517-1.566-1.004-3.093-1.255-4.394
		c-0.031-0.168-0.047-0.252-0.079-0.42c-0.03-0.241-0.045-0.362-0.075-0.603c-0.019-0.359-0.028-0.538-0.047-0.897
		c-0.003-0.639,0.025-1.29,0.11-1.927c0.341-2.562,1.274-5.04,2.303-7.423c1.041-2.409,2.252-4.714,3.215-7.556
		c0.208-0.613,0.312-0.919,0.52-1.53c0.127,0.031,0.255,0.079,0.381,0.147c0.527,0.251,1.045,0.651,1.588,0.977
		c0.54,0.325,1.127,0.631,1.716,0.677c0.301,0.023,0.596-0.022,0.832-0.065c0.27-0.078,0.549-0.176,0.783-0.304
		c0.956-0.524,1.736-1.395,2.484-2.133c0.578-0.569,1.184-1.067,1.832-1.307c0.415,1.582,1.055,2.976,1.813,4.316
		c0.454,0.804,0.991,1.591,1.645,2.284c0.616,0.653,1.535,1.443,2.523,1.335c0.972-0.157,1.423-0.664,1.94-1.065
		c0.487-0.417,0.936-0.837,1.362-1.097c0.469-0.287,0.674-0.297,1.332-0.261c0.251,0.014,0.518,0.055,0.688,0.121
		c0.17,0.066,0.297,0.144,0.579,0.361c2.769,2.134,5.644,2.249,7.706,3.396c0.11,0.068,0.256,0.145,0.329,0.204
		c0.142,0.1,0.335,0.221,0.41,0.295c0.185,0.148,0.441,0.369,0.667,0.594c0.457,0.455,0.927,1.001,1.408,1.595
		c0.947,1.17,2.037,2.675,3.338,3.872c2.541,2.339,5.12,3.916,7.728,5.276c0.638,0.333,1.322,0.669,1.983,0.95
		c0.725,0.309,1.431,0.546,2.179,0.724c1.511,0.362,3.033,0.148,4.21-0.124c0.356-0.079,0.534-0.119,0.89-0.198
		c0.044-0.01,0.066-0.015,0.109-0.024c0.022-0.005,0.033-0.007,0.055-0.012c0.011-0.002,0.016-0.004,0.027-0.006
		c0.108-0.037,0.162-0.056,0.27-0.094c0.02-0.01,0.03-0.015,0.051-0.025c0.01-0.005,0.015-0.008,0.025-0.013
		c0.071-0.047,0.106-0.07,0.176-0.116c0.239-0.172,0.433-0.481,0.455-0.546c0.23-0.465,0.269-0.735,0.316-0.948
		c0.29,0.209,0.435,0.314,0.726,0.523c0.383,0.28,0.574,0.419,0.958,0.698c0.126,0.082,0.189,0.124,0.314,0.206
		c0.081,0.057,0.389,0.216,0.413,0.223c0.189,0.089,0.284,0.134,0.473,0.223c2.519,1.197,5.18,2.387,7.929,2.994
		c1.366,0.301,2.748,0.433,4.055,0.464c1.27,0.03,2.751-0.134,3.934-0.442c1.202-0.313,2.332-0.64,3.385-0.775
		c1.15-0.148,2.08-0.105,3.093,0.321c1.023,0.431,2.401,1.27,3.738,1.828c1.308,0.545,2.874,0.958,4.228,1.038
		c2.786,0.166,5.274-0.696,7.495-1.747c1.117-0.529,2.22-1.11,3.244-1.698c1.036-0.595,1.901-0.963,3.057-1.014
		c1.121-0.049,2.438,0.065,3.744-0.051c0.329-0.029,0.648-0.072,0.984-0.139c0.291-0.058,0.59-0.122,0.925-0.221
		c0.635-0.188,1.279-0.449,1.836-0.937c0.56-0.49,0.925-1.132,1.256-1.652c0.335-0.525,0.683-1.007,1.081-1.447
		c0.792-0.876,1.759-1.523,2.817-2.003c1.058-0.479,2.25-0.902,3.298-1.531c0.696-0.417,1.326-1.024,1.827-1.734
		c0.069,0.009,0.134,0.019,0.203,0.028c-0.188,0.945-0.292,1.907-0.345,2.846c-0.104,1.839-0.022,3.709,0.171,5.566
		c0.19,1.823,0.477,3.776,1.001,5.67c0.533,1.927,1.246,3.694,1.867,5.368c0.62,1.67,1.15,3.263,1.43,4.823
		c0.303,1.683,0.506,3.382,0.701,5.142c0.194,1.752,0.379,3.542,0.647,5.372c0.273,1.867,0.646,3.624,0.759,5.163
		c0.119,1.606,0.083,3.157-0.172,4.662c-0.255,1.506-0.674,3.015-1.113,4.565c-0.438,1.549-0.883,3.148-1.256,4.784
		c-0.373,1.634-0.681,3.375-0.871,5.106c-0.739,6.766-0.402,13.681-1.338,20.468c-0.088,0.583-0.132,0.875-0.219,1.458
		c0.506,0.296,0.759,0.444,1.265,0.738c2.839,1.653,5.381,1.783,7.682,2.165c1.147,0.191,2.292,0.411,3.299,0.754
		c0.933,0.317,2.107,1.05,2.147,1.359c0.424,0.699,0.646,2.259,1.616,4.059c0.267,0.453,0.587,0.918,0.982,1.319
		c0.119,0.118,0.179,0.177,0.298,0.295c0,0,0.291,0.243,0.191,0.159c0.021,0.015,0.031,0.023,0.052,0.038
		c0.041,0.031,0.062,0.046,0.104,0.077c0.154,0.108,0.227,0.185,0.509,0.345c0.231,0.131,0.5,0.283,0.708,0.373
		c0.226,0.087,0.339,0.13,0.564,0.217c0.361,0.118,0.719,0.22,1.049,0.291c1.331,0.285,2.544,0.389,3.659,0.539
		c1.073,0.145,2.279,0.458,2.648,0.829c0.026,0.021,0.039,0.031,0.064,0.051c0.007,0.005,0.011,0.007,0.018,0.011
		c-0.113-0.138-0.007-0.009-0.021-0.026c0.034,0.041,0.052,0.062,0.086,0.103c0.098,0.122,0.266,0.309,0.307,0.378
		c0.026,0.04,0.056,0.089,0.082,0.13c-0.048,0.146-0.198,0.464-0.325,0.875c-0.131,0.425-0.202,1.061-0.113,1.645
		c0.077,0.593,0.268,1.136,0.473,1.58c0.219,0.515,0.426,0.826,0.582,1.129c0.152,0.296,0.419,0.71,0.63,1.049
		c1.698,2.723,3.825,4.81,5.439,6.923c1.643,2.151,2.659,4.325,3.398,6.985c0.715,2.576,1.189,5.242,1.612,7.938
		c0.424,2.697,0.81,5.455,1.415,8.256c0.607,2.809,1.433,5.69,2.507,8.409c2.202,5.576,4.992,10.901,8.317,15.885
		c1.65,2.473,3.604,4.907,5.668,7.074c1.038,1.089,2.072,2.165,3.336,3.147c1.173,0.911,2.348,1.745,3.497,2.562
		c2.272,1.614,4.631,3.213,6.342,5.137c0.877,0.987,1.286,1.858,1.548,3.1c0.256,1.213,0.348,2.633,0.933,4.22
		c1.092,2.958,3.17,5.522,4.982,7.769c1.834,2.276,3.586,4.536,4.563,6.995c1.986,5.002,2.525,10.572,3.681,15.841
		c0.597,2.719,1.458,5.52,2.67,8.255c1.192,2.693,2.789,5.408,4.432,7.867c3.263,4.883,6.914,9.668,9.657,14.893
		c1.336,2.545,2.049,5.158,2.665,7.829c0.611,2.649,1.159,5.335,1.706,8.002c1.132,5.509,2.519,11.122,4.867,16.202
		c3.539,7.655,7.974,15.02,12.179,22.441c0.598,1.263,1.202,2.555,1.894,3.779c1.969,3.484,3.904,7.335,4.089,11.469
		c0.42-1.395,1.042-3.023,0.754-4.701c-0.266-1.55-1.072-3.098-1.106-4.619c-0.038-1.694,0.586-3.213,0.617-4.832
		c0.119-6.15-4.225-14.449-0.943-20.399c1.026,0.964,3.451,1.927,4.606,3.281c-0.633-7.135-4.688-13.25-7.15-19.818
		c8.984-0.648-1.73-27.292-2.37-32.218c-1.014-7.805-7.333-15.177-5.745-23.282c1.168-5.958,8.314-6.069,10.668-11.354
		c0.787,0.234,1.653,0.799,2.398,1.323c-0.3-1.043-0.079-2.085-0.516-3.21c10.489,3.899,13.112,17.369,22.906,22.449
		c0.602-3.925,4.126-7.105,1.427-10.991c-2.561-3.688-7.724-4.095-10.608-7.016c-1.709-1.731-3.074-7.462-4.124-9.938
		c-2.063-4.868-4.078-9.821-6.751-14.419c-7.352,2.5-16.837-22.328-17.111-27.933c-4.259,5.782-0.194,14.304,0.212,20.617
		c0.369,5.741,1.236,12.232-1.142,17.712c-1.026-0.641-2.148-0.709-3.178-1.349c-0.298,1.218-1.793,2.221-2.074,3.448
		c-0.716-0.508-1.583-0.96-2.288-1.465c-7.95,5.701-0.802,23.559-0.416,31.437c-3.031-1.758-4.678-4.987-5.681-8.231
		c-0.583,0.064-0.277,1.248-0.372,1.652c-0.716-0.555-2.066-1.602-2.907-1.911c2.316,8.473,2.303,17.018,3.291,25.55
		c0.276,2.38,1.882,5.055,2.237,7.452c0.223,1.505-0.232,2.7-0.368,4.071c0,0.001,0,0.003,0,0.004
		c-0.189-0.437-0.382-0.884-0.604-1.302c-2.762-5.218-6.322-10.192-9.567-15.195c-1.607-2.478-3.031-4.965-4.151-7.583
		c-1.102-2.577-1.88-5.227-2.419-7.859c-1.091-5.324-1.671-10.798-3.54-15.964c-0.42-8.474-6.983-22.478,0.497-28.307
		c3.554-2.77,10.854-1.131,12.936-5.381c1.878-3.833-1.334-9.087-0.19-13.707c-4.141-0.703-11.716-5.823-8.031-10.772
		c-2.492-2.819-7.116-4.251-5.59-8.867c1.239-3.747,4.091-6.84,4.585-10.711c0.461-3.613-2.004-7.014-2.268-10.768
		c-0.124-1.763,0.219-4.26,0.753-5.844c0.629-1.868-0.069-3.957,0.117-2.727c-0.404,0.047-0.768,0.133-1.099,0.252
		c0.559-3.028,1.812-5.566,5.463-3.731c0.034,3.033,2.913,5.528,3.347,9.104c0.394,3.244,0.11,6.085,1.357,9.321
		c1.445,3.753,3.182,7.697,3.611,11.727c0.467,4.383,0.731,8.908,1.358,13.358c2.618-3.889,5.478-7.536,8.285-11.288
		c1.567-1.434,3.203-2.778,4.849-4.19c0.915-0.535,1.768-1.2,2.615-1.802c0.736-0.523,1.477-1.083,2.243-1.559
		c2.582-0.934,4.391,0.16,7.16,0.774c0.719,0.444,1.571,0.799,2.409,0.797c0.527,0.025,1.029-0.057,1.476-0.196
		c0.089-0.021,0.166-0.058,0.25-0.085c0.052,0.282,0.078,0.423,0.13,0.705c0.162,0.628,0.362,1.252,0.546,1.88
		c0.435,1.237,0.953,2.451,1.547,3.622c1.187,2.34,2.62,4.526,4.003,6.642c0.691,1.058,1.377,2.111,2.014,3.163
		c0.635,1.05,1.207,2.115,1.716,3.181c0.266,0.643,0.399,0.965,0.667,1.608c0.197,0.646,0.297,0.969,0.496,1.615
		c0.05,0.273,0.076,0.409,0.127,0.683c-0.163,2.883-0.244,5.556-1.974,8.393c0.81,0.053,2.921,1.332,3.729,1.439
		c-0.619,3.331-0.188,6.73-1.814,9.609c3.725,0.269,4.724-2.397,8.54,0.243c2.489,1.722,3.254,4.25,3.729,6.787
		c0.965,5.155-0.355,12.838-4.575,16.53c1.953,1.084,4.227,0.628,6.13-0.041c0.214,5.856,6.054,0.781,8.757,3.489
		c3.378,3.384,3.419,10.527,5.583,15.002c3.561,7.363,8.052,14.971,10.624,23.095c1.169-5.144-0.173-10.49,0.047-15.571
		c0.134-3.085,0.967-5.597,0.84-8.768c0.242-0.185,0.697-0.418,1.179-0.634c0.147-0.075,0.301-0.146,0.459-0.22
		c0.263,0.463,0.536,0.921,0.83,1.358c0.681,1.014,1.421,1.983,2.203,2.899c1.564,1.833,3.281,3.57,5.063,5.045
		c3.437,2.845,7.081,5.186,11.065,7.4c0.061,0.388,0.112,0.779,0.209,1.157c0.153,0.598,0.274,1.205,0.474,1.793
		c0.347,1.187,0.792,2.357,1.272,3.507c0.961,2.301,2.104,4.566,3.427,6.735c0.662,1.085,1.357,2.165,2.106,3.206
		c0.747,1.038,1.527,2.074,2.394,3.042c0.415,0.496,0.857,0.974,1.333,1.422c0.45,0.469,0.937,0.903,1.443,1.314
		c0.481,0.439,1.025,0.797,1.556,1.162c0.274,0.206,0.571,0.366,0.872,0.517c-0.173,0.026-0.343,0.059-0.515,0.086
		c-2.501-0.018-4.985,0.213-6.603,0.761c-0.373-0.293-0.762-0.584-1.208-0.873c-0.397-0.257-0.596-0.385-0.992-0.643
		c-0.328,0.278-0.492,0.418-0.82,0.696c-1.986,1.685-4.197,3.133-6.571,4.303c-1.188,0.585-2.45,1.098-3.719,1.523
		c-1.264,0.423-2.618,0.767-3.969,1.055c-1.352,0.289-2.767,0.488-4.164,0.594c-1.405,0.107-2.876,0.124-4.339,0.035
		c-1.508-0.092-2.858-0.23-4.438-0.512c-1.485-0.265-3.344-0.565-4.923-0.591c-1.609-0.027-3.188,0.042-4.7,0.205
		c-1.511,0.163-3.002,0.41-4.437,0.694c-2.881,0.571-5.722,1.286-8.441,2.12c-5.358,1.645-10.665,3.652-15.767,6.041
		c5.588-1.38,11.194-2.732,16.819-3.911c1.406-0.295,2.849-0.553,4.253-0.802c1.409-0.25,2.863-0.474,4.286-0.659
		c1.416-0.184,2.894-0.318,4.336-0.413c1.44-0.094,2.916-0.119,4.352-0.041c1.459,0.08,2.794,0.333,4.434,0.687
		c1.55,0.335,3.339,0.55,4.911,0.656c1.617,0.109,3.228,0.109,4.775,0.006c1.537-0.102,3.091-0.305,4.574-0.607
		s2.933-0.722,4.303-1.204c1.376-0.484,2.723-1.075,4-1.725c1.279-0.652,2.515-1.393,3.663-2.204
		c0.844-0.596,1.64-1.268,2.416-1.949c0.838,0.644,1.769,1.48,2.614,2.289c1.223,1.171,2.469,2.4,3.708,3.62
		c2.485,2.446,4.959,4.97,7.782,7.267c0.706,0.575,1.424,1.141,2.238,1.658c0.382,0.268,0.818,0.513,1.288,0.734
		c0.226,0.11,0.339,0.166,0.565,0.276c0.181,0.093,0.418,0.186,0.554,0.279c0.569,0.315,1.293,0.836,1.938,1.352
		c0.659,0.528,1.314,1.097,1.959,1.677c1.291,1.161,2.599,2.367,3.969,3.502c0.367,0.304,0.748,0.608,1.138,0.9
		c-0.034,0.385-0.242,0.773-0.727,1.158c-0.653-0.287,1.647,3.075,1.003,2.877c0.643,0.945,0.966,1.417,1.615,2.361
		c3.792,7.374-5.389,5.992-9.089,5.192c-0.621,8.052-6.415,10.307-8.819,17.449c6.98,5.217,9.808,14.513,12.023,22.542
		c0.053,1.518,0.063,3.03,0.028,4.535h35.249c-1.786-2.911-3.465-5.857-4.924-8.899c-2.239-4.668-3.922-9.784-5.626-14.77
		c0.245-0.234,0.539-0.526,0.883-0.991c1.615-2.182,2.933-4.767,3.63-7.474c0.805-3.125,1.517-5.614,3.037-8.216
		c1.143-1.956,2.185-3.428,2.174-5.893c0.395,0.299,1.255,0.574,1.64,0.878c0.003-0.506-0.089-0.994-0.223-1.473
		c1.333,0.74,2.638,1.186,3.811,1.637c1.714,0.659,3.437,1.271,5.13,1.937c1.718,0.676,3.332,1.34,4.764,2.146
		c1.414,0.795,2.531,1.778,3.535,3.055c0.971,1.235,1.953,2.828,2.717,4.212c0.031,0.07,0.064,0.166,0.097,0.26
		c-0.039,0.015-0.07,0.027-0.112,0.043c-0.656,1.973,0.903,4.398-0.017,6.097c-0.467,0.863-1.925,0.785-2.383,1.906
		c-0.268,0.655-0.084,2.188,0.06,2.936c0.414,2.145,1.739,4.322,2.225,6.484c0.597,2.656-0.366,5.522,0.661,7.974
		c1.876-5.273,5.316-10.004,5.49-15.771c1.681,0.918,3.209,1.687,4.155,2.543c1.017,1.006,1.909,2.355,2.681,3.836
		c0.774,1.484,1.555,3.28,2.953,5.006c1.418,1.751,3.317,3.144,5.349,4.135c0.772,0.377,1.957,0.865,2.92,1.174
		c0.98,0.315,1.957,0.575,2.902,0.794c3.768,0.876,7.335,1.268,10.378,2.69c0.752,0.352,1.478,0.743,2.138,1.216
		c0.038,0.027,0.056,0.04,0.094,0.066c-0.025,0.013-0.064,0.01-0.083,0.029c0.636,0.746,1.218,1.579,1.669,2.433h4.418
		c-0.505-0.807-1.073-1.678-1.827-2.545c-0.338-0.389-0.812-0.867-1.222-1.225c-0.216-0.177-0.281-0.258-0.62-0.513
		c-0.266-0.195-0.4-0.293-0.666-0.488c-0.887-0.651-1.863-1.217-2.826-1.664c-3.517-1.631-7.509-2.32-11.274-3.152
		c-0.858-0.19-1.721-0.436-2.524-0.704c-0.817-0.273-1.429-0.509-2.372-0.972c-1.4-0.687-2.774-1.695-3.633-2.825
		c-2.23-2.936-3.362-6.652-6.102-9.41c-1.86-1.657-3.773-2.464-5.312-3.335c-0.789-0.446-1.393-0.813-1.692-1.162
		c-0.29-0.339-0.695-1.007-0.894-1.61c-0.234-0.636-0.371-1.376-0.539-2.209c-0.174-0.857-0.328-1.736-0.903-2.956
		c-0.979-1.733-1.919-3.241-3.199-4.881c-1.243-1.593-3.061-3.163-4.903-4.18c-1.825-1.007-3.679-1.727-5.394-2.376
		c-1.744-0.661-3.522-1.279-5.231-1.89c-1.705-0.609-3.37-1.207-4.363-2.031c-1.013-0.841-1.907-2.286-2.72-3.807
		c-0.807-1.51-1.517-3.137-2.53-4.83c-2.036-3.404-5.09-6.237-8.567-8.217c-3.254-1.853-6.761-3.283-10.235-4.619
		c-3.34-1.284-6.775-2.657-9.82-4.383c-3.126-2.042-6.132-4.344-9.338-6.164c-0.794-0.451-1.8-0.892-2.72-1.092
		c-0.974-0.212-1.861-0.131-2.685-0.065c-0.837,0.066-1.667,0.174-2.483,0.294c-0.313-0.187-0.62-0.38-0.899-0.624
		c-0.498-0.401-1-0.787-1.44-1.253c-0.463-0.437-0.903-0.892-1.307-1.382c-0.424-0.47-0.827-0.955-1.204-1.461
		c-0.786-0.984-1.486-2.032-2.15-3.078c-0.666-1.047-1.278-2.131-1.854-3.213c-1.153-2.164-2.114-4.404-2.896-6.643
		c-0.391-1.119-0.725-2.242-1.006-3.355c-0.164-0.559-0.243-1.11-0.359-1.661c-0.115-0.55-0.14-1.083-0.216-1.622
		c-0.036-0.26-0.055-0.39-0.091-0.65c-0.242-0.129-0.364-0.194-0.606-0.323c-1.919-1.024-3.794-2.223-5.589-3.525
		c-1.796-1.303-3.543-2.703-5.181-4.205c-1.637-1.501-3.181-3.102-4.538-4.792c-0.678-0.844-1.304-1.72-1.861-2.602
		c-0.558-0.886-1.01-1.792-1.407-2.69c-0.436-0.987-0.653-1.48-1.085-2.468c-0.587,0.674-0.881,1.011-1.468,1.685
		c-0.149,0.171-0.72,0.458-1.315,0.701c-0.102,0.048-0.21,0.093-0.316,0.139c-1.149-2.763-2.027-5.657-2.949-8.61
		c-0.564-1.804-1.178-3.638-1.904-5.474c-0.362-0.915-0.76-1.831-1.202-2.779c-0.217-0.466-0.43-0.866-0.645-1.303
		c-0.295-0.544-0.443-0.816-0.737-1.361c-1.971-3.401-4.212-6.649-6.401-9.891c-2.05-3.037-4.014-6.111-5.363-9.242
		c-0.002-0.021-0.004-0.038-0.004-0.063c-0.018-0.274-0.059-0.43-0.097-0.599c-0.076-0.335-0.169-0.602-0.258-0.85
		c-0.182-0.504-0.371-0.941-0.565-1.379c-0.381-0.86-0.789-1.68-1.192-2.49c-0.967-1.909-1.446-2.865-2.396-4.778
		c-0.772-1.58-1.545-3.15-2.207-4.712c-0.33-0.779-0.638-1.559-0.89-2.313c-0.248-0.745-0.44-1.506-0.475-2.036
		c-0.072-1.083-0.107-1.624-0.175-2.705c-0.859,0.403-1.288,0.603-2.147,1.005c-1.753,0.818-2.893,2.174-3.981,3.091
		c-0.546,0.461-1.083,0.818-1.623,0.973c-0.208,0.06-0.43,0.075-0.652,0.086c-0.017-0.171-0.026-0.256-0.043-0.427
		c-0.177-0.794-0.265-1.191-0.44-1.984c-0.266-0.774-0.398-1.16-0.662-1.934c-0.279-0.619-0.539-1.257-0.837-1.854
		c-0.595-1.193-1.286-2.354-1.998-3.455c-0.711-1.098-1.448-2.167-2.181-3.21c-1.465-2.084-2.934-4.114-4.126-6.241
		c-0.595-1.062-1.114-2.148-1.558-3.252c-0.228-0.669-0.341-1.004-0.567-1.673c-0.165-0.678-0.246-1.018-0.409-1.696
		c-0.121-0.504-0.181-0.756-0.301-1.259c-0.384,0.192-0.576,0.288-0.96,0.48c-0.339,0.17-0.671,0.387-1.024,0.494
		c-0.346,0.142-0.705,0.223-1.059,0.232c-0.026,0.002-0.052-0.004-0.078-0.003c-0.415-1.163-0.859-2.329-1.27-3.479
		c-0.319-0.891-0.667-1.83-1.013-2.753c-1.157-3.092-2.229-6.257-3.072-9.398c-0.048-0.18-0.092-0.361-0.14-0.542
		c-0.731-4.663-1.178-9.289-1.601-13.989c0.035-0.353,0.052-0.53,0.088-0.883c0.064-0.636,0.096-0.954,0.161-1.589
		c-0.631,0.087-0.947,0.131-1.579,0.217c-0.268,0.037-0.402,0.055-0.67,0.091c-0.224,0.047-0.426-0.024-0.637-0.019
		c-0.218,0.019-0.384-0.115-0.578-0.145c-0.19-0.049-0.335-0.2-0.51-0.273c-0.308-0.256-0.608-0.559-0.861-0.976
		c-0.115-0.223-0.262-0.406-0.356-0.661c-0.1-0.245-0.224-0.467-0.3-0.734c-0.363-1.019-0.587-2.144-0.723-3.27
		c-0.136-1.129-0.185-2.278-0.173-3.407c0.005-0.464,0.007-0.696,0.013-1.159c-0.449-0.151-0.673-0.226-1.122-0.378
		c-2.863-0.967-5.751-1.82-8.667-2.459c-2.224-0.488-4.484-0.907-6.792-1.029c0.2-0.773,0.481-1.58,0.764-2.449
		c0.262-0.804,0.526-1.697,0.656-2.715c0.065-0.511,0.092-1.062,0.063-1.615c-0.029-0.561-0.13-1.139-0.273-1.709
		c-0.148-0.592-0.222-0.888-0.368-1.481c-0.558-0.002-0.838-0.003-1.396-0.006c-3.868-0.042-7.722-0.69-11.432-1.729
		c-3.151-0.883-6.36-1.964-9.582-3.078c0.154-0.427,0.299-0.756,0.446-0.929c1.067-1.257,1.602-1.884,2.673-3.137
		c-1.679,0.026-2.519,0.037-4.2,0.054c-3.118,0.032-6.039,0.646-8.817,1.228c-1.393,0.291-2.776,0.562-4.154,0.733
		c-0.689,0.085-1.386,0.151-2.075,0.183c-0.662,0.031-1.345,0.035-2.109-0.003c-1.367-0.068-2.847-0.258-4.287-0.525
		c-1.451-0.269-2.918-0.599-4.388-0.99c-2.941-0.781-5.943-1.751-8.923-2.711c-1.453-0.468-3.111-0.944-4.612-1.193
		c-1.808-0.309-2.713-0.466-4.523-0.786c-2.998-0.513-5.995-1.032-8.97-1.703c-2.974-0.67-5.993-1.485-8.893-2.811
		c-1.446-0.661-2.897-1.475-4.186-2.573c-0.593-0.505-1.126-1.117-1.591-1.792c-0.013-0.364-0.029-0.729-0.056-1.09
		c-0.151-1.967-0.546-3.792-0.782-5.459c-0.242-1.707-0.424-3.455-0.618-5.234c-0.192-1.769-0.407-3.612-0.737-5.463
		c-0.353-1.981-0.992-3.882-1.64-5.635c-0.647-1.754-1.299-3.407-1.73-4.984c-0.439-1.607-0.674-3.227-0.85-4.928
		c-0.173-1.67-0.231-3.339-0.146-4.911c0.084-1.554,0.344-3.073,0.852-4.128c0.494-1.024,0.741-1.535,1.238-2.556
		c-1.068-0.161-1.603-0.243-2.671-0.408c-1.938-0.299-3.697-0.5-5.51-0.84c-1.789-0.335-3.598-0.744-5.234-1.397
		c-0.782-0.312-1.626-0.782-2.052-1.152c-0.042-0.087-0.034,0.065-0.181-0.14c-0.064-0.101-0.096-0.151-0.161-0.252
		c-0.01-0.122-0.044-0.454-0.018-0.747c0.033-0.89,0.184-1.912,0.34-2.917c0.158-1.018,0.355-2.05,0.5-3.161
		c0.039-0.3,0.072-0.542,0.102-0.923c0.013-0.226,0.019-0.339,0.032-0.564c-0.002-0.206-0.002-0.31-0.004-0.516
		c-0.034-0.591-0.076-1.185-0.136-1.765c-0.143-1.312-0.213-1.968-0.35-3.279c-0.086-1.016-0.096-1.968-0.029-2.926
		c0.034-0.479,0.088-0.959,0.152-1.405c0.102-0.61,0.153-0.914,0.256-1.523c0.497-3.95,0.76-8.016,2.197-11.768
		c0.249-0.535,0.374-0.802,0.624-1.337c-0.446-0.466-0.669-0.7-1.115-1.167c-1.417-1.487-3.164-2.306-4.586-2.716
		c-1.453-0.419-2.792-0.662-3.831-1.144c-0.515-0.239-0.979-0.507-1.337-0.881c-0.223-0.178-0.289-0.338-0.446-0.477
		c-0.081-0.096-0.208-0.329-0.309-0.487c-0.065-0.105-0.097-0.158-0.161-0.264c-0.01-0.016-0.015-0.024-0.024-0.04
		c-0.002-0.004-0.002-0.005-0.004-0.009c-0.008-0.019-0.013-0.028-0.021-0.047c-0.515-0.98-0.58-1.956-0.399-3.363
		c0.172-1.339,0.663-3.122,0.462-5.183c-0.189-1.941-0.575-3.632-1.02-5.332c-0.436-1.667-0.837-3.063-0.869-4.363
		c-0.073-1.318,0.162-2.624,0.526-4.058c0.727-2.859,1.661-5.692,2.663-8.469c1.003-2.78,2.071-5.528,3.192-8.234
		c2.223-5.37,4.62-10.677,7.178-15.9c0.065-0.133,0.097-0.199,0.162-0.332c0.009-0.154,0.013-0.231,0.022-0.384
		c0.159-2.742,0.245-4.111,0.43-6.845c0.092-1.367,0.14-2.049,0.239-3.414c0.049-0.682,0.075-1.023,0.126-1.705
		c0.048-0.549,0.075-1.183,0.14-1.64c0.218-1.979,0.832-4.034,1.529-5.99c0.698-1.959,1.544-3.909,2.437-5.711
		c0.034-0.07,0.052-0.104,0.086-0.174c0.017-0.063,0.025-0.094,0.041-0.157c0.911-3.453,1.743-6.89,2.513-10.369
		c0.769-3.477,1.47-6.995,1.978-10.62c0.093-0.661,0.14-0.992,0.234-1.652c-0.57-0.149-0.855-0.223-1.424-0.373
		c-3.104-0.815-6.191-2.227-9.318-3.689c-1.565-0.732-3.146-1.484-4.753-2.177c-1.627-0.701-3.205-1.344-4.988-1.876
		c-1.574-0.391-3.018-0.298-4.331-0.25c-1.967-1.066-3.933-2.098-5.897-3.053c-0.792-0.929-1.689-1.902-2.847-2.638
		c-1.375-0.873-2.781-2.116-4.404-3.167c-0.811-0.525-1.692-0.998-2.633-1.307c-0.474-0.156-0.946-0.259-1.481-0.328
		c-0.284-0.036-0.471-0.036-0.678-0.041c-0.15,0-0.224,0-0.374,0c-0.135,0.008-0.202,0.012-0.337,0.02
		c-1.719,0.157-3.318,0.447-4.936,0.785c-0.814,0.17-1.621,0.339-2.454,0.594c-0.787,0.241-1.341,0.366-2.056,0.334
		c-0.678-0.031-1.526-0.246-2.503-0.255c-0.988-0.009-1.883,0.242-2.694,0.512c-1.635,0.545-3.119,1.331-4.581,1.895
		c-1.487,0.573-2.851,0.927-4.263,0.64c-1.423-0.29-2.968-1.058-4.601-1.789c-1.313-0.588-2.751-1.103-4.226-1.259
		c-0.024-0.136-0.038-0.272-0.071-0.409c-0.201-0.634-0.35-1.289-0.707-1.85c-0.6-1.217-1.526-1.98-2.37-2.532
		c-1.737-1.009-3.407-1.275-4.995-1.491c-1.584-0.216-3.171-0.304-4.633-0.538c-1.33-0.213-2.898-0.978-4.408-1.586
		c-3.64-1.585-5.459-2.389-9.092-4.02c-1.524-0.666-3.08-1.305-4.595-1.926c-1.518-0.622-3.162-1.101-4.48-1.807
		c-2.782-1.49-5.218-4.504-8.146-6.833c-1.513-1.204-3.137-1.974-4.78-2.365c-1.627-0.388-3.227-0.465-4.783-0.53
		c-1.555-0.065-3.095-0.104-4.591-0.33c-0.364-0.055-0.724-0.123-1.078-0.206c0.616-0.71,1.095-1.66,1.425-2.683
		c0.49-1.517,0.851-3.157,1.413-4.581c1.139-2.889,2.768-5.353,4.163-7.993c2.981-5.639,5.262-11.319,6.968-17.548
		c0.044-0.195,0.065-0.293,0.109-0.489c-0.1-0.126-0.15-0.189-0.25-0.315c-0.118-0.149-0.116-1.021,0.005-1.735
		c0.127-0.75,0.304-1.538,0.501-2.316c0.394-1.561,0.854-3.133,1.225-4.775c0.371-1.641,0.741-3.373,0.648-5.371
		c-0.046-0.985-0.257-2.132-0.791-3.052c-0.171-0.295-0.377-0.554-0.586-0.79c0.635-0.707,1.186-1.514,1.668-2.349
		c0.764-1.325,1.398-2.751,1.983-4.183c0.275-0.673,0.413-1.009,0.689-1.68c-0.566-0.09-0.849-0.135-1.414-0.226
		c-0.659-0.106-1.342-0.679-2.175-1.274c0.46-1.048,0.782-2.228,0.924-3.393c0.211-1.731,0.191-3.406,0.22-4.936
		c0.029-1.532,0.128-2.962,0.451-4.186s0.903-2.262,1.633-3.137c0.689-0.749,1.72-1.407,2.721-2.08
		c1.018-0.685,2.134-1.377,3.173-2.72c0.524-0.677,0.927-1.591,1.191-2.397c0.265-0.809,0.464-1.596,0.648-2.344
		c0.184-0.749,0.359-1.465,0.545-2.122c0.115-0.404,0.144-0.44,0.167-0.456c0.076-0.111,0.253-0.297,0.473-0.503
		c0.425-0.437,1.103-0.918,1.62-2.159c0.066-0.197,0.093-0.233,0.18-0.57c0.025-0.111,0.038-0.166,0.064-0.277
		c0.051-0.264,0.115-0.698,0.123-0.906c0.045-0.522,0.042-0.978,0.034-1.427c-0.033-1.721-0.284-3.372-0.304-4.606
		c0-0.035,0-0.053,0-0.088c0.005-0.015,0.011-0.034,0.022-0.053c0.057-0.135,0.234-0.411,0.459-0.833
		c0.219-0.412,0.49-1.033,0.583-1.756c0.05-0.388,0.07-0.642,0.042-1.128c0.009-0.047-0.077-0.739-0.17-1.016
		c-0.382-1.273-0.872-1.855-1.118-2.378c-0.131-0.249-0.212-0.448-0.247-0.582c-0.035-0.137-0.02-0.119-0.051-0.632
		c-0.026-0.417-0.026-0.75-0.011-1.023c-0.003-0.283,0.029-0.624,0.058-0.96c0.058-0.668,0.169-1.351,0.304-2.036
		c0.271-1.373,0.673-2.784,1.096-4.226c0.843-2.878,1.721-5.992,2.178-9.271c0.082-0.586,0.123-0.879,0.206-1.465
		c-0.399-0.247-0.598-0.37-0.996-0.617c-1.45-0.9-2.828-1.992-4.143-3.237c-1.316-1.246-2.568-2.663-3.925-4.121
		c-1.326-1.424-2.98-2.981-4.911-3.608c-1.744-0.566-3.378-0.802-4.606-1.617c-1.286-0.853-2.786-2.166-4.103-3.372
		c-0.672-0.616-1.338-1.265-1.936-1.927c-0.294-0.325-0.592-0.673-0.802-0.978c-0.048-0.054-0.251-0.39-0.369-0.572
		c-0.112-0.208-0.168-0.312-0.28-0.52c-0.39-0.768-0.664-1.619-0.983-2.727c-0.315-1.095-0.76-2.448-1.387-3.561
		c-1.254-2.225-2.936-3.638-4.469-4.718c-1.554-1.095-3.088-1.971-4.433-3.006c-0.668-0.514-1.304-1.091-1.821-1.7
		c-0.615-0.726-1.121-1.446-1.714-2.301c-1.142-1.649-2.426-3.574-4.068-4.884c-1.816-1.449-3.542-1.694-5.054-2.369
		c-0.718-0.273-1.514-0.729-1.692-0.989c-0.413-0.604-0.784-1.404-1.124-2.356c-0.674-1.888-1.154-4.274-2.02-6.633
		c-0.431-1.175-0.973-2.338-1.641-3.336c-0.63-0.94-1.182-1.722-1.874-2.585c-0.667-0.833-1.462-1.671-2.417-2.25
		c-0.57-0.345-1.246-0.546-1.937-0.569c-0.083-0.477-0.17-0.955-0.279-1.416c-0.239-1.016-0.543-2.012-0.887-2.95
		c-0.686-1.869-1.583-3.549-2.602-4.993c-1.773-2.513-3.957-4.351-6.372-5.391c0.122-1.824,0.206-3.63,0.293-5.353
		c0.057-1.123,0.128-2.222,0.232-3.306c0.107-1.11,0.242-2.096,0.424-3.267c0.343-2.206,0.744-4.348,1.316-6.362
		c0.287-1.012,0.624-2.008,0.996-3c0.388-1.035,0.752-1.879,1.241-3.067c0.201-0.532,0.404-1.008,0.606-1.586
		c0.197-0.623,0.413-1.259,0.582-1.874c0.329-1.199,0.583-2.437,0.783-3.656c0.399-2.434,0.558-4.836,0.675-7.154
		c0.118-2.32,0.185-4.582,0.365-6.791c0.09-1.103,0.206-2.202,0.363-3.271c0.157-1.065,0.375-2.12,0.627-3.149
		c0.142-0.58,0.213-0.871,0.356-1.451c-0.345-0.17-0.518-0.254-0.863-0.424c-2.06-1.014-4.175-1.54-6.239-2.083
		c-0.221-1.486,0.645-2.382,0.787-4.205c0.044-0.565,0.074-1.039,0.097-1.472c0.353-0.903,0.717-1.848,1.034-2.879
		c0.17-0.553,0.255-0.829,0.425-1.381c-0.356-0.123-0.534-0.185-0.889-0.308c-1.218-0.422-2.174-1.502-2.867-3.076
		C51.009,1.649,50.738,0.842,50.48,0H3.01V102.974z M63.493,309.286c-0.95-0.528-1.87-1.209-2.761-1.993
		c-0.234-0.238-0.351-0.356-0.585-0.594c1.519,1.23,3.076,2.333,4.723,3.282C64.408,309.769,63.946,309.537,63.493,309.286z
		 M104.217,460.62c0.005-0.016,0.008-0.024,0.013-0.04c0.105,0.038,0.316,0.114,0.316,0.114S104.327,460.636,104.217,460.62z
		 M108.435,461.698c-0.265,0.081-0.476,0.142-0.709,0.15c-0.478,0.016-1.008-0.161-1.537-0.4c-0.526-0.237-1.631-0.749-1.631-0.749
		s2.42,0.827,3.93,0.974C108.47,461.681,108.453,461.69,108.435,461.698z M346.257,765.791c0.15,0.294,0.288,0.599,0.433,0.899
		c-2.393-4.334-4.769-8.67-7.07-13.054C341.869,757.671,344.18,761.72,346.257,765.791z M484.474,742.204
		c0.327,0.588,0.643,1.244,0.967,1.91c-0.443-0.65-0.797-1.308-1.011-1.982C484.443,742.157,484.46,742.18,484.474,742.204z
		 M455.395,732.853c1.019-1.989-0.375-4.296-0.341-6.293c1.885,0.707,3.683,0.461,5.504,0.572c2.381,1.235,4.773,2.259,7.162,3.302
		c3.341,1.458,6.711,2.861,9.67,4.671c2.695,1.648,5.003,3.819,6.618,6.348c-0.813,2.044,2.953,6.725,3.029,9.386
		c0.088,3.135-1.119,4.935-4.506,4.803c0.731,4.672-0.863,7.363-5.825,4.35c-1.172-0.712-2.499-1.44-3.623-2.266
		c-2.994-4.862-6.072-9.276-10.794-12.601c0.468,0.241,0.948,0.445,1.441,0.584c-1.38-0.584-2.498-1.605-3.562-2.65
		c-0.307-0.585-0.929-1.143-1.588-1.643c-0.833-0.893-1.657-1.799-2.509-2.698c-0.607-0.641-1.226-1.29-1.887-1.91
		c-0.672-0.631-1.324-1.222-2.237-1.828c-0.11-0.078-0.205-0.133-0.297-0.185C451.854,732.743,453.043,731.502,455.395,732.853z
		 M352.296,592.756c-0.087,0.003-0.175-0.012-0.262-0.018c-0.09-0.407-0.195-0.822-0.312-1.244
		C351.914,591.915,352.108,592.334,352.296,592.756z M230.84,523.649c0.441-1.554,0.898-3.171,1.202-4.94
		c0.223-1.3,0.318-2.696,0.29-4.1c0.396,0.629,0.849,1.225,1.353,1.731c1.283,1.288,2.774,2.225,4.236,3.022
		c2.928,1.596,6.005,2.645,9.023,3.574c3.024,0.931,6.051,1.637,9.057,2.307c1.793,0.416,2.69,0.62,4.482,1.024
		c1.503,0.343,2.851,0.799,4.368,1.339c2.941,1.048,5.945,2.16,8.98,3.075c1.517,0.457,3.052,0.879,4.595,1.194
		c1.472,0.3,2.914,0.523,4.423,0.644c-2.918,1.167-5.768,2.714-6.299,5.083c7.691-2.017,15.456,0.897,23.231,0.105
		c-3.845,4.908-9.749,7.65-13.149,12.95c2.157,0.869,4.348-0.229,6.489,0.479c0.807,0.267,2.637,1.67,3.108,1.796
		c1.563,0.418,4.552,1.149,7.019,1.016c-1.833,6.247-10.332,9.7-16.156,10.674c-2.011-2.196-1.211-4.808-0.4-7.103
		c-3.032,0.571-3.711,5.048-5.737,7.162c-1.701,1.776-3.856,2.722-6.102,3.841c-2.91,1.449-4.868,1.919-6.055,5.312
		c-0.785,2.242,0.179,4.377-2.008,5.364c-1.387-3.224-4.045-5.183-5.426-8.66c-1.186-2.986-0.69-5.073-3.76-7.224
		c-0.414,2.815-2.151,3.734-3.177,4.916c-0.021-0.189-0.059-0.38-0.118-0.564c-0.224-0.763-0.547-1.226-0.893-1.709
		c-0.16-0.224-0.241-0.3-0.365-0.458c-0.034-0.041-0.051-0.062-0.085-0.104c-0.044-0.05-0.065-0.076-0.109-0.126
		c-0.031-0.031-0.047-0.047-0.078-0.078c-0.128-0.122-0.192-0.183-0.32-0.306c-0.871-0.761-1.697-1.084-2.394-1.293
		c-0.691-0.207-1.37-0.331-1.984-0.42c-1.241-0.181-2.415-0.295-3.466-0.527c-0.262-0.058-0.508-0.133-0.742-0.209
		c-0.131-0.051-0.197-0.076-0.328-0.126c-0.087-0.04-0.108-0.062-0.169-0.078c-0.015,0.027-0.209-0.134-0.333-0.223
		c-0.032-0.024-0.049-0.036-0.081-0.061c-0.024-0.025-0.036-0.038-0.06-0.063c-0.108-0.103-0.201-0.248-0.308-0.419
		c-0.478-0.767-0.632-2.102-1.567-3.995c-0.134-0.244-0.272-0.476-0.473-0.746c-0.224-0.302-0.526-0.622-0.6-0.678
		c-0.467-0.442-0.731-0.571-1.111-0.863c-0.707-0.437-1.419-0.786-2.094-1.027c-1.358-0.486-2.629-0.72-3.837-0.92
		c-1.876-0.31-3.713-0.556-5.3-1.182c0.532-6.338,0.571-12.804,1.188-19.026c0.158-1.597,0.457-3.178,0.814-4.74
		C229.972,526.73,230.399,525.204,230.84,523.649z M172.196,480.87c-0.793-0.028-1.595-0.12-2.394-0.252
		c1.567,0.073,3.076,0.099,4.444,0.168C173.59,480.87,172.932,480.896,172.196,480.87z M211.556,433.486
		c-0.514,1.574-0.812,3.221-1.031,4.813c-0.297,2.163-0.462,4.28-0.792,6.212c-0.106,0.63-0.158,0.945-0.263,1.575
		c-0.086,0.596-0.149,1.173-0.19,1.763c-0.082,1.18-0.063,2.421,0.041,3.61c0.142,1.338,0.215,2.007,0.363,3.345
		c0.055,0.525,0.092,1.032,0.122,1.54c-0.003-0.081-0.001,0.212-0.002,0.3c-0.008,0.095-0.013,0.143-0.021,0.238
		c-0.03,0.263-0.045,0.395-0.074,0.659c-0.132,0.971-0.319,2.006-0.481,3.062c-0.163,1.069-0.332,2.136-0.382,3.41
		c0.003,0.664-0.08,1.28,0.288,2.517c0.035,0.097,0.053,0.145,0.088,0.242c0.019,0.048,0.028,0.072,0.047,0.119
		c0.01,0.024,0.014,0.035,0.024,0.059c-0.125-0.227,0.185,0.344,0.155,0.288c0.003,0.004,0.004,0.007,0.007,0.011
		c0.046,0.072,0.069,0.107,0.115,0.179c0.053,0.083,0.08,0.125,0.133,0.208c-3.955,0.007-7.842,1.153-11.642,1.543
		c-13.765,1.412-29.966-6.266-41.554-13.863c9.438,0.129,15.88-4.584,23.788-9.146c4.204-0.065,8.333-0.988,12.328-2.244
		c-0.513,4.664,0.86,10.86-2.944,14.465c2.598-1.844,4.568-2.88,6.609-5.119c1.85-2.029,4.761-3.842,6.556-6.281
		c3.031-4.12,4.585-9.478,8.109-13.434c-0.31,0.046-0.611,0.104-0.909,0.169c0.25-0.202,0.496-0.417,0.739-0.641
		C211.055,433.206,211.313,433.338,211.556,433.486z M182.449,306.063c0.109-0.005,0.163-0.008,0.272-0.014
		c-0.035-0.006,0.167,0.003,0.238,0.004c0.201,0.004,0.429,0.006,0.549,0.039c0.253,0.032,0.58,0.107,0.89,0.21
		c-0.648-0.116-1.303-0.192-1.962-0.239C182.441,306.064,182.445,306.063,182.449,306.063z M170.143,307.422
		c-0.504,0.093-1.009,0.185-1.516,0.273C169.154,307.542,169.662,307.437,170.143,307.422z M70.654,251.775
		c0.029-0.05,0.066-0.098,0.094-0.148c0.198-0.321,0.359-0.638,0.494-0.937c-0.165,1.42-0.673,2.921-1.107,4.33
		c-0.063,0.206-0.129,0.412-0.195,0.617C70.149,254.384,70.39,253.093,70.654,251.775z M75.327,272.928
		c1.003,0.4,1.994,0.792,2.953,1.285c0.18,0.09,0.269,0.135,0.449,0.224C77.504,273.966,76.362,273.462,75.327,272.928z
		 M103.754,244.816c-1.509,6.042-3.581,11.608-6.274,17.146c-1.301,2.676-2.895,5.273-3.938,8.312
		c-0.526,1.531-0.826,3.197-1.255,4.729c-0.294,1.052-0.735,2.036-1.332,2.786c-1.091-0.262-2.147-0.665-3.291-1.227
		c-3.627-1.68-5.439-2.532-9.059-4.256c-1.545-0.754-3.096-1.236-4.594-1.858c-1.474-0.611-2.985-1.349-3.741-2.868
		c-0.373-0.751-0.573-1.73-0.628-2.758c-0.081-1.021-0.028-2.037,0.052-3.165c0.138-1.958,0.844-3.926,1.439-5.902
		c0.3-0.996,0.607-2.017,0.852-3.098c0.122-0.538,0.226-1.105,0.288-1.704c0.043-0.277,0.043-0.649,0.056-0.977
		c-0.014-0.349-0.001-0.483-0.068-0.935c0-0.001,0-0.002-0.001-0.003c0.614,1.031,0.868,2.133,0.548,3.324
		c4.925,2.35,9.959-0.007,14.883,0.667c4.069,0.557,8.319-0.824,12.432,0.817c-2.054-3.243-8.44-6.606-5.466-10.641
		c1.33-1.805,6.852-1.522,9.202-2.659c-0.095,0.478-0.189,0.97-0.249,1.478c-0.055,0.456-0.107,0.92-0.086,1.455
		C103.538,243.867,103.572,244.34,103.754,244.816z M105.169,234.687c-0.317,1.578-0.722,3.155-1.085,4.786
		c-0.066,0.299-0.129,0.604-0.191,0.909c-0.973-2.247-2.856-3.562-4.068-5.558c2.99-1.429,1.327-5.33,3.606-7.608
		c-0.009-0.06-0.02-0.113-0.03-0.171c0.251,0.113,0.376,0.169,0.627,0.282c0.486,0.219,0.89,0.542,1.155,0.984
		c0.265,0.442,0.415,1.059,0.461,1.764C105.737,231.498,105.482,233.123,105.169,234.687z M120.486,177.988
		c0.003,0.027,0.001,0.073-0.005,0.106c-0.006,0.027-0.003,0.017-0.005,0.026C120.48,178.067,120.482,178.041,120.486,177.988z"/>
	<path fill="#3EADFF" d="M287.378,781.297c-5.498-7.587-12.658-15.497-21.445-19.364c4.15,4.716,7.433,10.145,10.688,15.478
		c3.188,5.223,2.301,6.4,1.035,10.276c-10.482-6.636-21.679-12.036-32.427-18.15c-4.056-2.307-8.366-4.231-12.784-5.764
		c3.255,6.531,6.791,13.032,9.428,19.842c-5.713-4.074-12.865-5.236-18.347-9.698c-2.041-1.661-19.626-14.2-16.363-3.695
		c-5.228-2.858-11.083-4.958-16.008-7.805c-3.734-2.159-7.334-5.766-11.589-7.082c-2.527-0.782-4.726-0.357-6.628,0.508
		c-2.042-0.573-6.177-2.146-6.177-2.146s3.972,1.639,5.938,2.254c-0.345,0.166-0.686,0.342-1.02,0.536
		c6.75,0.678,12.663,3.643,17.684,8.132c2.057,2.086,4.016,4.401,5.929,6.664c2.578,3.049,5.175,6.142,7.975,9.022
		c-1.957-0.766-3.96-2.477-5.535-4.414c-4.243,5.349-11.463,3.252-16.62,1.625c-0.834-0.263-9.848-4.19-6.054,2.021
		c3.092,5.062,2.905,4.81-2.334,6.35c4.119,4.187,7.788,8.576,9.641,14.115h32.571c0.511-1.752,0.786-3.927,1.4-6.418
		c-3.878-1.748-7.265-4.469-9.89-7.811c-0.376-0.296-0.564-0.445-0.94-0.741c-0.051-1.403-0.125-2.885,0.174-4.165
		c2.791-0.274,6.282,1.079,9.472,3.069c3.857,2.405,7.73,5.289,11.584,7.454c5.851,3.287,12.726,5.542,19.072,8.613h58.695
		C298.116,794.58,292.51,788.378,287.378,781.297z M196.088,771.227c0.81,0.854,1.637,1.732,2.503,2.662
		c0.676,0.726,1.638,1.965,2.584,3.088C199.453,775.109,197.773,773.164,196.088,771.227z M204.05,779.956
		c-0.327-0.317-0.643-0.653-0.965-0.98c0.066,0.054,0.139,0.124,0.202,0.168c0.435,0.31,0.792,0.549,1.103,0.745
		C204.279,779.916,204.159,779.925,204.05,779.956z"/>
	<path fill="#3EADFF" d="M493.813,803.469c1.325,0.789,2.515,1.862,3.335,3.055c2.791-0.485,2.54-4.172,2.221-6.523h-7.732
		C492.348,801.16,493.072,802.316,493.813,803.469z"/>
	<path fill="#3EADFF" d="M36.559-10.431c0.014-0.008,0.028-0.018,0.042-0.026c-0.057-0.01-0.115-0.02-0.172-0.03
		C36.472-10.468,36.516-10.45,36.559-10.431z"/>
	<path fill="#3EADFF" d="M44.981-8.716c-0.618-0.29-1.352-0.543-2.004-0.735c-0.341-0.1-0.671-0.169-0.997-0.231
		C42.7-9.064,43.37-8.293,44-7.473c0.593,0.273,1.098,0.545,1.469,0.821c0.663,0.494,1.192,0.999,1.641,1.527
		c-0.239-0.792-0.479-1.582-0.743-2.191C46.055-8.035,45.629-8.412,44.981-8.716z"/>
	<path fill="#3EADFF" d="M36.559-10.431c-0.043-0.019-0.087-0.037-0.13-0.056c0.057,0.01,0.115,0.02,0.172,0.03
		C36.587-10.449,36.573-10.439,36.559-10.431z M45.469-6.651C45.098-6.928,44.594-7.199,44-7.473c-0.63-0.82-1.3-1.591-2.02-2.209
		c0.326,0.062,0.656,0.13,0.997,0.231c0.652,0.192,1.385,0.445,2.004,0.735c0.648,0.304,1.075,0.681,1.387,1.4
		c0.264,0.609,0.504,1.399,0.743,2.191C46.661-5.652,46.132-6.157,45.469-6.651z"/>
</g>
</svg>
