<?xml version="1.0" encoding="utf-8"?>
<!-- Generator: Adobe Illustrator 17.0.0, SVG Export Plug-In . SVG Version: 6.00 Build 0)  -->
<!DOCTYPE svg PUBLIC "-//W3C//DTD SVG 1.1//EN" "http://www.w3.org/Graphics/SVG/1.1/DTD/svg11.dtd">
<svg version="1.1" id="Layer_1" xmlns="http://www.w3.org/2000/svg" xmlns:xlink="http://www.w3.org/1999/xlink" x="0px" y="0px"
	 width="560px" height="800px" viewBox="0 0 560 800" enable-background="new 0 0 560 800" xml:space="preserve">
<g>
	<path fill="none" d="M57.658,799.533c-1.1-0.212-2.117-0.201-3.479-0.156c-1.316,0.044-2.893,0.13-4.496-0.095
		c-0.196-0.028-0.295-0.041-0.491-0.069c-0.05,0.258-0.091,0.525-0.135,0.787h10.284C58.758,799.799,58.181,799.634,57.658,799.533z
		"/>
	<path fill="none" d="M160.676,780.613c-0.278-4.732,4.438-12.708-2.249-15.504c3.576-5.474,2.571-12.765,3.418-18.953
		c0.004-0.047,0.006-0.094,0.01-0.141c0.111-1.304,0.44-2.597,0.814-3.895c0.757-3.949,1.02-7.294,0.785-10.695
		c-0.845-2.415-2.525-4.611-3.723-6.693c-2.079-3.613-1.703-8.585-3.48-12.159c-1.949-3.919-3.573-8.211-2.884-12.849
		c0.543-3.655-1.161-7.255-2.708-10.654c-0.372-0.436-0.755-0.897-1.152-1.397c-0.074,0.23-0.142,0.469-0.201,0.717
		c-0.29,1.208-0.424,2.63-1.033,4.21c-0.304,0.79-0.747,1.659-1.454,2.447c-0.293,0.389-0.797,0.809-1.245,1.192
		c-0.215,0.173-0.349,0.248-0.528,0.376c-0.101,0.07-0.151,0.104-0.252,0.174c-0.05,0.035-0.076,0.052-0.126,0.087
		c-0.058,0.037-0.088,0.056-0.146,0.094c-0.009,0.005-0.014,0.008-0.023,0.013c-0.018,0.01-0.027,0.015-0.045,0.025
		c-0.036,0.02-0.054,0.03-0.091,0.05c-0.933,0.557-2.078,0.966-3.15,1.139c-1.078,0.174-2.067,0.153-2.919,0.081
		c-1.732-0.146-2.998-0.409-4.2-0.211c-1.286,0.213-2.842,0.616-4.308,1.086c-1.487,0.477-3.318,1.105-5.238,1.289
		c-1.904,0.182-3.717-0.059-5.231-0.363c-3.062-0.616-5.957-1.413-8.802-2.278c-2.843-0.865-5.64-1.793-8.391-2.772
		c-5.336-1.899-10.618-3.969-15.83-6.196c-2.566-0.015-3.847-0.029-6.406-0.067c-1.355-0.02-2.032-0.032-3.385-0.059
		c-0.677-0.013-1.015-0.021-1.691-0.036c-0.579-0.02-1.093-0.016-1.745-0.058c-1.25-0.08-2.429-0.264-3.55-0.5
		c-1.124-0.237-2.209-0.525-3.267-0.845c-2.053-0.62-3.984-1.34-5.918-2.17c-3.297-0.688-6.67-1.322-10.018-1.882
		c-2.819-0.471-5.661-0.859-8.495-1.158c2.495,2.923,1.503,5.63,1.43,8.455c0.118-0.06,0.177-0.09,0.295-0.15
		c1.717,7.579,9.435,12.016,13.225,18.137c0.507,0.819,2.5,4.103,2.407,5.027c-0.249,2.475-3.027,2.629-3.144,5.279
		c-0.109,2.449,4.661,5.073,5.894,6.976c1.427,2.203,1.199,3.919,2.209,6.266c-3.486,2.295-2.087,6.901-3.077,9.661
		c-1.589,4.429-4.369,9.917-2.179,14.404c1.902,3.898,7.685,3.752,11.515,3.912c4.286,0.179,3.065-0.729,6.931,1.466
		c2.452,1.392,4.736,4.148,7.124,0.048c6.563,0.958,10.84,7.329,14.908,11.834c1.88,2.082,4.852,4.835,6.29,6.748
		c1.88,2.5,2.242,6.081,4.29,8.687c3.572,4.543,8.431,8.492,13.861,11.195h40.237C163.076,793.412,161.058,787.099,160.676,780.613z
		 M102.954,737.065c-2.641-3.491-6.203-5.788-9.81-7.732c-4.414-2.379-10.253-1.522-14.864-3.49c-3.026-1.292-3.955-5.9-4.077-8.575
		c-0.232-5.084-3.107-9.596-6.5-12.888c-2.431-2.358-11.028-5.926-6.948-10.124c3.751,1.231,7.38,3.106,10.858,4.913
		c3.355,1.743,5.084,4.42,6.281,7.413c1.372,3.431,3.723,6.509,6.443,8.959c2,1.802,4.216,4.485,6.728,5.997
		c2.309,1.39,5.607,0.989,7.464,2.597c2.176,1.886,0.534,3.86,1.151,6.178C100.249,732.455,101.622,734.804,102.954,737.065
		c0.787,1.087,1.47,2.293,2.049,3.674C104.436,739.576,103.702,738.334,102.954,737.065z M146.363,778.358
		c-1.678-2.105-3.504-3.291-3.664-6.331c-0.346-6.573-1.631-13.343-4.068-19.308c-2.524-6.176-12.261-5.219-14.878-10.352
		c-1.978-3.879-2.195-9.529-3.467-13.961c-1.43-4.982-5.125-9.891-8.855-13.942c1.97,1.191,4.794,2.149,5.097,2.015
		c-0.096-0.108-0.208-0.204-0.296-0.317c0.296,0.185,0.372,0.284,0.296,0.317c2.214,2.502,6.238,3.596,8.477,6.18
		c2.106,2.43,3.942,5.793,4.803,8.758c0.627,2.159-0.111,4.785,0.896,6.771c1.338,2.64,3.926,2.232,6.274,3.595
		c3.589,2.084,5.218,6.533,7.111,9.968c2.659,4.823,3.395,10.48,3.508,15.959c0.086,4.169-0.5,8.741,0.549,12.797
		c0.769,2.975,3.05,6.066,3.416,9.099C149.111,786.039,148.894,781.534,146.363,778.358z"/>
	<path fill="none" d="M182.721,790.403c0,0-0.063,0.213-0.095,0.318c0.016,0.004,0.024,0.007,0.04,0.011
		C182.675,790.623,182.721,790.403,182.721,790.403z"/>
	<path fill="none" d="M183.681,787.207c-0.021-0.229-0.092-0.434-0.187-0.69c-0.009-0.017-0.019-0.033-0.028-0.05
		c-0.061,1.495-0.742,3.924-0.742,3.924s0.443-1.117,0.647-1.648C183.578,788.209,183.723,787.677,183.681,787.207z"/>
	<path fill="none" d="M183.731,686.443c-0.079,0.057-0.118,0.086-0.197,0.143c-0.068,0.049-0.102,0.074-0.17,0.123
		c-0.004,0.003-0.006,0.005-0.011,0.008c0.054-0.032-0.491,0.304-0.275,0.168c-0.023,0.011-0.034,0.016-0.057,0.027
		c-0.046,0.021-0.069,0.032-0.115,0.053c-0.093,0.04-0.14,0.06-0.233,0.1c-1.198,0.431-1.809,0.383-2.463,0.423
		c-1.258,0.021-2.318-0.086-3.38-0.187c-1.049-0.1-2.078-0.227-3.043-0.304c-0.261-0.014-0.392-0.022-0.653-0.036
		c-0.094-0.003-0.141-0.005-0.235-0.008c-0.087,0.004-0.375,0.022-0.296,0.015c-0.499,0.058-0.997,0.122-1.51,0.206
		c-1.31,0.22-1.965,0.329-3.275,0.543c-1.166,0.169-2.386,0.256-3.553,0.241c-0.583-0.008-1.155-0.038-1.747-0.089
		c-0.627-0.068-0.94-0.102-1.566-0.172c-1.921-0.218-4.015-0.263-6.162-0.436c-1.581-0.127-3.219-0.329-4.798-0.749
		c-0.132,0.248-0.248,0.51-0.353,0.783c0.235,0.227,0.46,0.457,0.673,0.692c-0.081-0.289-0.155-0.583-0.217-0.886
		c4.091,3.251,9.455,4.485,13.681,7.242c2.502,1.633,4.449,4.4,6.55,6.11c2.318,1.887,3.448,3.769,5.409,6.226
		c-3.762-3.547-9.788-1.851-14.411-2.098c1.459,3.865,2.597,7.881,2.893,12.018c4.931,7.536,9.93,13.62,10.326,22.923
		c6.841-11.835,13.506-28.217,11.352-41.697C185.301,694.103,183.957,690.338,183.731,686.443z"/>
	<path fill="none" d="M299.064,539.325c0.001-0.086,0.012-0.174,0.003-0.259c-0.405,0.208-0.808,0.423-1.211,0.636
		C298.265,539.563,298.668,539.436,299.064,539.325z"/>
	<path fill="none" d="M275.367,610.886c-2.194-1.878-6.642-2.299-7.372-5.254c2.305,0.672,4.922,1.315,6.974-0.787
		c-1.282-5.682-5.154-13.861-11.408-15.321c0.268,2.423-0.286,5.407-0.611,6.97c-0.098,0.47-1.379,2.351-1.597,3.161
		c-0.578,2.148,0.625,4.245-0.112,6.418c-5.408-3.056-8.436-8.718-13.483-12.234c1.211,7.614-1.229,15.423,1.183,22.887
		c-2.363-0.391-4.045-3.112-5.355-5.922c-0.036,1.493-0.175,2.926-0.39,4.392c-0.225,1.537-0.555,3.072-0.921,4.592
		c-0.733,3.04-1.662,6.06-2.531,9.016c-0.448,1.523-0.822,2.877-1.077,4.376c-0.298,1.788-0.45,2.682-0.76,4.472
		c-0.494,2.998-1.022,6.019-1.771,9.049c-0.748,3.024-1.61,6.112-3.02,9.085c-0.704,1.484-1.545,3.004-2.742,4.34
		c-0.47,0.524-1.033,1.004-1.63,1.429c1.382-0.105,2.762-0.089,4.055,0.059c1.76,0.201,3.377,0.562,4.932,0.91
		c1.556,0.348,3.083,0.684,4.639,0.949c1.558,0.265,3.132,0.471,4.713,0.539c6.163,0.263,12.534-0.057,18.806,0.116
		c0.529-1.598,0.669-3.421,0.871-5.286c0.13-1.201,0.29-2.466,0.693-3.831c0.2-0.677,0.505-1.399,0.896-2.119
		c0.266-0.39,0.378-0.657,0.788-1.142c0.052-0.076,0.35-0.392,0.635-0.629c0.255-0.213,0.476-0.362,0.709-0.507
		c1.813-1.026,3.119-1.252,3.849-1.765c0.162-0.114,0.3-0.214,0.395-0.326c0.024-0.025,0.036-0.037,0.059-0.062
		c0.022-0.033,0.033-0.05,0.055-0.083c0.081-0.127,0.229-0.327,0.201-0.34c0.012-0.061,0.033-0.082,0.068-0.17
		c0.043-0.132,0.064-0.198,0.106-0.33c0.061-0.235,0.122-0.481,0.164-0.743c0.17-1.048,0.218-2.211,0.327-3.443
		c0.054-0.609,0.138-1.285,0.304-1.977c0.167-0.698,0.439-1.53,1.141-2.43c0.113-0.133,0.17-0.199,0.283-0.332
		c0.029-0.033,0.044-0.049,0.073-0.082c0.047-0.046,0.071-0.068,0.118-0.114c0.039-0.036,0.058-0.054,0.097-0.089
		c0.148-0.131,0.219-0.215,0.431-0.385c0.457-0.367,0.895-0.711,1.634-0.974c0.178-0.069,0.364-0.116,0.549-0.148
		c-1.221-0.946-2.223-2.606-5.018-2.857c1.948-3.143,4.031-2.77,6.906-4.104c3.348-1.553,5.13-4.279,8.229-5.824
		c-1.094-2.1-3.143-1.032-5.395-1.68c-3.408-0.981-3.979-2.884-5.568-5.67C278.263,614.534,277.211,612.464,275.367,610.886z"/>
	<path fill="none" d="M438.942,400.597c-0.023,0.015-0.045,0.033-0.069,0.048c0.652-0.248,1.281-0.634,1.896-1.106
		C440.132,399.895,439.503,400.242,438.942,400.597z"/>
	<path fill="none" d="M198.845,722.654c-0.015-0.726-0.078-1.373-0.196-2.014c0.008,1.351,0.066,2.839,0.081,4.386
		C198.815,724.232,198.862,723.436,198.845,722.654z"/>
	<path fill="none" d="M469.832,535.427c-3.894,2.271-7.754,4.772-11.604,7.211c4.191-2.509,8.329-5.09,12.465-7.687
		C470.406,535.109,470.113,535.262,469.832,535.427z"/>
	<path fill="none" d="M452.284,401.766c-0.058-3.343-1.898-4.433-4.98-4.172c-2.616,0.221-7.018,4.191-9.077,3.503
		c-2.402,1.731-4.411,4.124-5.885,6.87c-1.619,3.015-2.814,6.412-4.065,9.784c-0.895,2.411-1.77,4.824-2.855,7.238
		c-0.009,1.8,0.333,3.556-0.258,5.452c1.969-0.077,4.165-1.578,6.18-0.685c-1.2,2.392,0.087,3.494,2.119,3.58
		c0.045-0.093,0.095-0.19,0.165-0.303c0.547-0.933,1.093-1.608,1.677-2.305c0.574-0.685,1.179-1.331,1.777-1.964
		c0.838-0.888,1.685-1.751,2.518-2.62c0.456-0.677,0.971-1.32,1.53-1.655c0.97-1.106,1.914-2.263,2.413-3.655
		c-0.109,0.493-0.284,0.977-0.495,1.452c3.014-4.835,7.19-8.112,11.814-11.33c0.751-1.153,1.395-2.5,2.031-3.694
		C459.584,402.208,456.844,400.787,452.284,401.766z"/>
	<path fill="none" d="M508.914,335.26c-2.689,0.337-6.004,1.851-8.843,2.274c-4.706,0.702-5.106-5.75-5.721-8.955
		c-1.574,0.335-3.253,1.455-4.603,2.743c-0.02-0.017-0.019-0.056-0.033-0.08c-0.024,0.039-0.036,0.058-0.06,0.096
		c-0.43,0.677-0.775,1.413-1.08,2.173c-1.232,3.076-1.421,6.611-2.074,10.371c-0.164,0.943-0.366,1.92-0.622,2.903
		c-0.251,0.965-0.667,2.159-0.995,2.941c-0.864,2.057-2.13,4.004-3.776,5.498c-1.622,1.472-3.348,2.342-4.767,3.186
		c-1.416,0.842-2.695,1.795-3.63,2.853c-0.791,0.979-1.464,2.526-2.274,4.233c5.69-0.149,10.541,2.978,15.838,4.533
		c-2.358,1.148-5.235,0.358-7.817,1.093c-2.102,0.598-4.173,2.025-6.263,2.551c-0.729,0.184-2.229,0.449-2.889,0.222
		c-1.129-0.389-1.134-1.829-2.009-2.241c-1.724-0.812-4.027,0.858-6.006,0.321c-0.017-0.041-0.032-0.07-0.048-0.108
		c-0.091,0.038-0.184,0.076-0.251,0.11c-1.321,0.829-2.836,1.884-3.998,2.91c-1.201,1.06-2.108,2.215-2.813,3.651
		c-0.714,1.455-1.28,3.082-1.85,4.811c-0.562,1.704-1.07,3.435-1.624,5.16c-0.379,1.18-0.746,2.49-1.401,3.844
		c0.465-0.159,0.94-0.276,1.439-0.301c-0.279,0.396-0.501,1.258-0.774,1.664c2.428-0.148,3.935,0.797,5.925,1.815
		c2.648,1.354,5.138,1.917,8.261,2.536c2.705,0.537,5.324,1.691,7.563,3.161c0.477,0.313,0.781,0.587,1.025,0.815
		c4.817-1.955,9.763-3.896,14.236-6.359c4.078-2.246,7.948-4.894,11.788-7.678c0.704-1.349,1.695-2.58,2.824-3.454
		c-0.64-2.756-4.344-2.259-6.636-1.809c3.461-2.85,6.917-5.573,9.361-8.979c0.787-1.097,0.953-1.907,1.519-3.697
		c0.801-2.531,2.11-3.803,3.269-5.983c3.19-6.001,0.971-13.703,2.196-19.9C511.779,341.752,514.011,334.621,508.914,335.26z"/>
	<path fill="none" d="M555.201,534.866c-2.782,2.991-5.475,8.05-9.209,9.293c-0.855,0.284-6.737-4.872-7.344-6.298
		c-0.358-0.841-0.473-1.954-0.462-3.211c-1.737,7.767-5.316,14.921-7.57,22.522c-0.716,2.416-1.209,4.798-1.562,7.16
		c-0.003,0.031-0.008,0.062-0.011,0.094c-0.202,2.185-0.433,4.394-0.686,6.614c-0.202,2.938-0.307,5.874-0.483,8.829
		c-0.128,2.144-0.301,4.308-0.565,6.515c0.824,0.1,1.399,0.433,1.784,0.944c0.041-0.176,0.066-0.351,0.111-0.527
		c4.849-7.314,11.712-6.229,18.921-8.802c4.026-1.437,7.961-3.395,11.874-2.917v-44.821
		C558.304,531.724,556.687,533.269,555.201,534.866z"/>
	<path fill="none" d="M547.647,268.192c-4.352,0.31-9.467,5.258-14.353,4.055c0.534,1.857,1.138,3.703,1.753,5.547
		c0.786,2.355,1.6,4.726,2.304,7.194c0.704,2.467,1.376,4.999,1.748,7.725c0.02,0.145,0.037,0.293,0.056,0.439
		c2.491,6.92,5.487,9.9,11.863,7.113c2.874-1.256,5.464-4.349,8.982-4.582v-24.066C556.354,269.185,551.403,267.925,547.647,268.192
		z"/>
	<path fill="none" d="M545.022,188.928c-1.283,2.322-3.982,5.742-2.733,8.682c1.767,4.159,7.608,6.167,11.65,8.192
		c-1.688,0.55-3.451,1.015-5.144,1.229c-1.85,5.636-12.474,4.908-16.542,8.801c4.087,9.174,9.11,20.553,18.794,24.117
		c2.664,0.98,5.863,0.895,8.952,1.164v-68.838c-0.668,0.164-1.323,0.349-1.953,0.577
		C552.838,177.435,548.38,182.851,545.022,188.928z"/>
	<path fill="none" d="M552.246,322.322c-2.542,2.098-2.38,1.052-4.511-0.844c-0.975-0.867-1.417-2.176-2.493-2.875
		c-0.689-0.448-2.241,0.515-2.895,0.012c-1.399-1.076-1.678-3.428-2.902-4.9c0.466,1.605,0.752,3.297,0.944,4.935
		c0.262,2.237,0.401,4.513,0.584,6.676c0.805,3.598,1.644,7.189,2.468,10.783c1.794,4.158,3.735,8.331,5.151,12.51
		c0.279,0.824,0.534,1.871,0.712,2.701c0.199,0.924,0.365,1.927,0.463,2.924c0.062,0.638,0.099,1.293,0.118,1.949
		c0.126,0.014,0.253,0.029,0.376,0.045c-0.078-0.179-0.159-0.352-0.227-0.546c0.402-0.376,0.604-0.564,1.006-0.941
		c2.364,2.239,5.7,0.096,8.96-1.93v-14.537c-4.052,0.167-6.707-5.922-9.691-8.8c-0.559,0.374-1.04,0.625-1.391,0.668
		c0.333-0.977,0.806-1.067,1.391-0.668c3.425-2.53,6.318-5.728,9.691-8.312v-8.564c-1.921,0.584-3.702,1.537-5.195,3.102
		C555.327,317.091,553.447,321.331,552.246,322.322z"/>
	<path fill="none" d="M507.591,202.444c0.764,1.113,1.521,2.225,2.265,3.365c-1.398-2.554-2.917-4.811-4.438-6.433
		C506.289,200.601,506.724,201.214,507.591,202.444z"/>
	<path fill="none" d="M553.127,117.295c-1.708,2.487-2.568,3.721-4.295,6.171c-1.406,2.066-2.755,4.222-4.23,6.245
		c-0.742,1.017-1.492,1.999-2.325,2.922c-0.825,0.914-1.698,1.718-2.535,2.536c-0.832,0.813-1.666,1.66-2.342,2.579
		c-0.334,0.454-0.744,1.049-0.921,1.428c-0.153-0.238,0.26,0.623,0.379,1.324c0.108,0.638,0.17,1.436,0.035,2.211
		c-0.136,0.78-0.462,1.53-0.846,2.114c-0.774,1.176-1.682,1.967-2.427,2.833c-1.504,1.747-2.704,3.909-3.775,6.169
		c-1.072,2.261-2.013,4.642-2.958,7.012c-1.111,2.877-1.673,4.309-2.812,7.16c-0.98,2.376-1.969,4.759-3.155,7.045
		c-1.177,2.267-2.482,4.56-4.319,6.457c-0.447,0.41-0.811,0.789-1.326,1.219c-0.391,0.326-0.793,0.724-1.18,1.128
		c-0.778,0.811-1.536,1.716-2.267,2.638c-0.115,0.146-0.225,0.301-0.34,0.449c4.375-3.553,9.41-6.928,12.359-11.665
		c6.081-9.768,8.787-22.485,17.115-31.179c1.862,2.397,4.672,3.572,7.49,2.57c-0.046,6.823-0.274,13.751-1.666,20.452
		c4.643-0.205,9.207-1.843,13.215-4.358v-57.672c-0.857,1.985-0.973,4.542-2.307,6.371
		C556.292,113.666,554.484,115.198,553.127,117.295z"/>
	<path fill="none" d="M516.676,231.261c0.036,2.739-0.015,5.302,0.43,7.616c0.223,1.159,0.552,2.347,0.905,3.437
		c0.173,0.534,0.396,1.138,0.607,1.71c0.193,0.524,0.442,1.079,0.665,1.603c0.895,2.107,2.08,4.113,3.351,5.969
		c2.251,3.286,4.744,6.461,6.812,9.906c0.004,0.005,0.007,0.011,0.011,0.016c-0.19-1.077-0.317-2.237-0.184-3.367
		c0.535-4.531,2.604-9.145,3.49-13.819c2.647,0.904,4.242,0.804,5.637,1.41c-0.688-6.55-8.453-7.816-13.613-8.914
		c0.21-3.766-1.171-7.417-1.946-10.961c-0.483-2.208,1.981-1.225-0.346-3.555c-1.401-1.403-4.726-0.281-6.331,0.756
		c-0.332-1.897-0.922-4.162-1.708-6.55c0.601,2.155,1.127,4.356,1.531,6.631C516.458,225.805,516.64,228.534,516.676,231.261z"/>
	<path fill="none" d="M552.936,471.833c-0.708,4.639-1.516,9.231-2.437,13.832c-0.554,2.427-0.835,3.641-1.408,6.068
		c-0.513,2.174-1.263,4.376-2.134,6.43c-1.682,3.967-3.692,7.952-5.332,11.95c-0.792,1.931-1.455,3.874-1.932,5.729
		c-0.476,1.853-0.668,3.574-0.672,5.367c-0.001,0.484,0.001,0.975,0.006,1.468c2.409,0.006,3.389,1.157,4.489,1.801
		c3.474-5.191,7.183-16.39,14.961-16.052c0.439-1.279,0.951-2.476,1.523-3.607v-42.662c-0.139-0.309-0.275-0.618-0.422-0.923
		C556.79,464.43,555.529,468.508,552.936,471.833z"/>
	<path fill="none" d="M525.207,263.044c-0.018-0.077,0.029-0.086-0.041-0.028c-0.104,0.115-0.198,0.278-0.291,0.426
		c-0.09,0.145-0.189,0.284-0.28,0.431c0.202-0.199,0.388-0.421,0.592-0.616C525.196,263.184,525.208,263.109,525.207,263.044z"/>
	<path fill="none" d="M558.321,378.131c-6.632-0.268-7.823-10.23-8.855-15.031c-0.387,3.15-0.847,6.171-0.779,8.819
		c0.042,1.597,0.345,3.418,0.708,5.059c0.338,1.531,0.745,3.051,1.169,4.579c7.162,2.511,5.243,12.068,9.436,17.036v-29.58
		c-1.136,0.234-2.242,0.565-3.203,1.294C557.625,372.75,559.178,374.978,558.321,378.131z"/>
	<path fill="none" d="M490.906,675.503c-0.04,0.064-0.105,0.14-0.154,0.208c0.303-0.335,0.617-0.665,0.911-1.004
		c-0.036-0.105-0.053-0.223-0.084-0.331C491.403,674.693,491.188,675.057,490.906,675.503z"/>
	<path fill="none" d="M26.064,721.739c0.002,0.07,0.005,0.269,0.009,0.235c0.011,0.107,0.017,0.16,0.029,0.267
		c0.001,0.004,0.001,0.008,0.002,0.012c0.01-0.652,0.049-1.301,0.127-1.946c-0.085,0.311-0.141,0.638-0.158,0.889
		C26.045,721.316,26.057,721.541,26.064,721.739z"/>
	<path fill="none" d="M483.507,683.033c1.814-1.767,3.637-3.529,5.381-5.329c-1.054,0.995-2.221,2.01-2.898,2.717
		C485.123,681.325,484.304,682.188,483.507,683.033z"/>
	<path fill="none" d="M28.474,735.764c-0.115-0.494-0.233-0.987-0.353-1.478C28.163,734.76,28.295,735.254,28.474,735.764z"/>
	<path fill="#3EADFF" d="M105.003,740.739c-0.579-1.381-1.262-2.587-2.049-3.674C103.702,738.334,104.436,739.576,105.003,740.739z"
		/>
	<path fill="#3EADFF" d="M98.529,724.136c-1.857-1.609-5.154-1.207-7.464-2.597c-2.512-1.512-4.728-4.196-6.728-5.997
		c-2.721-2.45-5.071-5.528-6.443-8.959c-1.197-2.993-2.925-5.67-6.281-7.413c-3.478-1.807-7.107-3.681-10.858-4.913
		c-4.08,4.198,4.517,7.766,6.948,10.124c3.394,3.292,6.268,7.804,6.5,12.888c0.122,2.675,1.051,7.283,4.077,8.575
		c4.61,1.968,10.449,1.111,14.864,3.49c3.607,1.944,7.169,4.241,9.81,7.732c-1.332-2.262-2.705-4.611-3.275-6.752
		C99.062,727.996,100.705,726.022,98.529,724.136z"/>
	<path fill="#3EADFF" d="M116.23,716.162c0.089,0.114,0.201,0.209,0.296,0.317C116.603,716.446,116.527,716.347,116.23,716.162z"/>
	<path fill="#3EADFF" d="M147.596,767.711c-0.113-5.479-0.849-11.136-3.508-15.959c-1.894-3.435-3.522-7.884-7.111-9.968
		c-2.348-1.364-4.935-0.955-6.274-3.595c-1.007-1.986-0.269-4.612-0.896-6.771c-0.861-2.966-2.697-6.328-4.803-8.758
		c-2.24-2.584-6.264-3.678-8.477-6.18c-0.302,0.134-3.127-0.824-5.097-2.015c3.73,4.051,7.425,8.96,8.855,13.942
		c1.272,4.432,1.489,10.083,3.467,13.961c2.618,5.133,12.354,4.175,14.878,10.352c2.438,5.965,3.722,12.735,4.068,19.308
		c0.16,3.04,1.986,4.226,3.664,6.331c2.531,3.175,2.748,7.681,5.198,11.25c-0.365-3.033-2.647-6.124-3.416-9.099
		C147.096,776.453,147.682,771.88,147.596,767.711z"/>
	<path fill="#3EADFF" d="M206.822,674.885c-4.382-0.179-8.979-1.188-13.306,0.06c4.953,3.072,11.18,3.423,16.441,5.172
		c4.733,1.574,5.671,7.542,9.86,9.394c4.052,1.791,9.416,1.036,14.062,1.789c5.96,0.966,11.89,1.371,17.904,1.413
		c8.171,0.057,16.222,0.916,23.606,4.805c-2.645-4.207-9.742-4.165-13.781-5.586c-4.641-1.632-8.384-5.707-13.574-6.702
		c-4.992-0.957-9.922-2.93-14.766-3.716c-3.793-0.615-15.362,0.397-13.637-6.339C215.334,676.526,211.133,675.061,206.822,674.885z"
		/>
	<path fill="#3EADFF" d="M214.132,701.558c3.592,2.936,10.075,2.992,14.803,4.319c10.895,3.057,21.541,8.548,31.665,14.417
		c-0.84-1.536-1.458-3.795-0.266-6.08c-8.022,3.284-15.043-9.281-21.579-11.953c0.03,0.815-0.607,1.905-0.399,2.839
		c-5.971-1.6-12.174-2.851-17.476-5.446c-4.869-2.384-9.716-5.973-15.042-8.05c0.399,0.307,0.79,0.622,1.47,1.191
		C210.305,695.295,211.474,699.385,214.132,701.558z"/>
	<path fill="#3EADFF" d="M228.731,720.692c-3.855-0.535-6.756-1.922-10.174-2.843c-2.922-0.787-5.91,0.079-6.443,0.406
		c11.644,2.455,22.867,6.059,33.363,11.749c-3.541-2.648-7.296-4.708-11.229-6.698c6.863,0.342,13.561,1.881,20.361,2.746
		C247.265,720.472,237.275,721.877,228.731,720.692z"/>
	<path fill="#3EADFF" d="M248.785,736.858c-3.158-0.754-7.612-1.904-11.638-2.19c3.569,0.831,7.174,1.532,10.688,2.073
		C248.145,736.788,248.471,736.816,248.785,736.858z"/>
	<path fill="#3EADFF" d="M209.824,730.525c3.591,1.208,6.949,3.071,10.378,4.504c2.455,1.026,6.959,0.122,8.56,1.718
		c1.696-1.926,4.879-2.329,8.386-2.079c-2.468-0.575-4.921-1.202-7.302-1.921c-2.468-0.746-5.534-0.868-7.762-1.862
		c-1.601-0.714-2.197-2.536-3.625-2.967c-3.767-1.139-8.173,0.072-12.237,0.107C207.462,729.49,209.7,729.926,209.824,730.525z"/>
	<path fill="#3EADFF" d="M279.103,741.697c-6.082-0.819-12.17-2.598-17.978-3.521c-3.921-0.623-8.297-0.774-12.339-1.318
		c0.824,0.197,1.562,0.367,2.178,0.485C259.856,739.056,269.963,742.588,279.103,741.697z"/>
	<path fill="#3EADFF" d="M253.51,761.016c-8.379-1.531-17.215-3.785-25.291-6.915c-4.752-1.842-9.805-0.877-14.648-0.776
		c-3.984,0.084-8.039-1.126-11.971-2.143c1.449,0.416,5.338,5.917,5.578,8.215c-0.949,0.419-1.743,1.248-2.571,1.635
		c8.472,2.17,17.683-0.254,26.203-0.287c5.894-0.023,11.991-0.08,17.819,0.508c7.174,0.723,14.613,3.284,21.943,1.471
		C265.79,759.718,258.69,761.963,253.51,761.016z"/>
	<path fill="#3EADFF" d="M249.137,771.625c-6.307,0.594-12.552,3.782-18.809,3.867c-10.3,0.14-20.851-2.664-31.314-4.447
		c2.116,1.801,5.534,2.568,6.994,4.474c1.049,1.37-1.087,2.88,2,3.389c-4.451,0.887-8.5,1.634-12.731,3.301
		c-0.65-0.274-0.576-0.659-2.605,1.947c9.429-0.346,19.092,2.389,28.186,0.631c3.657-0.707,7.526-2.134,11.243-2.281
		c3.401-0.135,6.106,1.979,9.66,1.555c-1.176-0.508-2.174-1.493-3.269-2.117c8.625-5.616,19.386-5.28,28.694-9.161
		C261.149,772.488,255.091,771.065,249.137,771.625z"/>
	<path fill="#3EADFF" d="M320.771,703.796c2.6-0.125,5.065,1.042,7.737,0.689c5.572-0.734,10.687-4.046,16.089-5.521
		c3.456-0.944,7.007-1.259,10.539-2.418c-11.5-1.351-23.036-2.482-34.529-2.394c-4.811,0.037-8.374-3.316-12.458-4.882
		c-5.007-1.921-10.998-0.218-16.464-0.38c3.635,1.433,7.19,3.254,10.597,5.034c4.385,2.291,10.557,3.225,13.768,7.409
		c-1.849,1.433-4.462,2.571-6.611,3.568C313.291,705.228,317.107,703.972,320.771,703.796z"/>
	<path fill="#3EADFF" d="M289.81,688.7c0.612,0.105,1.242,0.153,1.875,0.191C290.446,688.434,289.659,688.276,289.81,688.7z"/>
	<path fill="#3EADFF" d="M288.394,767.347c7.994-2.756,16.983-2.746,25.097-4.977c5.504-1.514,11.338-2.846,16.738-4.556
		c5.502-1.742,10.962-4.61,16.811-5.354c10.69-1.359,21.643-1.82,32.352-3.839c-9.128-2.287-18.383,2.611-27.576,0.881
		c3.721-2.072,7.835-3.167,11.939-4.186c-2.517,0.58-2.287,0.304-2.789-1.155c-8.059,2.522-16.208,4.709-24.32,7.048
		c5.041-2.059,9.488-5.224,14.039-8.158c-1.726,0.77-3.473,1.602-5.207,2.433c-12.461,5.969-26.028,8.315-39.696,10.943
		c-6.832,1.314-12.769,4.081-18.625,7.65c-5.459,3.327-11.944,3.525-17.691,6.206C276.158,770.54,282.163,769.495,288.394,767.347z"
		/>
	<path fill="#3EADFF" d="M369.839,733.585c-0.795,0.518-1.593,0.993-2.39,1.462c4.067-2.003,8.015-3.862,11.238-7.147
		C376.073,729.378,372.843,731.631,369.839,733.585z"/>
	<path fill="#3EADFF" d="M354.29,740.939c-1.234,0.626-2.435,1.384-3.604,2.112c5.694-2.503,11.299-5.023,16.763-8.004
		C363.039,736.975,358.487,738.809,354.29,740.939z"/>
	<path fill="#3EADFF" d="M273.403,668.799c5.767,2.85,13.742,3.011,19.988,3.585c4.88,0.449,12.578-1.028,16.124,3.448
		c-3.213-6.631-12.041-7.789-18.064-9.994c-4.581-1.678-8.857-4.698-13.629-6.327C283.351,663.028,276.251,667.187,273.403,668.799z
		"/>
	<path fill="#3EADFF" d="M327.702,634.88c-0.004,0.005,4.695,7.127,3.392,10.421c-1.913,4.835-11.028,0.903-14.832,0.6
		c-6.059-0.484-12.646-0.273-18.966-0.603c1.379,2.378,6.781,3.214,9.669,4.009c4.997,1.375,9.797,3.672,14.161,6.246
		c5.233,3.087,12.438,1.197,18.176,0.342c6.921-1.031,14.1-2.48,20.982-2.005c7.088,0.489,14.323,2.151,21.615,2.334
		C361.121,654.841,327.702,634.88,327.702,634.88z"/>
	<path fill="#3EADFF" d="M293.358,644.869c1.271,0.192,2.595,0.323,3.938,0.428c-0.081-0.139-0.2-0.264-0.251-0.414
		C294.406,645.458,292.736,644.366,293.358,644.869z"/>
	<path fill="#3EADFF" d="M548.918,330.152c0.351-0.043,0.832-0.294,1.391-0.668C549.724,329.085,549.251,329.175,548.918,330.152z"
		/>
	<path fill="#3EADFF" d="M560,338.284v-17.112c-3.372,2.585-6.266,5.783-9.691,8.312C553.293,332.362,555.948,338.45,560,338.284z"
		/>
	<path fill="#3EADFF" d="M328.949,798.047c0,0-31.665-3.52-47.415-6.249c-3.197,2.481-6.055,5.392-8.984,8.202h44.79
		C323.757,798.586,328.949,798.047,328.949,798.047z"/>
	<path fill="#3EADFF" d="M558.942,107.59c-0.343,1.323-0.784,2.552-1.5,3.576c-1.374,2.078-3.223,3.546-4.67,5.685
		c-1.747,2.448-2.625,3.662-4.391,6.073c-1.45,2.052-2.827,4.167-4.303,6.118c-0.731,0.967-1.504,1.935-2.292,2.776
		c-0.794,0.848-1.664,1.618-2.526,2.429c-0.864,0.813-1.723,1.651-2.527,2.689c-0.389,0.539-0.733,0.942-1.118,1.712
		c-0.093,0.187-0.208,0.592-0.143,0.936c0.058,0.307,0.126,0.425,0.173,0.57c0.093,0.252,0.158,0.506,0.201,0.745
		c0.206,1.157,0.011,2.186-0.604,3.083c-0.617,0.899-1.5,1.675-2.332,2.599c-1.676,1.86-3.007,4.193-4.146,6.499
		c-1.146,2.321-2.139,4.717-3.132,7.091c-1.154,2.849-1.738,4.267-2.92,7.09c-1,2.323-1.992,4.652-3.143,6.818
		c-1.148,2.162-2.408,4.251-3.882,5.754c-0.415,0.374-0.891,0.836-1.258,1.135c-0.49,0.399-0.938,0.837-1.369,1.278
		c-0.862,0.881-1.685,1.825-2.436,2.773c-3.01,3.799-5.832,7.856-8.602,11.918c-0.212,0.317-0.319,0.475-0.531,0.791
		c0.2,0.288,0.3,0.431,0.5,0.719c1.587,2.284,2.376,3.431,3.945,5.736c1.283,1.934,2.566,3.937,3.717,5.894
		c0.515,0.875,0.923,2.046,1.32,3.191c0.397,1.142,0.757,2.328,1.088,3.519c0.662,2.382,1.227,4.844,1.636,7.32
		c0.4,2.424,0.548,5.023,0.553,7.637c0.005,2.592-0.098,5.496,0.389,8.222c0.242,1.357,0.581,2.654,0.969,3.901
		c0.2,0.643,0.403,1.211,0.608,1.795c0.222,0.629,0.469,1.202,0.709,1.791c0.944,2.316,2.183,4.526,3.49,6.474
		c2.401,3.581,5.147,7.092,7.244,10.944c0.087,1.204,0.223,2.492,0.188,3.698c-0.17,5.812-2.435,11.714-3.911,17.67
		c1.322,0.505,2.625-0.37,3.664-2.142c0.476,4.485,1.02,9.059,0.618,13.523c-0.321,3.558-2.123,6.09-1.081,9.491
		c0.845-0.659,2.601-0.792,3.523-1.563c0.422,1.841,0.616,3.806,0.664,5.838c-1.393,0.017-2.658-0.315-4.353,0.553
		c-3.828,1.96-4.973,6.788-5.541,10.735c-0.268,1.863-0.108,9.09-3.752,8.721c-1.729-0.175-1.537-4.197-3.166-4.716
		c-0.572-0.182-2.266,0.828-3,0.889c-2.477,0.207-5.35-3.189-5.722-5.694c-0.573-3.858,1.655-8.895,4.05-12.167
		c-2.018,1.077-3.737,2.464-5.489,4.047c-1.313,1.187-2.785,1.696-3.902,2.564c0.003-0.003,0.005-0.005,0.007-0.008
		c0.378-0.38,0.567-0.57,0.945-0.951c-0.223-0.473-0.334-0.709-0.558-1.181c-0.138-0.291-0.22-0.593-0.149-1.11
		c0.119-0.537,0.307-1.161,0.638-1.817c0.294-0.65,0.684-1.318,1.084-1.978c0.401-0.662,0.841-1.325,1.287-1.987
		c0.898-1.332,1.87-2.635,2.791-4.102c0.234-0.372,0.466-0.756,0.694-1.205c0.226-0.451,0.338-0.677,0.563-1.128
		c0.448-0.868,0.672-1.302,1.117-2.172c1.52-2.952,3.057-6.079,3.991-9.424c0.233-0.833,0.394-1.706,0.533-2.566
		c0.094-0.87,0.15-1.735,0.095-2.588c0.011-0.433-0.096-0.839-0.146-1.25c-0.05-0.416-0.147-0.812-0.28-1.187
		c-0.151-0.607-0.413-1.125-0.68-1.639c2.024-2.769,4.023-5.567,6.083-8.29c2.178-2.878,4.409-5.744,6.821-8.381
		c0.011-0.012,0.017-0.018,0.028-0.031c0.001-0.013,0.001-0.019,0.002-0.031c0.005-0.092,0.016-0.181,0.008-0.278
		c-0.007-0.042,0.003-0.112-0.067-0.154c-0.077-0.025-0.124,0.049-0.152,0.077c-0.12,0.153-0.197,0.314-0.284,0.472
		c-0.104,0.191-0.215,0.378-0.322,0.568c-4.852,4.845-9.037,10.291-13.335,15.618c-0.136,0.167-0.204,0.25-0.339,0.416
		c0.091,0.219,0.136,0.328,0.226,0.548c0.253,0.613,0.558,1.186,0.681,1.871c0.097,0.321,0.16,0.66,0.181,1.015
		c0.02,0.351,0.101,0.686,0.069,1.058c0.012,0.719-0.075,1.458-0.188,2.199c-0.151,0.746-0.312,1.497-0.546,2.238
		c-0.931,2.954-2.455,5.864-4.052,8.726c-0.488,0.882-0.732,1.323-1.223,2.202c-0.193,0.356-0.391,0.748-0.58,1.073
		c-0.155,0.284-0.361,0.601-0.572,0.916c-0.853,1.277-1.862,2.589-2.823,3.941c-0.482,0.679-0.966,1.371-1.432,2.101
		c-0.465,0.729-0.927,1.474-1.335,2.314c-0.424,0.809-0.784,1.751-1.019,2.791c-0.129,0.653-0.124,1.363,0.004,2.034
		c-0.484,0.604-0.916,1.286-1.241,1.986c-0.502,1.077-0.795,2.156-1.026,3.045c-0.227,0.877-0.499,1.695-0.71,2.02
		c-0.379,0.582-0.93,1.17-1.491,1.664c-1.136,0.999-2.771,1.851-4.348,3.386c-0.364,0.354-0.809,0.848-1.139,1.271
		c-0.162,0.222-0.239,0.292-0.471,0.639c-0.177,0.273-0.266,0.41-0.444,0.683c-0.592,0.91-1.095,1.902-1.482,2.876
		c-1.412,3.555-1.869,7.524-2.48,11.279c-0.139,0.856-0.334,1.719-0.554,2.525c-0.223,0.819-0.422,1.436-0.826,2.39
		c-0.599,1.417-1.516,2.826-2.581,3.734c-2.768,2.359-6.366,3.68-8.93,6.532c-1.529,1.924-2.218,3.853-2.99,5.416
		c-0.396,0.801-0.723,1.417-1.05,1.731c-0.317,0.304-0.953,0.74-1.536,0.969c-0.614,0.266-1.335,0.441-2.146,0.654
		c-0.835,0.219-1.692,0.42-2.862,1.053c-1.652,1.06-3.086,2.07-4.63,3.421c-1.5,1.312-2.946,3.19-3.845,5.06
		c-0.891,1.853-1.497,3.719-2.042,5.444c-0.554,1.754-1.065,3.54-1.571,5.257c-0.506,1.713-1.002,3.386-1.759,4.41
		c-0.773,1.045-2.146,2.005-3.599,2.89c-1.443,0.879-3.006,1.668-4.617,2.759c-3.24,2.193-5.861,5.359-7.619,8.893
		c-1.645,3.308-2.859,6.842-3.982,10.337c-1.08,3.361-2.242,6.82-3.773,9.915c-1.838,3.192-3.939,6.28-5.553,9.539
		c-0.4,0.807-0.779,1.822-0.925,2.739c-0.155,0.971-0.025,1.84,0.084,2.648c0.112,0.821,0.263,1.632,0.427,2.429
		c-0.167,0.318-0.34,0.632-0.565,0.92c-0.367,0.513-0.72,1.029-1.155,1.488c-0.405,0.48-0.829,0.939-1.289,1.364
		c-0.44,0.443-0.895,0.867-1.372,1.266c-0.925,0.829-1.92,1.576-2.912,2.288c-0.995,0.714-2.028,1.377-3.062,2.004
		c-2.067,1.255-4.221,2.326-6.382,3.22c-1.08,0.447-2.168,0.838-3.249,1.176c-0.542,0.192-1.08,0.301-1.616,0.445
		s-1.058,0.198-1.586,0.302c-0.254,0.05-0.381,0.076-0.635,0.126c-0.114,0.246-0.171,0.369-0.285,0.615
		c-0.902,1.946-1.979,3.86-3.162,5.7c-1.184,1.841-2.466,3.64-3.855,5.336c-1.387,1.695-2.879,3.305-4.468,4.735
		c-0.794,0.715-1.621,1.38-2.46,1.977c-0.841,0.599-1.709,1.094-2.571,1.535c-0.948,0.484-1.422,0.725-2.37,1.205
		c0.696,0.541,1.044,0.811,1.741,1.352c0.177,0.137,0.491,0.684,0.764,1.256c0.053,0.098,0.103,0.201,0.154,0.304
		c-2.657,1.285-5.46,2.31-8.317,3.382c-1.746,0.655-3.518,1.362-5.286,2.179c-0.881,0.407-1.762,0.85-2.671,1.338
		c-0.447,0.24-0.829,0.472-1.248,0.707c-0.52,0.321-0.78,0.481-1.3,0.801c-3.24,2.13-6.315,4.517-9.388,6.853
		c-2.878,2.188-5.797,4.292-8.805,5.795c-0.021,0.003-0.037,0.005-0.062,0.008c-0.268,0.033-0.42,0.082-0.584,0.129
		c-0.326,0.094-0.584,0.2-0.823,0.302c-0.486,0.207-0.906,0.417-1.327,0.633c-0.826,0.423-1.61,0.871-2.386,1.312
		c-1.827,1.058-2.741,1.583-4.573,2.625c-1.513,0.848-3.017,1.696-4.519,2.435c-0.749,0.368-1.501,0.715-2.229,1.004
		c-0.72,0.286-1.459,0.517-1.979,0.581c-1.062,0.131-1.593,0.196-2.655,0.322c0.444,0.823,0.666,1.235,1.109,2.059
		c0.903,1.681,2.301,2.729,3.265,3.75c0.484,0.513,0.865,1.021,1.048,1.545c0.07,0.202,0.097,0.419,0.121,0.637
		c-0.167,0.026-0.251,0.039-0.418,0.066c-0.772,0.219-1.158,0.327-1.93,0.543c-0.747,0.305-1.121,0.457-1.868,0.759
		c-0.594,0.309-1.208,0.601-1.779,0.927c-1.142,0.652-2.248,1.397-3.292,2.159c-1.042,0.761-2.054,1.546-3.041,2.326
		c-1.971,1.559-3.89,3.118-5.918,4.41c-1.013,0.645-2.054,1.216-3.117,1.714c-0.647,0.261-0.97,0.392-1.617,0.651
		c-0.659,0.2-0.989,0.299-1.648,0.497c-0.489,0.147-0.734,0.22-1.224,0.366c0.211,0.367,0.316,0.551,0.526,0.919
		c0.186,0.325,0.418,0.639,0.543,0.981c0.159,0.333,0.259,0.682,0.287,1.03c0.003,0.025-0.001,0.051,0.001,0.077
		c-1.122,0.473-2.246,0.975-3.356,1.444c-0.86,0.363-1.765,0.759-2.655,1.15c-2.981,1.311-6.039,2.542-9.087,3.546
		c-0.175,0.058-0.351,0.111-0.526,0.168c-4.552,0.979-9.084,1.675-13.689,2.352c-0.35-0.015-0.525-0.022-0.875-0.037
		c-0.63-0.027-0.945-0.042-1.574-0.07c0.121,0.617,0.181,0.926,0.301,1.543c0.051,0.262,0.076,0.393,0.127,0.655
		c0.059,0.218,0,0.421,0.016,0.628c0.03,0.214-0.092,0.385-0.111,0.577c-0.038,0.189-0.178,0.341-0.24,0.518
		c-0.235,0.317-0.517,0.63-0.914,0.903c-0.213,0.126-0.385,0.281-0.631,0.387c-0.235,0.112-0.447,0.246-0.707,0.336
		c-0.984,0.414-2.079,0.697-3.181,0.893c-1.104,0.197-2.233,0.308-3.347,0.359c-0.457,0.021-0.686,0.031-1.143,0.051
		c-0.124,0.45-0.185,0.675-0.31,1.126c-0.794,2.874-1.474,5.766-1.942,8.673c-0.357,2.218-0.645,4.467-0.637,6.747
		c-0.772-0.154-1.583-0.387-2.454-0.617c-0.807-0.214-1.7-0.424-2.711-0.496c-0.507-0.036-1.051-0.031-1.594,0.028
		c-0.551,0.06-1.114,0.192-1.668,0.364c-0.575,0.179-0.863,0.268-1.438,0.445c0.029,0.55,0.043,0.825,0.071,1.376
		c0.173,3.812-0.251,7.644-1.069,11.356c-0.695,3.152-1.582,6.373-2.5,9.608c-0.43-0.128-0.761-0.252-0.94-0.388
		c-1.297-0.982-1.945-1.473-3.238-2.459c0.119,1.652,0.176,2.479,0.286,4.134c0.205,3.069,0.971,5.912,1.698,8.616
		c0.364,1.355,0.707,2.703,0.952,4.051c0.122,0.674,0.226,1.357,0.295,2.034c0.067,0.651,0.109,1.323,0.114,2.078
		c0.008,1.35-0.096,2.818-0.28,4.251c-0.185,1.444-0.428,2.907-0.731,4.377c-0.606,2.94-1.396,5.95-2.176,8.939
		c-0.38,1.457-0.758,3.116-0.92,4.609c-0.204,1.798-0.308,2.698-0.523,4.498c-0.339,2.981-0.685,5.962-1.18,8.929
		c-0.495,2.967-1.131,5.985-2.276,8.915c-0.571,1.461-1.293,2.935-2.302,4.266c-0.464,0.612-1.037,1.171-1.677,1.667
		c-0.357,0.033-0.716,0.068-1.07,0.116c-1.929,0.257-3.705,0.747-5.333,1.073c-1.668,0.333-3.38,0.61-5.121,0.899
		c-1.732,0.287-3.535,0.601-5.34,1.028c-1.932,0.457-3.768,1.192-5.459,1.927s-3.283,1.468-4.813,1.98
		c-1.558,0.521-3.141,0.843-4.806,1.111c-1.635,0.263-3.276,0.412-4.829,0.415c-1.536,0.003-3.046-0.169-4.113-0.611
		c-1.036-0.43-1.553-0.645-2.586-1.078c-0.1,1.061-0.151,1.592-0.254,2.654c-0.187,1.925-0.288,3.669-0.522,5.474
		c-0.231,1.781-0.533,3.585-1.086,5.233c-0.264,0.788-0.68,1.645-1.021,2.085c-0.083,0.047,0.065,0.03-0.128,0.186
		c-0.096,0.069-0.144,0.103-0.24,0.172c-0.119,0.017-0.445,0.069-0.734,0.059c-0.878,0.017-1.894-0.075-2.892-0.174
		c-1.011-0.1-2.039-0.236-3.142-0.317c-0.298-0.022-0.538-0.041-0.915-0.049c-0.223,0-0.335,0-0.558-0.001
		c-0.203,0.013-0.305,0.019-0.508,0.032c-0.581,0.066-1.163,0.141-1.731,0.232c-1.285,0.214-1.927,0.319-3.211,0.527
		c-0.995,0.141-1.933,0.204-2.88,0.191c-0.474-0.007-0.949-0.034-1.392-0.072c-0.606-0.067-0.909-0.1-1.514-0.168
		c-3.918-0.271-7.937-0.304-11.713-1.512c-0.541-0.216-0.811-0.324-1.351-0.54c-0.434,0.465-0.652,0.698-1.088,1.163
		c-1.386,1.479-2.096,3.244-2.421,4.668c-0.332,1.454-0.498,2.786-0.914,3.837c-0.206,0.521-0.445,0.993-0.794,1.365
		c-0.163,0.23-0.317,0.303-0.445,0.466c-0.09,0.085-0.313,0.223-0.463,0.332c-0.1,0.069-0.15,0.104-0.251,0.173
		c-0.015,0.01-0.023,0.016-0.038,0.026c-0.003,0.002-0.005,0.003-0.009,0.005c-0.018,0.009-0.027,0.014-0.045,0.023
		c-0.936,0.562-1.895,0.679-3.291,0.579c-1.329-0.095-3.111-0.48-5.131-0.168c-1.902,0.294-3.545,0.768-5.195,1.3
		c-1.618,0.522-2.971,0.994-4.249,1.098c-1.294,0.145-2.594-0.014-4.026-0.293c-2.857-0.558-5.698-1.321-8.489-2.154
		c-2.794-0.834-5.559-1.734-8.287-2.688c-5.413-1.892-10.772-3.959-16.058-6.189c-0.134-0.057-0.201-0.085-0.336-0.142
		c-0.152,0-0.228,0-0.38-0.001c-2.71-0.004-4.063-0.013-6.765-0.044c-1.351-0.015-2.026-0.025-3.376-0.046
		c-0.675-0.011-1.012-0.017-1.686-0.029c-0.544-0.016-1.17-0.008-1.623-0.047c-1.961-0.105-4.02-0.596-5.985-1.174
		c-1.968-0.579-3.935-1.304-5.76-2.084c-0.07-0.03-0.106-0.045-0.176-0.075c-0.063-0.013-0.094-0.019-0.157-0.032
		c-3.452-0.706-6.882-1.335-10.352-1.9c-3.467-0.565-6.971-1.061-10.569-1.36c-0.656-0.055-0.984-0.082-1.64-0.139
		c-0.115,0.569-0.172,0.854-0.288,1.424c-0.63,3.102-1.85,6.221-3.117,9.382c-0.634,1.582-1.288,3.181-1.881,4.802
		c-0.601,1.641-1.146,3.231-1.571,5.017c-0.298,1.572-0.127,2.989-0.006,4.28c-0.941,1.996-1.848,3.99-2.68,5.978
		c-0.871,0.832-1.78,1.769-2.44,2.951c-0.784,1.402-1.93,2.856-2.875,4.513c-0.472,0.828-0.889,1.722-1.142,2.665
		c-0.127,0.476-0.203,0.946-0.241,1.477c-0.02,0.282-0.009,0.466-0.003,0.67c0.008,0.147,0.012,0.221,0.02,0.369
		c0.015,0.133,0.023,0.199,0.038,0.331c0.25,1.685,0.624,3.244,1.046,4.819c0.212,0.792,0.424,1.577,0.721,2.384
		c0.281,0.762,0.435,1.3,0.443,2.006c0.007,0.669-0.158,1.517-0.112,2.479c0.046,0.974,0.342,1.841,0.653,2.625
		c0.627,1.58,1.484,2.998,2.12,4.407c0.647,1.432,1.071,2.756,0.866,4.164c-0.207,1.417-0.877,2.982-1.508,4.631
		c-0.507,1.326-0.934,2.77-1.006,4.232c-0.133,0.031-0.266,0.052-0.399,0.093c-0.613,0.233-1.25,0.416-1.783,0.798
		c-1.165,0.658-1.865,1.613-2.363,2.475c-0.898,1.767-1.067,3.426-1.192,5.003c-0.125,1.572-0.123,3.14-0.273,4.593
		c-0.136,1.321-0.802,2.908-1.318,4.43c-1.359,3.673-2.051,5.509-3.456,9.178c-0.572,1.538-1.114,3.106-1.642,4.632
		c-0.528,1.529-0.909,3.175-1.531,4.512c-1.313,2.822-4.147,5.389-6.279,8.402c-0.312,0.441-0.581,0.891-0.825,1.344H49.05
		c0.044-0.263,0.085-0.529,0.135-0.787c0.196,0.028,0.294,0.042,0.491,0.069c1.602,0.225,3.179,0.139,4.496,0.095
		c1.362-0.045,2.38-0.056,3.479,0.156c0.523,0.101,1.1,0.266,1.683,0.467h64.458c-5.43-2.703-10.29-6.651-13.861-11.195
		c-2.049-2.606-2.41-6.187-4.29-8.687c-1.438-1.913-4.41-4.666-6.29-6.748c-4.068-4.505-8.345-10.876-14.908-11.834
		c-2.388,4.1-4.672,1.344-7.124-0.048c-3.866-2.195-2.644-1.287-6.931-1.466c-3.83-0.16-9.613-0.015-11.515-3.912
		c-2.19-4.488,0.59-9.975,2.179-14.404c0.99-2.759-0.41-7.366,3.077-9.661c-1.01-2.346-0.782-4.063-2.209-6.266
		c-1.232-1.902-6.002-4.527-5.894-6.976c0.117-2.649,2.895-2.804,3.144-5.279c0.093-0.925-1.9-4.208-2.407-5.027
		c-3.789-6.121-11.508-10.558-13.225-18.137c-0.118,0.06-0.177,0.09-0.295,0.15c0.073-2.825,1.065-5.532-1.43-8.455
		c2.835,0.299,5.676,0.687,8.495,1.158c3.349,0.56,6.721,1.194,10.018,1.882c1.934,0.83,3.865,1.55,5.918,2.17
		c1.058,0.32,2.143,0.608,3.267,0.845c1.121,0.236,2.299,0.42,3.55,0.5c0.653,0.042,1.166,0.037,1.745,0.058
		c0.676,0.015,1.014,0.022,1.691,0.036c1.353,0.027,2.03,0.039,3.385,0.059c2.559,0.039,3.84,0.052,6.406,0.067
		c5.211,2.227,10.493,4.297,15.83,6.196c2.751,0.979,5.548,1.908,8.391,2.772c2.845,0.865,5.74,1.662,8.802,2.278
		c1.513,0.304,3.327,0.545,5.231,0.363c1.919-0.183,3.751-0.812,5.238-1.289c1.467-0.47,3.023-0.874,4.308-1.086
		c1.202-0.199,2.468,0.065,4.2,0.211c0.852,0.072,1.841,0.093,2.919-0.081c1.072-0.173,2.217-0.582,3.15-1.139
		c0.036-0.02,0.054-0.03,0.091-0.05c0.018-0.01,0.027-0.015,0.045-0.025c0.009-0.005,0.014-0.008,0.023-0.013
		c0.058-0.037,0.088-0.056,0.146-0.094c0.05-0.035,0.076-0.052,0.126-0.087c0.101-0.069,0.151-0.104,0.252-0.174
		c0.179-0.128,0.312-0.203,0.528-0.376c0.448-0.382,0.952-0.803,1.245-1.192c0.707-0.788,1.15-1.657,1.454-2.447
		c0.609-1.58,0.743-3.002,1.033-4.21c0.06-0.248,0.127-0.487,0.201-0.717c0.397,0.5,0.78,0.961,1.152,1.397
		c1.546,3.399,3.25,6.999,2.708,10.654c-0.689,4.638,0.936,8.93,2.884,12.849c1.777,3.574,1.401,8.546,3.48,12.159
		c1.198,2.082,2.877,4.278,3.723,6.693c0.235,3.401-0.028,6.746-0.785,10.695c-0.374,1.297-0.704,2.59-0.814,3.895
		c-0.004,0.047-0.006,0.094-0.01,0.141c-0.846,6.188,0.158,13.479-3.418,18.953c6.687,2.797,1.971,10.773,2.249,15.504
		c0.382,6.485,2.4,12.799,3.36,19.387h22.762c-0.004-0.072-0.009-0.147-0.029-0.281c-0.021-0.137-0.031-0.206-0.051-0.343
		c-0.031-0.221-0.123-0.57-0.201-0.82c-0.153-0.492-0.38-0.974-0.601-1.398c-0.389-0.746-0.759-1.398-0.954-2
		c1.451,0.554,2.915,1.174,4.432,1.747c2.503,0.946,5.171,1.873,8.487,2.154c0.821,0.07,1.713,0.07,2.626,0.016
		c0.494-0.052,0.875-0.072,1.464-0.162c0.238-0.042,0.357-0.063,0.594-0.105c0.311-0.07,0.466-0.105,0.777-0.174
		c1.898-0.473,3.528-1.112,5.087-1.715c1.547-0.598,3.025-1.197,4.376-1.578c0.33-0.093,0.676-0.193,0.99-0.257
		c0.141-0.028,0.362-0.086,0.438-0.094c0.182-0.029,0.429-0.08,0.556-0.092c0.534-0.077,1.323-0.144,2.035-0.187
		c1.48-0.091,3.06-0.126,4.875-0.406c0.908-0.14,1.893-0.342,2.972-0.732c0.162-0.06,0.242-0.09,0.404-0.151
		c0.088-0.037,0.131-0.056,0.219-0.093c0.028-0.013,0.042-0.02,0.071-0.033c0.057-0.026,0.085-0.039,0.142-0.066
		c0.329-0.157,0.779-0.423,0.976-0.557c0.496-0.337,0.905-0.654,1.267-0.958c0.604-0.508,1.217-1.093,1.525-1.351
		c0.147-0.057,0.301-0.117,0.384-0.138c0.246-0.082,0.556-0.177,0.894-0.268c1.321-0.354,2.78-0.57,4.259-0.739
		c1.484-0.17,3.011-0.282,4.62-0.46c1.567-0.174,3.252-0.37,5.047-0.803c0.907-0.219,1.88-0.501,2.904-0.956
		c1.028-0.457,2.239-1.203,3.1-2.245c0.892-1.079,1.026-2.076,1.069-2.901c-0.014-0.115-0.037-0.226-0.05-0.343
		c0.27-0.083,0.532-0.192,0.803-0.265c0.958-0.259,1.951-0.476,2.94-0.659c1.977-0.365,4-0.595,6.007-0.749
		c4.123-0.317,8.33-0.453,12.436-0.896c1.081-0.117,2.218-0.271,3.469-0.572c1.181-0.284,2.336-0.637,3.437-1.005
		c2.199-0.735,4.244-1.524,6.073-1.923c0.136-0.029,0.204-0.043,0.34-0.072c0.02-0.004,0.099-0.021,0.118-0.025
		c0.074-0.012,0.111-0.018,0.185-0.03c0.262-0.042,0.551-0.092,0.709-0.1c0.356-0.041,0.837-0.071,1.259-0.072
		c0.87-0.003,1.765,0.062,2.676,0.163c1.821,0.202,3.738,0.534,5.975,0.515c0.561-0.005,0.842-0.007,1.403-0.013
		c0.449-0.739,0.673-1.109,1.119-1.848c0.085-0.141,0.097-0.285,0.153-0.412c0.135-0.099,0.092-0.219,0.271-0.326
		c0.136-0.107,0.227-0.238,0.475-0.362c0.188-0.131,0.413-0.266,0.707-0.386c1.085-0.512,2.479-0.922,3.859-1.243
		c2.815-0.655,5.71-1.003,8.807-1.673c1.737-0.375,3.071-0.8,4.617-1.208c1.792-0.489,2.689-0.736,4.481-1.236
		c3.585-0.999,5.377-1.508,8.961-2.548c3.583-1.047,5.374-1.581,8.956-2.67c2.986-0.924,5.951-1.859,8.885-2.691
		c2.933-0.832,5.848-1.57,8.665-2.037c2.936-0.487,5.85-1.038,8.642-1.349c1.388-0.155,2.764-0.245,3.958-0.172
		c0.607,0.037,1.13,0.14,1.532,0.314c0.275,0.119,0.538,0.244,0.63,0.344c0.086,0.045,0.144,0.101,0.17,0.161
		c0.051,0.054,0.096,0.109,0.081,0.146c0.052,0.072-0.004,0.126-0.065,0.284c-0.11,0.174-0.3,0.412-0.542,0.683
		c-0.485,0.542-1.139,1.205-1.672,2c-0.536,0.801-0.809,1.817-0.587,2.469c0.011,0.053,0.016,0.08,0.026,0.133
		c0.003,0.013,0.004,0.02,0.007,0.033c0.021,0.052-0.036-0.07,0.048,0.125c0.01,0.017,0.016,0.025,0.026,0.042
		c0.041,0.068,0.062,0.102,0.103,0.169c0.078,0.115,0.117,0.221,0.226,0.343c0.281,0.232,0.603,0.553,0.939,0.627
		c1.335,0.509,2.898,0.43,4.398,0.258c1.515-0.174,3.063-0.51,4.595-0.916c1.535-0.407,3.076-0.897,4.623-1.463
		c1.583-0.579,3.095-1.295,4.612-2.07c3.007-1.537,5.884-3.337,8.764-4.892c2.877-1.554,5.877-2.858,8.739-3.4
		c2.842-0.538,5.835-1.041,8.69-1.44c2.846-0.398,5.727-0.695,8.27-0.372c-2.467-0.445-5.327-0.272-8.143,0.012
		c-2.851,0.287-5.737,0.653-8.647,1.126c-2.965,0.483-6.149,1.775-9.129,3.304c-2.987,1.532-5.908,3.24-8.8,4.666
		c-2.918,1.439-5.822,2.421-8.767,3.123c-1.449,0.346-2.894,0.612-4.253,0.735c-1.343,0.122-2.667,0.102-3.513-0.277
		c-0.275-0.075-0.266-0.209-0.455-0.269c-0.071-0.071-0.128-0.22-0.193-0.326c-0.032-0.059-0.048-0.089-0.08-0.148
		c0-0.006-0.001-0.009-0.001-0.015c-0.003-0.029-0.004-0.044-0.006-0.074c-0.095-0.39,0.019-0.737,0.323-1.184
		c0.307-0.451,0.823-0.968,1.409-1.599c0.295-0.318,0.618-0.689,0.915-1.147c0.28-0.465,0.528-1.104,0.395-1.55
		c-0.183-0.874-1.028-1.265-1.46-1.468c-0.633-0.298-1.376-0.441-2.087-0.498c-1.438-0.115-2.912-0.033-4.376,0.105
		c-2.929,0.276-5.897,0.796-8.774,1.227c-3.006,0.45-6.049,1.179-9.064,1.987c-3.016,0.809-6.021,1.712-8.999,2.588
		c-3.575,1.032-5.363,1.538-8.939,2.529c-3.574,0.983-5.361,1.464-8.935,2.405c-1.787,0.471-2.68,0.704-4.467,1.165
		c-1.435,0.359-3.11,0.83-4.325,1.07c-2.769,0.548-5.811,0.878-8.922,1.604c-1.579,0.369-3.219,0.8-5.046,1.641
		c-0.447,0.19-0.92,0.451-1.403,0.768c-0.474,0.262-0.948,0.672-1.399,1.085c-0.293,0.238-0.518,0.535-0.729,0.839
		c-1.261-0.097-2.538-0.258-3.911-0.418c-0.979-0.114-2.019-0.203-3.148-0.199c-0.572,0.002-1.127,0.033-1.805,0.104
		c-0.354,0.037-0.597,0.078-0.861,0.118c-0.079,0.012-0.118,0.018-0.197,0.031c-0.117,0.022-0.175,0.033-0.291,0.056
		c-0.182,0.038-0.273,0.056-0.455,0.094c-2.431,0.533-4.636,1.395-6.672,2.061c-1.02,0.334-2.012,0.63-2.949,0.853
		c-0.875,0.209-1.86,0.351-2.853,0.452c-4.069,0.415-8.226,0.536-12.304,0.835c-2.109,0.155-4.297,0.391-6.541,0.794
		c-1.125,0.203-2.281,0.451-3.426,0.755c-1.155,0.306-2.329,0.695-3.5,1.135c-0.845,0.317-1.268,0.476-2.113,0.791
		c0.204,0.626,0.307,0.939,0.511,1.565c0.084,0.257,0.126,0.386,0.21,0.643c0.049,0.21,0.045,0.405,0.086,0.603
		c-0.047,0.356-0.092,0.646-0.23,0.759c-0.12,0.134-0.379,0.332-0.857,0.554c-0.499,0.211-1.122,0.408-1.789,0.566
		c-1.355,0.319-2.806,0.498-4.331,0.66c-1.482,0.157-3.039,0.266-4.658,0.446s-3.324,0.41-5.135,0.886
		c-0.446,0.117-0.926,0.262-1.458,0.439c-0.276,0.092-0.411,0.149-0.623,0.226c-0.058,0.022-0.087,0.032-0.145,0.054
		c-0.078,0.031-0.117,0.047-0.194,0.078c-0.12,0.057-0.18,0.086-0.301,0.143c-0.23,0.117-0.34,0.191-0.433,0.253
		c-0.098,0.064-0.229,0.153-0.282,0.195c-1.007,0.801-1.409,1.23-1.96,1.683c-0.25,0.205-0.49,0.392-0.669,0.506
		c-0.142,0.09-0.055,0.035-0.096,0.068c-0.057,0.026-0.085,0.039-0.141,0.065c-0.001,0-0.001,0.001-0.002,0.001
		c-0.069,0.024-0.104,0.037-0.173,0.061c-0.48,0.173-1.092,0.31-1.75,0.408c-1.326,0.197-2.814,0.25-4.409,0.363
		c-0.825,0.059-1.589,0.114-2.624,0.271c-0.249,0.043-0.374,0.065-0.623,0.107c-0.317,0.054-0.492,0.106-0.745,0.161
		c-0.474,0.102-0.926,0.234-1.372,0.364c-1.772,0.516-3.401,1.192-4.929,1.793c-1.513,0.596-2.99,1.16-4.258,1.48
		c-0.164,0.04-0.246,0.06-0.409,0.101c-0.236,0.043-0.354,0.065-0.589,0.107c-0.352,0.039-0.529,0.058-0.881,0.096
		c-0.629,0.039-1.272,0.047-1.904-0.001c-2.542-0.194-5.035-0.975-7.439-1.857c-2.43-0.892-4.768-1.957-7.62-2.748
		c-0.615-0.171-0.922-0.256-1.536-0.428c0.023-0.127,0.064-0.255,0.124-0.384c0.218-0.533,0.583-1.065,0.875-1.618
		c0.29-0.55,0.559-1.145,0.572-1.728c0.006-0.298-0.054-0.586-0.11-0.816c-0.092-0.262-0.204-0.531-0.343-0.754
		c-0.569-0.913-1.47-1.632-2.238-2.328c-0.593-0.537-1.117-1.107-1.389-1.732c1.535-0.496,2.873-1.204,4.15-2.024
		c0.766-0.492,1.512-1.064,2.159-1.747c0.609-0.643,1.336-1.592,1.175-2.559c-0.209-0.949-0.733-1.365-1.157-1.852
		c-0.437-0.457-0.876-0.876-1.156-1.28c-0.309-0.446-0.33-0.648-0.331-1.298c0-0.248,0.026-0.513,0.081-0.684
		c0.056-0.171,0.125-0.301,0.324-0.59c1.948-2.846,1.902-5.684,2.918-7.778c0.061-0.112,0.129-0.26,0.183-0.336
		c0.091-0.145,0.199-0.342,0.268-0.42c0.136-0.19,0.339-0.455,0.548-0.69c0.423-0.475,0.934-0.968,1.493-1.475
		c1.099-0.998,2.521-2.154,3.629-3.502c2.163-2.632,3.573-5.26,4.769-7.904c0.293-0.647,0.585-1.339,0.826-2.006
		c0.264-0.731,0.458-1.44,0.593-2.186c0.272-1.508-0.022-2.995-0.355-4.139c-0.098-0.346-0.146-0.519-0.244-0.865
		c-0.012-0.043-0.018-0.064-0.03-0.106c-0.006-0.021-0.009-0.032-0.015-0.053c-0.003-0.011-0.005-0.016-0.008-0.027
		c-0.043-0.104-0.064-0.156-0.107-0.261c-0.011-0.019-0.016-0.029-0.027-0.048c-0.005-0.01-0.008-0.015-0.014-0.024
		c-0.05-0.067-0.075-0.1-0.124-0.167c-0.183-0.226-0.497-0.4-0.563-0.418c-0.47-0.201-0.739-0.224-0.951-0.258
		c0.19-0.297,0.285-0.446,0.475-0.744c0.254-0.393,0.381-0.589,0.634-0.982c0.074-0.128,0.111-0.193,0.186-0.321
		c0.051-0.083,0.191-0.395,0.197-0.419c0.078-0.191,0.116-0.287,0.194-0.479c1.04-2.548,2.064-5.234,2.509-7.975
		c0.221-1.362,0.274-2.73,0.233-4.02c-0.041-1.252-0.284-2.703-0.653-3.85c-0.375-1.167-0.759-2.261-0.951-3.291
		c-0.209-1.124-0.219-2.043,0.145-3.064c0.368-1.032,1.118-2.435,1.593-3.783c0.465-1.318,0.784-2.884,0.789-4.221
		c0.009-2.754-0.977-5.156-2.136-7.285c-0.583-1.071-1.216-2.125-1.852-3.101c-0.644-0.988-1.054-1.819-1.168-2.955
		c-0.11-1.102-0.071-2.405-0.258-3.685c-0.047-0.322-0.107-0.635-0.192-0.962c-0.073-0.284-0.153-0.575-0.269-0.899
		c-0.221-0.615-0.513-1.234-1.025-1.757c-0.513-0.525-1.167-0.848-1.696-1.146c-0.536-0.301-1.03-0.617-1.485-0.984
		c-0.907-0.731-1.598-1.648-2.129-2.664c-0.531-1.015-1.013-2.166-1.69-3.164c-0.449-0.662-1.082-1.249-1.809-1.703
		c0.005-0.069,0.011-0.133,0.016-0.202c0.942,0.133,1.895,0.182,2.822,0.182c1.817,0,3.654-0.184,5.473-0.477
		c1.785-0.288,3.693-0.679,5.529-1.3c1.868-0.632,3.569-1.432,5.183-2.137c1.611-0.703,3.15-1.313,4.671-1.676
		c1.641-0.392,3.303-0.685,5.026-0.975c1.714-0.288,3.467-0.57,5.256-0.934c1.824-0.372,3.533-0.837,5.044-1.034
		c1.576-0.206,3.105-0.256,4.601-0.089c1.498,0.167,3.007,0.497,4.558,0.843c1.55,0.346,3.149,0.695,4.782,0.972
		c1.63,0.276,3.362,0.484,5.078,0.574c6.705,0.353,13.497-0.362,20.234,0.183c0.579,0.054,0.869,0.081,1.448,0.135
		c0.263-0.515,0.395-0.772,0.657-1.287c1.471-2.888,1.458-5.398,1.707-7.686c0.124-1.14,0.278-2.28,0.56-3.291
		c0.261-0.937,0.917-2.133,1.22-2.19c0.665-0.456,2.19-0.761,3.908-1.816c0.431-0.288,0.872-0.629,1.245-1.04
		c0.11-0.124,0.165-0.186,0.274-0.31c0,0,0.223-0.3,0.146-0.197c0.014-0.021,0.021-0.032,0.035-0.053
		c0.028-0.042,0.042-0.064,0.07-0.106c0.098-0.158,0.17-0.234,0.312-0.52c0.116-0.235,0.251-0.508,0.328-0.718
		c0.073-0.227,0.109-0.341,0.182-0.568c0.096-0.362,0.177-0.72,0.228-1.05c0.207-1.326,0.242-2.527,0.328-3.634
		c0.083-1.065,0.325-2.27,0.669-2.654c0.019-0.026,0.028-0.04,0.047-0.066c0.004-0.007,0.006-0.011,0.01-0.018
		c-0.13,0.119-0.008,0.007-0.025,0.022c0.039-0.036,0.058-0.054,0.097-0.09c0.115-0.104,0.289-0.279,0.356-0.324
		c0.038-0.028,0.085-0.06,0.124-0.088c0.147,0.039,0.468,0.17,0.879,0.272c0.426,0.106,1.057,0.141,1.626,0.02
		c0.579-0.109,1.104-0.327,1.53-0.553c0.495-0.245,0.79-0.465,1.08-0.636c0.283-0.166,0.676-0.452,0.998-0.678
		c2.588-1.823,4.526-4.034,6.518-5.741c2.028-1.737,4.112-2.859,6.692-3.734c2.497-0.847,5.097-1.461,7.73-2.028
		c2.633-0.567,5.328-1.1,8.054-1.852c2.733-0.753,5.525-1.727,8.144-2.935c5.37-2.477,10.461-5.521,15.185-9.072
		c2.344-1.762,4.633-3.821,6.654-5.975c1.015-1.082,2.018-2.161,2.915-3.46c0.833-1.206,1.589-2.409,2.329-3.586
		c1.464-2.327,2.908-4.74,4.708-6.531c0.923-0.919,1.758-1.369,2.968-1.697c1.18-0.32,2.574-0.488,4.104-1.153
		c2.853-1.24,5.263-3.429,7.376-5.337c2.14-1.932,4.269-3.784,6.637-4.882c4.817-2.233,10.273-3.073,15.399-4.503
		c2.645-0.738,5.356-1.742,7.983-3.087c2.586-1.324,5.172-3.047,7.503-4.802c4.629-3.484,9.14-7.346,14.134-10.337
		c2.433-1.457,4.967-2.304,7.564-3.059c2.575-0.748,5.19-1.437,7.787-2.124c5.363-1.42,10.815-3.097,15.689-5.692
		c7.344-3.91,14.352-8.686,21.428-13.239c1.211-0.659,2.45-1.326,3.617-2.075c3.323-2.132,7.008-4.252,11.07-4.663
		c-1.398-0.336-3.035-0.859-4.672-0.482c-1.512,0.348-2.992,1.227-4.488,1.345c-1.667,0.131-3.197-0.399-4.794-0.34
		c-6.064,0.223-13.997,4.962-20.04,2.059c0.892-1.064,1.706-3.506,2.976-4.719c-6.992,1.019-12.791,5.351-19.123,8.141
		c-1.136-8.813-26.785,3.216-31.602,4.119c-7.632,1.432-14.543,8.064-22.613,6.948c-5.933-0.82-6.439-7.853-11.774-9.878
		c0.187-0.788,0.695-1.673,1.17-2.435c-1.01,0.354-2.049,0.193-3.133,0.686c3.259-10.547,16.381-13.877,20.842-23.806
		c-3.899-0.375-7.227-3.67-10.905-0.797c-3.491,2.727-3.606,7.835-6.322,10.837c-1.61,1.779-7.179,3.441-9.56,4.612
		c-4.68,2.302-9.448,4.561-13.828,7.448c2.87,7.103-21.059,17.821-26.564,18.401c5.931,3.875,14.099-0.602,20.295-1.351
		c5.634-0.681,11.979-1.895,17.508,0.143c-0.575,1.046-0.58,2.155-1.152,3.205c1.216,0.226,2.287,1.643,3.511,1.852
		c-0.46,0.733-0.858,1.612-1.316,2.335c6.056,7.514,23.248-0.516,30.986-1.332c-1.563,3.082-4.653,4.884-7.792,6.051
		c0.095,0.57,1.245,0.203,1.647,0.275c-0.507,0.736-1.463,2.124-1.721,2.97c8.217-2.75,16.634-3.212,24.983-4.658
		c2.329-0.403,4.875-2.133,7.216-2.617c1.47-0.303,2.672,0.079,4.03,0.136c0.001,0,0.003,0,0.004,0
		c-0.42,0.21-0.85,0.425-1.249,0.667c-4.986,3.009-9.688,6.792-14.437,10.265c-2.352,1.72-4.722,3.26-7.238,4.508
		c-2.477,1.229-5.044,2.141-7.606,2.818c-5.183,1.369-10.543,2.244-15.528,4.371c-8.323,0.884-21.752,8.123-27.909,1.079
		c-2.925-3.346-1.715-10.628-6.017-12.443c-3.879-1.637-8.876,1.817-13.49,0.946c-0.463,4.117-5.086,11.862-10.164,8.507
		c-2.639,2.61-3.793,7.245-8.423,5.997c-3.759-1.013-6.963-3.651-10.804-3.923c-3.584-0.254-6.797,2.363-10.48,2.831
		c-1.729,0.22-4.208,0.02-5.797-0.417c-1.875-0.516-3.894,0.287-2.692,0.035c0.069,0.395,0.174,0.749,0.309,1.068
		c-3.013-0.383-5.582-1.476-3.977-5.174c2.985-0.202,5.283-3.175,8.781-3.801c3.173-0.567,5.987-0.446,9.106-1.853
		c3.617-1.632,7.405-3.56,11.35-4.206c4.291-0.702,8.734-1.214,13.081-2.078c-3.975-2.363-7.726-4.978-11.577-7.535
		c-1.499-1.464-2.913-3-4.396-4.544c-0.578-0.872-1.279-1.675-1.92-2.475c-0.556-0.696-1.148-1.394-1.66-2.123
		c-1.062-2.491-0.086-4.334,0.366-7.095c0.397-0.732,0.7-1.592,0.651-2.417c-0.005-0.521-0.114-1.01-0.275-1.443
		c-0.026-0.086-0.066-0.16-0.098-0.241c0.275-0.067,0.412-0.1,0.687-0.168c0.609-0.195,1.213-0.426,1.821-0.642
		c1.195-0.497,2.361-1.074,3.481-1.724c2.239-1.299,4.312-2.831,6.32-4.31c1.004-0.739,2.003-1.474,3.004-2.159
		c0.999-0.684,2.016-1.306,3.038-1.866c0.619-0.298,0.928-0.447,1.547-0.746c0.625-0.23,0.938-0.346,1.563-0.578
		c0.266-0.065,0.399-0.097,0.665-0.163c2.849,0,5.486-0.068,8.376,1.479c0.008-0.8,1.15-2.951,1.211-3.753
		c3.315,0.425,6.64-0.187,9.565,1.255c0.059-3.684-2.622-4.52-0.233-8.425c1.558-2.547,4.005-3.44,6.478-4.049
		c5.024-1.237,12.664-0.362,16.535,3.591c0.96-1.984,0.384-4.199-0.38-6.036c5.756-0.536,0.434-6.006,2.951-8.819
		c3.145-3.515,10.179-3.95,14.466-6.33c7.055-3.916,14.3-8.76,22.158-11.744c-5.132-0.866-10.322,0.751-15.339,0.816
		c-3.046,0.039-5.566-0.642-8.682-0.341c-0.195-0.228-0.451-0.663-0.69-1.126c-0.082-0.141-0.16-0.288-0.242-0.44
		c0.441-0.285,0.877-0.579,1.291-0.893c0.961-0.727,1.874-1.51,2.734-2.33c1.719-1.642,3.334-3.429,4.689-5.266
		c2.612-3.543,4.716-7.262,6.675-11.308c0.378-0.081,0.761-0.154,1.128-0.27c0.581-0.184,1.172-0.337,1.74-0.566
		c1.15-0.407,2.277-0.91,3.383-1.447c2.213-1.074,4.381-2.325,6.444-3.749c1.032-0.712,2.057-1.457,3.041-2.252
		c0.981-0.793,1.958-1.619,2.864-2.527c0.466-0.437,0.911-0.898,1.327-1.391c0.437-0.469,0.837-0.973,1.214-1.494
		c0.406-0.498,0.728-1.054,1.058-1.597c0.187-0.281,0.329-0.583,0.461-0.887c0.035,0.169,0.077,0.334,0.114,0.503
		c0.121,2.464,0.486,4.898,1.115,6.461c-0.268,0.383-0.533,0.783-0.792,1.238c-0.231,0.405-0.346,0.608-0.578,1.013
		c0.292,0.308,0.439,0.461,0.731,0.769c1.77,1.863,3.319,3.96,4.603,6.234c0.642,1.138,1.217,2.352,1.706,3.579
		c0.487,1.221,0.9,2.536,1.259,3.85c0.359,1.316,0.634,2.699,0.816,4.069c0.183,1.378,0.282,2.826,0.275,4.272
		c-0.007,1.491-0.068,2.828-0.258,4.399c-0.179,1.477-0.371,3.325-0.31,4.882c0.062,1.586,0.217,3.138,0.462,4.618
		c0.245,1.479,0.57,2.934,0.93,4.332c0.722,2.806,1.583,5.565,2.556,8.197c1.917,5.187,4.188,10.302,6.823,15.195
		c-1.668-5.428-3.311-10.875-4.784-16.349c-0.368-1.368-0.703-2.775-1.025-4.144c-0.324-1.374-0.626-2.794-0.887-4.185
		c-0.26-1.385-0.474-2.833-0.647-4.248c-0.173-1.413-0.279-2.866-0.282-4.284c-0.002-1.441,0.173-2.77,0.431-4.405
		c0.244-1.545,0.357-3.319,0.374-4.873c0.017-1.598-0.072-3.185-0.258-4.703c-0.185-1.508-0.471-3.027-0.851-4.472
		c-0.38-1.444-0.874-2.849-1.425-4.172c-0.553-1.328-1.209-2.623-1.921-3.844c-0.713-1.223-1.511-2.399-2.374-3.486
		c-0.634-0.798-1.34-1.545-2.054-2.272c0.588-0.862,1.359-1.824,2.11-2.702c1.086-1.27,2.227-2.564,3.36-3.853
		c2.272-2.583,4.621-5.16,6.726-8.068c0.527-0.728,1.045-1.466,1.509-2.296c0.242-0.391,0.46-0.834,0.651-1.31
		c0.096-0.229,0.144-0.343,0.24-0.572c0.082-0.183,0.16-0.422,0.244-0.561c0.279-0.578,0.751-1.32,1.225-1.984
		c0.484-0.679,1.007-1.355,1.543-2.023c1.072-1.336,2.187-2.692,3.229-4.104c0.279-0.378,0.557-0.77,0.824-1.171
		c0.381,0.012,0.775,0.195,1.181,0.652c-0.247,0.659,2.938-1.793,2.778-1.147c0.895-0.686,1.342-1.03,2.236-1.721
		c7.053-4.143,6.2,4.976,5.617,8.665c7.966,0.165,10.507,5.748,17.675,7.72c4.752-7.164,13.752-10.464,21.536-13.091
		c8.374-0.764,16.665-0.279,24.423,2.916c6.039,2.487,11.661,5.38,16.697,9.441c5.029,4.057,4.841,10.844,4.534,16.811
		c-0.344,6.694-1.143,13.215-5.421,18.735c-5.863,7.565-12.232,14.659-17.213,22.918c2.129-1.963,4.742-3.792,6.979-4.987
		c0.586,6.363,1.6,12.72,0.256,19.067c-2.343,11.06-4.012,23.107-10.397,32.722c1.714-2.268,3.808-4.306,5.489-6.622
		c1.051,3.54,3.119,5.184,1.919,10.072c-1.233,5.024-3.372,9.926-5.733,14.497c-6.513,12.607-15.117,22.69-26.126,31.653
		c-7.168,5.835-14.563,13.326-17.884,22.195c4.415-4.349,9.58-7.883,14.653-11.385c4.967-3.429,6.176-2.621,10.064-1.588
		c-5.956,10.692-10.653,22.02-16.08,32.945c-2.048,4.123-3.704,8.474-4.969,12.91c6.253-3.568,12.459-7.41,19.021-10.385
		c-3.696,5.853-4.444,12.961-8.535,18.608c-1.523,2.102-12.899,20.117-2.733,16.321c-2.526,5.307-4.269,11.191-6.801,16.2
		c-1.919,3.797-5.273,7.543-6.334,11.807c-0.63,2.532-0.09,4.674,0.867,6.5c-0.451,2.043-1.772,6.203-1.772,6.203
		s1.394-4.003,1.891-5.974c0.182,0.331,0.375,0.657,0.584,0.975c0.294-6.686,2.886-12.674,7.03-17.868
		c1.941-2.142,4.112-4.199,6.235-6.209c2.86-2.708,5.762-5.438,8.444-8.354c-0.646,1.97-2.22,4.037-4.041,5.697
		c5.503,3.883,3.839,11.11,2.521,16.28c-0.213,0.836-3.581,9.932,2.326,5.851c4.815-3.326,4.576-3.128,6.384,1.947
		c3.967-4.367,8.16-8.298,13.657-10.403c4.698-1.799,9.532,0.23,14.412-0.846c-4.684-2.865-8.215-7.286-11.1-11.881
		c-0.096-3.848-0.357-7.852-0.415-11.54c-0.135-8.571-4.532-7.425-11.389-8.711c-1.507,3.916-4,7.404-7.145,10.174
		c-0.271,0.387-0.407,0.58-0.678,0.966c-1.379,0.128-2.834,0.283-4.112,0.059c-0.425-2.734,0.715-6.247,2.498-9.5
		c2.155-3.932,4.781-7.907,6.7-11.822c3.613-7.371,5.551-16.221,9.509-23.79c4.134-7.907,8.363-15.942,11.544-24.108
		c1.527-3.92,2.893-8.028,3.766-12.218c0.022-0.107,0.036-0.212,0.057-0.32c-0.493,3.603-1.548,7.08-2.297,10.613
		c-1.242,5.86-5.209,19.057-3.009,20.691c1.436,1.066,2.938-6.114,3.283-7.077c1.397-3.896,4.596-7.345,7.659-9.85
		c6.08-4.973,8.422,2.806,14.11,3.059c2.472-4.136,3.808-8.997,7.219-12.408c2.27-2.271,4.165-2.722,6.494-4.854V575.08
		c-3.914-0.478-7.848,1.48-11.874,2.917c-7.209,2.572-14.072,1.488-18.921,8.802c-0.045,0.176-0.071,0.351-0.111,0.527
		c-0.385-0.511-0.96-0.844-1.784-0.944c0.264-2.207,0.438-4.37,0.565-6.515c0.176-2.954,0.28-5.89,0.483-8.829
		c0.254-2.22,0.484-4.429,0.686-6.614c0.003-0.031,0.008-0.062,0.011-0.094c0.353-2.362,0.846-4.745,1.562-7.16
		c2.254-7.601,5.833-14.756,7.57-22.522c-0.012,1.257,0.104,2.37,0.462,3.211c0.607,1.426,6.489,6.583,7.344,6.298
		c3.734-1.242,6.426-6.301,9.209-9.293c1.485-1.597,3.103-3.141,4.799-4.607v-25.441c-0.571,1.131-1.084,2.328-1.523,3.607
		c-7.778-0.338-11.487,10.862-14.961,16.052c-1.101-0.645-2.081-1.796-4.489-1.801c-0.005-0.493-0.007-0.984-0.006-1.468
		c0.004-1.793,0.195-3.514,0.672-5.367c0.477-1.855,1.14-3.798,1.932-5.729c1.64-3.998,3.65-7.983,5.332-11.95
		c0.871-2.053,1.621-4.256,2.134-6.43c0.573-2.427,0.855-3.641,1.408-6.068c0.922-4.601,1.729-9.193,2.437-13.832
		c2.593-3.325,3.854-7.403,6.642-10.6c0.147,0.305,0.284,0.615,0.422,0.923V398.59c-4.193-4.968-2.274-14.525-9.436-17.036
		c-0.423-1.528-0.83-3.048-1.169-4.579c-0.363-1.641-0.667-3.462-0.708-5.059c-0.069-2.649,0.392-5.669,0.779-8.819
		c1.032,4.802,2.223,14.764,8.855,15.031c0.857-3.153-0.696-5.381-1.524-7.824c0.961-0.729,2.066-1.06,3.203-1.294v-16.191
		c-3.26,2.027-6.596,4.169-8.96,1.93c-0.402,0.377-0.603,0.565-1.006,0.941c0.068,0.193,0.15,0.367,0.227,0.546
		c-0.123-0.016-0.25-0.03-0.376-0.045c-0.019-0.656-0.055-1.311-0.118-1.949c-0.098-0.997-0.264-2-0.463-2.924
		c-0.179-0.83-0.433-1.877-0.712-2.701c-1.416-4.179-3.358-8.352-5.151-12.51c-0.825-3.594-1.664-7.184-2.468-10.783
		c-0.183-2.163-0.322-4.438-0.584-6.676c-0.192-1.638-0.478-3.33-0.944-4.935c1.225,1.472,1.504,3.824,2.902,4.9
		c0.653,0.503,2.205-0.46,2.895-0.012c1.076,0.699,1.518,2.008,2.493,2.875c2.131,1.896,1.97,2.942,4.511,0.844
		c1.2-0.991,3.08-5.231,2.558-6.613c1.493-1.564,3.275-2.518,5.195-3.102v-16.924c-3.518,0.233-6.108,3.326-8.982,4.582
		c-6.376,2.787-9.371-0.193-11.863-7.113c-0.019-0.146-0.036-0.294-0.056-0.439c-0.372-2.727-1.044-5.259-1.748-7.725
		c-0.705-2.468-1.519-4.839-2.304-7.194c-0.615-1.844-1.218-3.689-1.753-5.547c4.886,1.203,10.001-3.745,14.353-4.055
		c3.755-0.267,8.706,0.992,12.353,3.424v-30.503c-3.089-0.269-6.287-0.184-8.952-1.164c-9.685-3.563-14.707-14.943-18.794-24.117
		c4.068-3.893,14.692-3.166,16.542-8.801c1.693-0.214,3.456-0.679,5.144-1.229c-4.043-2.024-9.883-4.033-11.65-8.192
		c-1.249-2.939,1.45-6.36,2.733-8.682c3.358-6.077,7.816-11.494,13.024-16.077c0.63-0.228,1.285-0.413,1.953-0.577v-9.522
		c-4.008,2.515-8.573,4.153-13.215,4.358c1.392-6.7,1.62-13.629,1.666-20.452c-2.818,1.002-5.628-0.173-7.49-2.57
		c-8.328,8.694-11.034,21.411-17.115,31.179c-2.949,4.737-7.984,8.113-12.359,11.665c0.115-0.147,0.225-0.303,0.34-0.449
		c0.731-0.922,1.489-1.827,2.267-2.638c0.387-0.404,0.789-0.802,1.18-1.128c0.515-0.43,0.879-0.81,1.326-1.219
		c1.836-1.897,3.141-4.19,4.319-6.457c1.187-2.285,2.176-4.668,3.155-7.045c1.139-2.851,1.701-4.283,2.812-7.16
		c0.945-2.369,1.887-4.75,2.958-7.012c1.071-2.26,2.271-4.422,3.775-6.169c0.745-0.866,1.653-1.657,2.427-2.833
		c0.384-0.584,0.71-1.334,0.846-2.114c0.135-0.775,0.073-1.573-0.035-2.211c-0.119-0.702-0.532-1.562-0.379-1.324
		c0.178-0.378,0.587-0.974,0.921-1.428c0.676-0.918,1.509-1.766,2.342-2.579c0.837-0.817,1.71-1.621,2.535-2.536
		c0.833-0.924,1.583-1.905,2.325-2.922c1.475-2.023,2.824-4.179,4.23-6.245c1.728-2.45,2.587-3.684,4.295-6.171
		c1.357-2.097,3.165-3.629,4.566-5.842c1.333-1.829,1.45-4.386,2.307-6.371v-0.481C559.517,105.512,559.202,106.585,558.942,107.59z
		 M507.591,202.444c-0.867-1.23-1.302-1.844-2.173-3.068c1.522,1.621,3.041,3.879,4.438,6.433
		C509.112,204.669,508.355,203.558,507.591,202.444z M524.875,263.443c0.093-0.148,0.187-0.312,0.291-0.426
		c0.07-0.057,0.023-0.049,0.041,0.028c0.001,0.064-0.011,0.14-0.02,0.213c-0.204,0.196-0.39,0.417-0.592,0.616
		C524.685,263.727,524.784,263.587,524.875,263.443z M26.103,722.253c-0.001-0.004-0.001-0.008-0.002-0.012
		c-0.011-0.107-0.017-0.16-0.029-0.267c-0.004,0.035-0.006-0.165-0.009-0.235c-0.007-0.198-0.018-0.423,0.008-0.543
		c0.017-0.251,0.073-0.578,0.158-0.889C26.152,720.952,26.113,721.601,26.103,722.253z M28.121,734.286
		c0.12,0.491,0.238,0.984,0.353,1.478C28.295,735.254,28.163,734.76,28.121,734.286z M183.467,786.467
		c0.009,0.017,0.019,0.033,0.028,0.05c0.095,0.256,0.166,0.461,0.187,0.69c0.042,0.47-0.103,1.002-0.309,1.536
		c-0.204,0.531-0.647,1.648-0.647,1.648C182.725,790.392,183.406,787.962,183.467,786.467z M182.721,790.403
		c0,0-0.046,0.22-0.055,0.329c-0.016-0.004-0.024-0.007-0.04-0.011C182.658,790.616,182.721,790.403,182.721,790.403z
		 M174.544,739.521c-0.395-9.303-5.395-15.387-10.326-22.923c-0.297-4.137-1.434-8.153-2.893-12.018
		c4.622,0.247,10.649-1.449,14.411,2.098c-1.96-2.456-3.09-4.339-5.409-6.226c-2.101-1.71-4.048-4.477-6.55-6.11
		c-4.226-2.757-9.59-3.991-13.681-7.242c0.062,0.302,0.137,0.596,0.217,0.886c-0.213-0.235-0.438-0.465-0.673-0.692
		c0.105-0.274,0.221-0.535,0.353-0.783c1.579,0.419,3.217,0.621,4.798,0.749c2.147,0.173,4.241,0.218,6.162,0.436
		c0.626,0.069,0.939,0.104,1.566,0.172c0.592,0.052,1.164,0.082,1.747,0.089c1.167,0.015,2.388-0.072,3.553-0.241
		c1.31-0.214,1.965-0.323,3.275-0.543c0.514-0.084,1.012-0.148,1.51-0.206c-0.08,0.007,0.209-0.011,0.296-0.015
		c0.094,0.003,0.141,0.005,0.235,0.008c0.261,0.015,0.392,0.022,0.653,0.036c0.964,0.076,1.994,0.203,3.043,0.304
		c1.062,0.102,2.122,0.208,3.38,0.187c0.654-0.04,1.265,0.007,2.463-0.423c0.093-0.04,0.14-0.06,0.233-0.1
		c0.046-0.021,0.069-0.032,0.115-0.053c0.023-0.011,0.034-0.016,0.057-0.027c-0.217,0.136,0.328-0.201,0.275-0.168
		c0.004-0.003,0.006-0.005,0.011-0.008c0.068-0.049,0.102-0.074,0.17-0.123c0.079-0.057,0.118-0.086,0.197-0.143
		c0.226,3.895,1.57,7.66,2.165,11.381C188.049,711.304,181.385,727.686,174.544,739.521z M198.845,722.654
		c0.017,0.783-0.03,1.578-0.116,2.372c-0.015-1.547-0.073-3.035-0.081-4.386C198.767,721.281,198.83,721.928,198.845,722.654z
		 M469.832,535.427c0.282-0.164,0.575-0.317,0.862-0.476c-4.136,2.597-8.275,5.178-12.465,7.687
		C462.078,540.198,465.937,537.697,469.832,535.427z M279.489,616.684c1.589,2.786,2.16,4.688,5.568,5.67
		c2.252,0.649,4.301-0.419,5.395,1.68c-3.099,1.545-4.881,4.271-8.229,5.824c-2.875,1.334-4.958,0.961-6.906,4.104
		c2.795,0.251,3.797,1.912,5.018,2.857c-0.185,0.031-0.371,0.079-0.549,0.148c-0.739,0.263-1.177,0.607-1.634,0.974
		c-0.212,0.17-0.282,0.254-0.431,0.385c-0.039,0.036-0.058,0.054-0.097,0.089c-0.047,0.046-0.071,0.068-0.118,0.114
		c-0.029,0.033-0.043,0.049-0.073,0.082c-0.113,0.133-0.17,0.199-0.283,0.332c-0.702,0.9-0.974,1.732-1.141,2.43
		c-0.166,0.693-0.25,1.368-0.304,1.977c-0.109,1.232-0.157,2.395-0.327,3.443c-0.042,0.262-0.103,0.508-0.164,0.743
		c-0.043,0.132-0.064,0.198-0.106,0.33c-0.034,0.088-0.055,0.11-0.068,0.17c0.028,0.014-0.12,0.213-0.201,0.34
		c-0.022,0.033-0.033,0.05-0.055,0.083c-0.024,0.025-0.035,0.037-0.059,0.062c-0.095,0.112-0.233,0.212-0.395,0.326
		c-0.729,0.513-2.035,0.739-3.849,1.765c-0.233,0.146-0.454,0.295-0.709,0.507c-0.285,0.237-0.583,0.553-0.635,0.629
		c-0.41,0.484-0.522,0.752-0.788,1.142c-0.391,0.72-0.696,1.442-0.896,2.119c-0.403,1.364-0.564,2.629-0.693,3.831
		c-0.201,1.865-0.342,3.688-0.871,5.286c-6.272-0.173-12.643,0.147-18.806-0.116c-1.582-0.068-3.155-0.274-4.713-0.539
		c-1.556-0.264-3.083-0.601-4.639-0.949c-1.555-0.348-3.173-0.709-4.932-0.91c-1.293-0.148-2.673-0.163-4.055-0.059
		c0.597-0.425,1.16-0.905,1.63-1.429c1.197-1.335,2.038-2.856,2.742-4.34c1.41-2.973,2.272-6.061,3.02-9.085
		c0.749-3.03,1.277-6.05,1.771-9.049c0.31-1.789,0.462-2.684,0.76-4.472c0.255-1.499,0.629-2.853,1.077-4.376
		c0.87-2.955,1.798-5.975,2.531-9.016c0.366-1.519,0.696-3.054,0.921-4.592c0.214-1.466,0.354-2.899,0.39-4.392
		c1.311,2.81,2.993,5.531,5.355,5.922c-2.412-7.464,0.027-15.273-1.183-22.887c5.047,3.515,8.075,9.178,13.483,12.234
		c0.737-2.173-0.466-4.27,0.112-6.418c0.218-0.81,1.499-2.69,1.597-3.161c0.325-1.562,0.879-4.547,0.611-6.97
		c6.254,1.46,10.127,9.639,11.408,15.321c-2.052,2.102-4.669,1.46-6.974,0.787c0.73,2.955,5.177,3.376,7.372,5.254
		C277.211,612.464,278.263,614.534,279.489,616.684z M299.064,539.325c-0.396,0.111-0.799,0.238-1.207,0.377
		c0.403-0.213,0.806-0.428,1.211-0.636C299.076,539.151,299.065,539.239,299.064,539.325z M438.942,400.597
		c0.561-0.355,1.19-0.702,1.828-1.058c-0.615,0.472-1.244,0.857-1.896,1.106C438.897,400.63,438.919,400.612,438.942,400.597z
		 M456.891,407.263c-0.636,1.194-1.28,2.541-2.031,3.694c-4.623,3.218-8.8,6.494-11.814,11.33c0.211-0.475,0.386-0.958,0.495-1.452
		c-0.499,1.392-1.442,2.549-2.413,3.655c-0.559,0.335-1.075,0.978-1.53,1.655c-0.833,0.87-1.68,1.732-2.518,2.62
		c-0.597,0.633-1.203,1.279-1.777,1.964c-0.584,0.697-1.13,1.372-1.677,2.305c-0.07,0.113-0.12,0.209-0.165,0.303
		c-2.032-0.086-3.319-1.188-2.119-3.58c-2.015-0.893-4.211,0.607-6.18,0.685c0.592-1.896,0.25-3.653,0.258-5.452
		c1.085-2.413,1.961-4.827,2.855-7.238c1.251-3.372,2.446-6.769,4.065-9.784c1.474-2.746,3.484-5.14,5.885-6.87
		c2.058,0.688,6.461-3.282,9.077-3.503c3.083-0.261,4.923,0.829,4.98,4.172C456.844,400.787,459.584,402.208,456.891,407.263z
		 M511.298,344.182c-1.225,6.198,0.994,13.9-2.196,19.9c-1.159,2.18-2.468,3.452-3.269,5.983c-0.566,1.789-0.731,2.599-1.519,3.697
		c-2.443,3.406-5.899,6.129-9.361,8.979c2.292-0.45,5.996-0.947,6.636,1.809c-1.129,0.874-2.12,2.105-2.824,3.454
		c-3.84,2.784-7.711,5.433-11.788,7.678c-4.473,2.464-9.419,4.405-14.236,6.359c-0.244-0.228-0.548-0.502-1.025-0.815
		c-2.239-1.47-4.858-2.624-7.563-3.161c-3.122-0.619-5.613-1.183-8.261-2.536c-1.99-1.017-3.497-1.963-5.925-1.815
		c0.273-0.406,0.495-1.268,0.774-1.664c-0.499,0.025-0.974,0.143-1.439,0.301c0.655-1.354,1.022-2.664,1.401-3.844
		c0.554-1.725,1.062-3.456,1.624-5.16c0.57-1.73,1.136-3.356,1.85-4.811c0.705-1.436,1.611-2.591,2.813-3.651
		c1.162-1.025,2.677-2.08,3.998-2.91c0.067-0.034,0.16-0.072,0.251-0.11c0.017,0.038,0.031,0.067,0.048,0.108
		c1.979,0.537,4.282-1.133,6.006-0.321c0.875,0.412,0.88,1.852,2.009,2.241c0.66,0.227,2.16-0.038,2.889-0.222
		c2.09-0.526,4.161-1.953,6.263-2.551c2.583-0.735,5.459,0.055,7.817-1.093c-5.297-1.555-10.148-4.682-15.838-4.533
		c0.811-1.707,1.484-3.255,2.274-4.233c0.935-1.057,2.214-2.01,3.63-2.853c1.419-0.844,3.145-1.714,4.767-3.186
		c1.646-1.494,2.913-3.441,3.776-5.498c0.328-0.781,0.743-1.976,0.995-2.941c0.256-0.982,0.458-1.959,0.622-2.903
		c0.654-3.76,0.842-7.294,2.074-10.371c0.305-0.76,0.65-1.497,1.08-2.173c0.024-0.039,0.036-0.058,0.06-0.096
		c0.014,0.024,0.013,0.063,0.033,0.08c1.349-1.288,3.029-2.408,4.603-2.743c0.616,3.205,1.016,9.657,5.721,8.955
		c2.839-0.424,6.154-1.938,8.843-2.274C514.011,334.621,511.779,341.752,511.298,344.182z M483.507,683.033
		c0.797-0.845,1.616-1.708,2.483-2.612c0.677-0.706,1.844-1.722,2.898-2.717C487.144,679.504,485.321,681.266,483.507,683.033z
		 M490.752,675.712c0.049-0.068,0.114-0.144,0.154-0.208c0.281-0.446,0.497-0.81,0.673-1.128c0.032,0.108,0.048,0.226,0.084,0.331
		C491.369,675.047,491.055,675.377,490.752,675.712z M545.25,494.683l-0.212,0.624L545.25,494.683z M516.164,223.068
		c1.605-1.037,4.93-2.16,6.331-0.756c2.327,2.331-0.137,1.347,0.346,3.555c0.775,3.543,2.156,7.195,1.946,10.961
		c5.16,1.098,12.925,2.364,13.613,8.914c-1.395-0.606-2.99-0.506-5.637-1.41c-0.886,4.674-2.955,9.287-3.49,13.819
		c-0.133,1.13-0.006,2.29,0.184,3.367c-0.004-0.005-0.007-0.011-0.011-0.016c-2.067-3.444-4.561-6.62-6.812-9.906
		c-1.272-1.856-2.456-3.862-3.351-5.969c-0.223-0.524-0.471-1.08-0.665-1.603c-0.211-0.572-0.435-1.176-0.607-1.71
		c-0.353-1.09-0.682-2.279-0.905-3.437c-0.445-2.313-0.393-4.877-0.43-7.616c-0.036-2.726-0.218-5.456-0.69-8.112
		c-0.404-2.274-0.929-4.476-1.531-6.631C515.242,218.906,515.832,221.171,516.164,223.068z"/>
	<path fill="#3EADFF" d="M560.454,103.861c-0.169,0.227-0.316,0.48-0.454,0.74v0.481c0.163-0.378,0.344-0.742,0.575-1.069
		c1.431-2.022,4.574-5.846,4.574-5.846S561.955,101.845,560.454,103.861z"/>
</g>
</svg>
